<svg xmlns="http://www.w3.org/2000/svg" viewBox="0 0 267.72 7.25"><defs><style>.cls-1{fill:#231815;}</style></defs><g id="レイヤー_2" data-name="レイヤー 2"><g id="contents"><path class="cls-1" d="M150.4,1l-.25.32.39.42c.12,0,.27-.05.36.11a.41.41,0,0,1,0,.27.39.39,0,0,0,.05.14c.06.06.12.14.19.2s-.15.21-.22.33a2.81,2.81,0,0,0,0,.3c-.18.2-.36.41-.53.63a2.09,2.09,0,0,1,.2.22.54.54,0,0,0,0,.1c-.28.33-.29.19,0,.53a.66.66,0,0,1-.13.22A.56.56,0,0,1,150,5a.34.34,0,0,0-.35.15.25.25,0,0,1-.21.15H149c-.25-.13-.37-.42-.64-.59h-1l-.38-.45a3.41,3.41,0,0,1,0-.57c-.07-.1-.17-.21-.26-.33,0-.58,0-1.18,0-1.76.41-.47.82-.92,1.24-1.39h.49c.1.11.21.21.3.3a5.62,5.62,0,0,1,.82,0,.49.49,0,0,0,.56.26.34.34,0,0,1,.14,0A.23.23,0,0,1,150.4,1Zm-2.28.46h-.26a.26.26,0,0,0-.09.09c0,.07,0,.15.09.21h.53s.06-.06.09-.1,0-.15-.1-.19A.74.74,0,0,0,148.12,1.42Zm2.25,1.4q0-.1-.09-.21a.44.44,0,0,0-.09.11s0,.13.09.19Zm-40.85.43c0-.17,0-.31,0-.46s0-.26.22-.3c.34-.07.34-.07.31-.47a1.8,1.8,0,0,1-.19-.21.17.17,0,0,1-.07-.12.68.68,0,0,0,0-.29L109,.57c0-.06,0-.1,0-.15,0-.26-.09-.33-.33-.32a2,2,0,0,0-.65,0c-.12.14-.23.31-.44.28,0,0-.08,0-.11.05s-.12.16-.19.2-.18,0-.25,0a1.15,1.15,0,0,0-.3.28l-.25,0-1,1.11c0,.33,0,.73,0,1.13l-.27.32.26.32c0,.11,0,.21,0,.3a.21.21,0,0,0,.1.11c.38.12.38.12.56.31H108l.29-.29h.24C108.88,3.94,109.21,3.59,109.52,3.25Zm26.66.51a1.17,1.17,0,0,1,0-.11l.19-.21c0-.09,0-.2,0-.3L137,2.5c0-.2,0-.39,0-.59l.39-.43c.36,0,.36,0,.41-.38,0-.2.09-.24.39-.23l.29-.3s.08.07.09.11,0,.38.2.46c.13-.1.09-.26.11-.4A.19.19,0,0,1,139,.57a5,5,0,0,1,.67,0,.3.3,0,0,1,.12,0,.54.54,0,0,0,.57.26.56.56,0,0,1,.13,0c.13,0,.21.12.21.29V1.3l.27.32c0,.1,0,.2,0,.3l.18.21a.31.31,0,0,1,.08.27.31.31,0,0,1-.12.24.39.39,0,0,0-.15.23,5.18,5.18,0,0,1,0,.88.6.6,0,0,0-.24.49c0,.16-.1.22-.28.22h-.12l-.27.29h-.8l-.3-.29c-.28,0-.54,0-.81,0a2,2,0,0,1-.19.22s-.07,0-.09,0-.23-.3-.44-.26-.2-.17-.3-.27-.19.17-.28.26C136.61,4.25,136.41,4,136.18,3.76Zm2.39-1.24a3.09,3.09,0,0,1,0,.43.27.27,0,0,0,.09.26c.06,0,.11,0,.18-.09a2.6,2.6,0,0,1,.28-.29c0-.16,0-.33-.1-.42S138.75,2.34,138.57,2.52Zm-.62.1s.08-.07.08-.1-.05-.07-.08-.1a.3.3,0,0,0-.25,0,.27.27,0,0,0-.2.15.27.27,0,0,0,.2.15A.35.35,0,0,0,138,2.62Zm-114.44,2c-.49,0-1,0-1.46,0a.41.41,0,0,1-.12,0,3.69,3.69,0,0,0-.29-.28h-.42c-.15,0-.22-.1-.23-.29V3.94l-.26-.31c.08-.1.16-.21.25-.31l-.39-.43-.28.29h-.26l-.39-.44c.07-.11.16-.2.25-.32V2.14l.95-1.06h.25a6.63,6.63,0,0,1,.57-.61,7.4,7.4,0,0,1,.81,0,.52.52,0,0,0,.56.27,1.78,1.78,0,0,1,.4,0l.09,0,.4.42c0,.36,0,.71,0,1.06,0,.11,0,.2.1.25s.13,0,.19-.12l.1-.11a.18.18,0,0,1,.15.17,1.87,1.87,0,0,1,0,.58s-.06.08-.11.12a1.61,1.61,0,0,1-.38,0,.23.23,0,0,0-.24.1c0,.07,0,.13.09.21a.43.43,0,0,1,.13.38c0,.37,0,.37-.23.63Zm-.42-2.79c0-.07,0-.14-.09-.2l-.09.11c0,.06,0,.13.09.19ZM69.42,3.26c0-.17-.08-.29-.21-.29h-.7l-.3-.29h-.48L67.6,2.6l-.19-.21c-.3,0-.39,0-.4.22a.76.76,0,0,1-.06.27c-.09.16-.24.08-.36.11l-.39.44c0,.18,0,.38,0,.58s-.19.21-.28.33c0,.59,0,1.18,0,1.79l.67.75h.79l.3.29H68l.2-.21s.07-.09.1-.08c.29,0,.41-.1.36-.44L69,6l.37-.42c.1-.12,0-.29.09-.41s.21-.18.24-.34a.34.34,0,0,0,0-.27,1.86,1.86,0,0,0-.19-.22c0-.15.15-.21.22-.32s0-.19,0-.29l-.28-.33Zm17.22-2a3.62,3.62,0,0,1,.52-.65c.13-.17.14-.16.34-.17s.35,0,.58-.26a3.46,3.46,0,0,1,.79,0c.31,0,.31,0,.57.28a4.85,4.85,0,0,0,.66,0c.17,0,.29.07.3.19a.42.42,0,0,1-.13.4c-.17.13-.13.34-.14.53a.49.49,0,0,0,.15.39.43.43,0,0,0,.1.09s0,.09,0,.11a1.92,1.92,0,0,1-.19.23V3.6l-.54.65c0,.14,0,.3-.11.4s-.18-.18-.3-.25-.16,0-.26,0l-.28.29c-.12,0-.27.07-.35-.1a.47.47,0,0,1,0-.29.34.34,0,0,0-.06-.12.53.53,0,0,0-.1-.06c-.09.08-.14.23-.29.24a.5.5,0,0,0-.57-.26c-.24,0-.2,0-.34-.16l-.25-.3V3c.16-.18.16-.18,0-.55a.56.56,0,0,1,0-.12Zm2.42.08a.65.65,0,0,0,0-.14.27.27,0,0,0-.1-.11s-.12,0-.16.12,0,.09,0,.14a.18.18,0,0,0,.1.24C89,1.69,89.07,1.56,89.06,1.38Zm32,0,.26-.32-.2-.22c-.11-.11,0-.28-.1-.4a.5.5,0,0,0-.1-.11h-.8l-.29.3h-1.56l-1,1.09a1.73,1.73,0,0,1,0,.3.57.57,0,0,0-.24.61l0,.29a.63.63,0,0,1,.25.48c0,.15.15.22.23.35A.5.5,0,0,0,118,4c.12.1.21.2.3.28h.7c.08,0,.14-.07.21-.15s.34-.22.55,0l.11.12.28-.28h.52l.2-.21.19-.21c0-.15-.15-.21-.23-.33l.26-.31C121.09,2.39,121.08,1.89,121.08,1.4ZM95.52,2.71l.27-.32c0-.11,0-.2,0-.3.15-.18.15-.18.29-.62a.12.12,0,0,1,.09-.1c.17,0,.35,0,.54,0L97,1.05h1.34l.94,1c0,.5,0,1,0,1.49L99,3.91c0,.31-.06.46-.35.44,0,0-.08,0-.11.07l-.74.82H96.47L96,4.72c-.11-.1-.26,0-.37-.11s-.08-.08-.08-.11C95.53,3.9,95.53,3.31,95.52,2.71Zm2.56-.16a.43.43,0,0,0-.09.1A.39.39,0,0,0,98,3a.87.87,0,0,0,.09.11.34.34,0,0,0,.13-.24C98.24,2.77,98.15,2.55,98.08,2.55ZM128,3.61a4,4,0,0,1-.29-.3c-.39,0-.39,0-.4-.4V1.4a4.6,4.6,0,0,1,.45-.54c.12-.15.23-.29.44-.25s.2-.19.31-.29H129c.1-.11.2-.21.29-.32h1.07l.29.3h.27l.39.43V1c-.09.11-.18.21-.26.32v.29l.1.11c.19.21.19.21.15.52s-.32.34-.48.53,0,.36-.18.51-.51.56-.76.84a.32.32,0,0,1-.46-.13l-.11-.11h-.79l-.3-.31Zm1.73-2.18a.43.43,0,0,0-.05-.13.87.87,0,0,1-.08-.1.43.43,0,0,0-.14.24c0,.14.08.38.14.36a.29.29,0,0,0,.13-.22Zm-51.25.9L78.15,2c-.33,0-.37,0-.39.25s-.08.38-.42.33a.58.58,0,0,0-.58-.28c-.21,0-.21,0-.34.15l-.27.32c0,.6,0,1.2,0,1.79l.28.33v.55c.23.28.45.53.66.76h1.49A.23.23,0,0,0,78.85,6a.75.75,0,0,0,0-.15c0-.14,0-.29.06-.42s.24-.07.35-.11l.66-.73V3.08l-.28-.32V2.47L79.25,2,79,2.32ZM32,1.47c.12-.15.25-.29.38-.43h.52l.3-.32h.53l.1-.1a1.8,1.8,0,0,1,.2-.19,1,1,0,0,1,.24,0l.29-.28a3.3,3.3,0,0,1,.78,0l.41.41v.3A1.67,1.67,0,0,1,36,1.2a.63.63,0,0,1,0,.27l.25.33c0,.17,0,.32,0,.47a.67.67,0,0,1-.22.65s0,.09,0,.13c0,.23-.13.35-.24.48a3.08,3.08,0,0,1-.1.41.26.26,0,0,1-.24.08c-.09,0-.16,0-.21.13a.35.35,0,0,1-.34.17c-.27,0-.54,0-.81,0a.56.56,0,0,1-.12,0c-.25-.29-.5-.57-.77-.85L33,3.72a.29.29,0,0,1-.13-.24.31.31,0,0,1,.07-.27L33.08,3a.23.23,0,0,0-.17-.17.53.53,0,0,1-.26,0l-.09-.1c0-.16,0-.31,0-.46s-.05-.26-.22-.3C32,1.86,32,1.86,32,1.47Zm1.11.66.09.09c.09-.06.12-.13.09-.19s-.06-.07-.09-.1S33.11,2.06,33.14,2.13Zm-23,1.1.89-1c0-.06,0-.14-.09-.21h-.27a.41.41,0,0,1-.07-.52c.09-.1.18-.21.28-.31s.07-.05.12-.09h.5A.54.54,0,0,1,12,.81c.16,0,.34,0,.51,0L13,1.4h.38c.23,0,.3.08.31.34s0,.29,0,.43a.65.65,0,0,1,.25.63,8.62,8.62,0,0,1,0,.88c-.13.14-.28.25-.24.49a.25.25,0,0,1,0,.13L13.06,5H11c-.16,0-.23-.09-.24-.27V4.59c-.17-.2-.36-.41-.53-.62.06-.1.12-.15.22-.14a.22.22,0,0,0,.28-.18c-.13-.14-.25-.29-.38-.42Zm3.59-.42c0-.06,0-.13-.09-.2s-.07.06-.09.1,0,.14.09.2Zm44.06,2c.37,0,.37,0,.39-.41.22-.36.56-.6.78-1l-.1-.12c-.15-.17-.15-.17-.15-.38s0-.4-.14-.53h-.27a4.11,4.11,0,0,0-.58-.6,1.57,1.57,0,0,1-.53,0L57,1.57a.18.18,0,0,0-.11-.05.86.86,0,0,0-.71.27.18.18,0,0,1-.12,0c-.22,0-.3.17-.44.29l-.12,0c-.18,0-.29.07-.29.21a.62.62,0,0,1-.22.5.4.4,0,0,0,0,.41c.06.08.14.08.24.08s.36-.07.49.12a5.51,5.51,0,0,1-.51.64v.29l.39.45h.53l.3.3h1.07Zm-55-.53a.14.14,0,0,1,.08-.1s.12,0,.16.14a.57.57,0,0,1,0,.13h.26c.17,0,.27-.09.27-.24V4.08a.61.61,0,0,0-.25-.64c0-.2,0-.39,0-.61a.74.74,0,0,1,.16-.2c.11-.09.12-.15,0-.22a.34.34,0,0,0-.11-.05.35.35,0,0,1-.25,0C3,2.25,3,2.26,3,1.9c0-.1,0-.2,0-.29s-.13-.15-.19-.08l-.19.21A.49.49,0,0,0,2.11,2c0,.05-.06.07-.09.12H.92l-.26.31c-.14.16-.15.16-.55.33a.15.15,0,0,0-.09.1c0,.5,0,1,0,1.47L1,5.36h.22l.29.29.28-.29a4.34,4.34,0,0,0,.81,0L3,4.91a1.17,1.17,0,0,0-.06-.45C2.77,4.42,2.72,4.35,2.73,4.29ZM48.6,2.2l-.11,0c-.32-.07-.32-.07-.34-.47,0,0-.06-.08-.09-.09-.41-.17-.41-.16-.57-.33H46.15l-.27.28c-.16.18-.14.12-.14.38v.15a.43.43,0,0,1,0,.28c-.09.16-.24.08-.37.11s-.07.06-.09.1c-.11.28,0,.48.26.49s.23.06.25.26,0,.24-.16.31-.13-.15-.2-.21a.31.31,0,0,0-.36,0,.21.21,0,0,0-.09.26.65.65,0,0,1,0,.14l.37.4c.13.09.27,0,.38.13s.3.36.45.52H48c.31-.35.62-.71.94-1.05l-.38-.42a3.2,3.2,0,0,0-.53,0s-.07,0-.11-.08-.06-.07-.06-.11a2.83,2.83,0,0,1,0-.29c.13-.14.25-.29.37-.41h.41A.21.21,0,0,0,48.6,2.2Zm-38.38,1s-.08,0-.11,0A.21.21,0,0,0,10,3.4a.18.18,0,0,0,.09.1c.06,0,.12,0,.16-.15A.26.26,0,0,0,10.22,3.23Zm38.6-.77c-.11-.06-.16,0-.11.13s.09.15.15.13a.11.11,0,0,0,.08-.09A.18.18,0,0,0,48.82,2.46Z"/><path class="cls-1" d="M267.19,3.32c0-.16,0-.31,0-.46s.05-.26.22-.29c.34-.06.34-.06.3-.47l-.19-.21a.27.27,0,0,1-.06-.12.68.68,0,0,0,0-.29l-.76-.84c0-.05,0-.09,0-.14,0-.26-.09-.33-.33-.32a2,2,0,0,0-.65,0c-.12.15-.23.31-.44.27,0,0-.08,0-.11.05s-.12.17-.2.21-.17,0-.25,0-.2.19-.29.28l-.25,0-1,1.1V3.32l-.26.33.26.31c0,.1,0,.2,0,.3a.19.19,0,0,0,.1.1c.38.13.38.13.55.32h1.89a3.84,3.84,0,0,1,.28-.3h.24C266.55,4,266.87,3.66,267.19,3.32Zm-86,1.43h-1.46a.22.22,0,0,1-.12,0l-.29-.27h-.42c-.15,0-.23-.09-.23-.29,0,0,0-.09,0-.14s-.19-.21-.27-.32l.25-.31L178.26,3l-.28.29h-.27a5.22,5.22,0,0,0-.39-.43l.26-.32V2.22c.31-.35.62-.7,1-1.06h.24a5.51,5.51,0,0,1,.58-.6,4.17,4.17,0,0,1,.79,0,.55.55,0,0,0,.56.28,1.88,1.88,0,0,1,.41,0,.16.16,0,0,1,.09,0l.4.41c0,.36,0,.71,0,1.06,0,.11,0,.2.1.25s.13,0,.19-.12l.09-.11a.17.17,0,0,1,.16.17,1.68,1.68,0,0,1,0,.59s-.05.07-.1.12a2.6,2.6,0,0,1-.39,0,.22.22,0,0,0-.23.1c0,.07,0,.13.08.21a.42.42,0,0,1,.15.38c0,.37,0,.37-.25.64ZM180.76,2c0-.07,0-.14-.09-.2l-.09.1c0,.07,0,.13.09.2Zm46.33,1.4c0-.19-.08-.3-.21-.3h-.7c-.08-.09-.18-.18-.3-.29h-.48a.49.49,0,0,1-.13-.1l-.19-.21c-.3,0-.39,0-.41.22a.64.64,0,0,1,0,.28c-.09.15-.24.08-.36.11l-.39.43c0,.19,0,.39,0,.59s-.19.22-.28.34c0,.59,0,1.18,0,1.79l.67.74h.79l.3.3h.26l.2-.21s.07-.09.1-.08c.29,0,.42-.1.37-.44l.36-.43.38-.42c.1-.11,0-.29.09-.41s.21-.18.24-.34a.35.35,0,0,0-.05-.27,2.15,2.15,0,0,0-.19-.22c0-.15.15-.21.22-.32a2.71,2.71,0,0,0,0-.29,2.78,2.78,0,0,0-.27-.33Zm17.22-2a3.74,3.74,0,0,1,.53-.66c.13-.15.14-.15.33-.15.34,0,.34,0,.58-.26a2.93,2.93,0,0,1,.78,0c.32,0,.32,0,.57.28a3.75,3.75,0,0,0,.67,0c.17,0,.29.07.3.2a.41.41,0,0,1-.13.39c-.17.13-.13.34-.14.53a.46.46,0,0,0,.15.39.43.43,0,0,1,.09.1s0,.08,0,.11l-.2.22V3.69c-.18.21-.37.42-.54.64,0,.14,0,.3-.11.4s-.18-.19-.29-.25-.17,0-.27,0l-.28.29c-.12,0-.27.06-.36-.1a.66.66,0,0,1,0-.29.27.27,0,0,0-.06-.12s-.06,0-.09-.06-.15.23-.3.24a.52.52,0,0,0-.56-.27c-.25,0-.2,0-.34-.15l-.25-.3c0-.23,0-.42,0-.6.17-.18.16-.18,0-.55a.5.5,0,0,1,0-.13Zm2.42.07a.66.66,0,0,0,0-.14.32.32,0,0,0-.1-.1s-.13,0-.17.11,0,.1,0,.14a.2.2,0,0,0,.09.25C246.65,1.76,246.73,1.64,246.73,1.45Zm6.46,1.34.27-.32c0-.11,0-.2,0-.31.15-.18.15-.18.28-.61a.18.18,0,0,1,.1-.11c.17,0,.35,0,.54,0l.28-.3H256L257,2.18V3.66l-.27.33c.05.31-.06.46-.35.43,0,0-.08,0-.11.07l-.73.83h-1.36l-.48-.53c-.11-.1-.26,0-.37-.11s-.09-.06-.09-.1C253.2,4,253.2,3.39,253.19,2.79Zm2.56-.17a.33.33,0,0,0-.09.11.39.39,0,0,0,0,.39.43.43,0,0,0,.09.1.32.32,0,0,0,.13-.23C255.9,2.85,255.82,2.62,255.75,2.62Zm-19.64-.21-.29-.3c-.32,0-.36,0-.39.25s-.08.38-.43.32a.56.56,0,0,0-.56-.27c-.23,0-.23,0-.35.15l-.27.31c0,.61,0,1.21,0,1.8l.28.33v.56l.66.75h1.49a.23.23,0,0,0,.26-.24V5.92a.86.86,0,0,1,0-.42c.1-.15.24-.07.36-.11l.66-.73V3.16c-.09-.11-.19-.21-.28-.33V2.54l-.39-.43-.28.29ZM189.7,1.54l.38-.43c.17,0,.35,0,.52,0s.2-.2.3-.3h.53l.1-.1a.89.89,0,0,1,.2-.19,1.05,1.05,0,0,1,.24,0l.29-.28a3.81,3.81,0,0,1,.77,0l.42.41v.3a1.72,1.72,0,0,1,.26.36.57.57,0,0,1,0,.26c.09.13.18.23.25.33a3.76,3.76,0,0,0,0,.48.68.68,0,0,1-.23.64.15.15,0,0,0,0,.13c0,.24-.12.35-.24.48a2,2,0,0,1-.1.41.24.24,0,0,1-.24.08c-.09,0-.15.05-.22.14a.35.35,0,0,1-.34.16c-.26,0-.53,0-.8,0a.56.56,0,0,1-.12,0l-.76-.85-.28.29a.29.29,0,0,1-.13-.24.33.33,0,0,1,.06-.27c.06-.08.13-.14.19-.22a.2.2,0,0,0-.18-.16.42.42,0,0,1-.25-.05l-.09-.1V2.3c0-.19,0-.26-.22-.29C189.67,1.94,189.67,1.94,189.7,1.54Zm1.11.67.09.09c.09-.06.12-.13.08-.19s0-.07-.08-.1S190.78,2.14,190.81,2.21Zm-23.05,1.1.88-1c.06-.07,0-.14-.08-.21h-.26a.4.4,0,0,1-.09-.51c.1-.1.19-.21.29-.32l.12-.09h.5a.52.52,0,0,1,.57-.29c.18,0,.35,0,.52,0l.49.54h.38c.23,0,.31.08.31.33s0,.3,0,.45a.65.65,0,0,1,.27.63c0,.29,0,.59,0,.88-.13.13-.28.25-.24.48a.21.21,0,0,1-.05.13l-.62.71h-2c-.16,0-.23-.09-.24-.28V4.67c-.18-.21-.36-.41-.53-.62.06-.11.13-.15.22-.14a.24.24,0,0,0,.28-.19c-.13-.14-.25-.28-.38-.41Zm3.58-.42c0-.06,0-.13-.08-.2a.43.43,0,0,0-.09.1c0,.06,0,.13.09.2Zm44.07,2c.37,0,.37,0,.39-.41.22-.35.57-.59.78-1l-.1-.12c-.15-.17-.15-.17-.15-.38s0-.4-.14-.54h-.27a4.71,4.71,0,0,0-.58-.6,1.58,1.58,0,0,1-.53,0,1.29,1.29,0,0,0-.19-.21.23.23,0,0,0-.12-.06.85.85,0,0,0-.7.27.18.18,0,0,1-.12,0c-.22,0-.3.17-.43.29h-.13c-.18,0-.29.08-.28.22a.67.67,0,0,1-.24.5.43.43,0,0,0,0,.41.26.26,0,0,0,.24.09c.16,0,.35-.09.49.11a5.3,5.3,0,0,1-.51.64v.3c.13.15.26.28.4.43h.52c.1.12.19.21.3.32h1.06Zm-55-.52a.11.11,0,0,1,.08-.09c.05,0,.11,0,.15.13a.29.29,0,0,1,0,.13s-.09,0-.06,0h.33a.24.24,0,0,0,.26-.24.65.65,0,0,0,0-.14.64.64,0,0,0-.25-.65c0-.18,0-.38,0-.6a1.3,1.3,0,0,1,.15-.2c.12-.09.13-.15,0-.22a.34.34,0,0,0-.11-.05.35.35,0,0,1-.25,0c-.09-.06-.09-.05-.1-.41V1.7c-.06-.13-.13-.16-.19-.09l-.2.21a.48.48,0,0,0-.45.21.87.87,0,0,1-.09.11h-1.1l-.27.32c-.14.17-.14.16-.54.33a.13.13,0,0,0-.09.1c0,.5,0,1,0,1.46l1,1.09h.22l.29.29.28-.29a7.24,7.24,0,0,0,.81,0l.38-.43a1.17,1.17,0,0,0-.06-.45C160.43,4.5,160.38,4.43,160.4,4.37Zm45.88-2.09-.12,0c-.32-.07-.32-.07-.34-.45a.36.36,0,0,0-.1-.11c-.4-.16-.4-.15-.56-.32h-1.34c-.08.1-.18.19-.27.3s-.14.11-.14.38a.75.75,0,0,0,0,.15.44.44,0,0,1,0,.28c-.09.16-.23.07-.36.1s-.07.07-.08.11c-.12.28,0,.47.25.48s.23.06.25.27,0,.24-.17.3l-.19-.21a.31.31,0,0,0-.36,0,.24.24,0,0,0-.1.26.34.34,0,0,1,0,.14l.36.41c.14.07.28,0,.39.13l.44.51h1.91l.94-1.05c-.13-.15-.26-.28-.38-.43a2.37,2.37,0,0,0-.53,0,.2.2,0,0,1-.1-.08s-.07-.07-.07-.11a2.83,2.83,0,0,1,0-.29l.37-.42h.41A.21.21,0,0,0,206.28,2.28Zm-38.38,1s-.09,0-.12,0a.18.18,0,0,0-.12.17.16.16,0,0,0,.08.1c.06,0,.12-.05.15-.15S167.9,3.35,167.9,3.31Zm38.59-.77c-.12-.06-.17,0-.12.13s.1.15.16.13.08,0,.09-.08A.21.21,0,0,0,206.49,2.54ZM159,1.24s-.09,0-.12,0a.18.18,0,0,0-.12.17s0,.08.08.09.12,0,.16-.14A.56.56,0,0,0,159,1.24Zm0-.13c0,.13,0,.19.12.13a.18.18,0,0,0,.12-.17S159.2,1,159.17,1,159.05,1,159,1.11Z"/></g></g></svg>