<?xml version="1.0" encoding="utf-8"?>
<!-- Generator: Adobe Illustrator 25.4.1, SVG Export Plug-In . SVG Version: 6.00 Build 0)  -->
<svg version="1.1" id="レイヤー_1" xmlns="http://www.w3.org/2000/svg" xmlns:xlink="http://www.w3.org/1999/xlink" x="0px"
	 y="0px" viewBox="0 0 598.9 362.8" style="enable-background:new 0 0 598.9 362.8;" xml:space="preserve">
<style type="text/css">
	.st0{fill:#7B001E;}
	.st1{fill:#651815;}
	.st2{fill:#A00000;}
	.st3{fill:none;stroke:#651815;stroke-miterlimit:10;}
</style>
<g id="レイヤー_2_00000088841236767288490850000005517461222163764922_">
	<g id="文字_写真">
		<path class="st0" d="M357.7,240.9c3.2,3.2,4.8,7.8,4.8,13.7c-0.1,3.6-0.9,7.1-2.2,10.4c-1.5,3.2-3.7,6.1-6.3,8.5l-10,9.6
			c-1.5,1.5-5.6,5.9-12.2,13.4H350c5.2,0,8.8-4.3,10.8-13h1.5l-1.9,21.9h-36v-4.1c4.2-5.2,10.5-12.6,18.9-22.3
			c2.9-3.6,5.4-7.4,7.4-11.5c1.2-3,1.9-7.3,1.9-13c0-5.2-1.2-9-3.7-11.5c-2-2-4.6-3.1-7.4-3c-3.2,0-6.3,1.3-8.5,3.7
			c-3.2,3.1-4.9,7.4-4.8,11.9c0.9-1.6,2.6-2.5,4.5-2.6c1.4,0,2.7,0.5,3.7,1.5c2,2.4,2,5.8,0,8.2c-1.1,1-2.6,1.6-4.1,1.5
			c-1.9,0.1-3.7-0.8-4.8-2.2c-1.4-1.6-2.2-3.8-2.2-5.9c0-6.2,2-11.3,5.9-15.2c3.3-3.4,7.9-5.3,12.6-5.2
			C349.6,235.7,354.3,237.4,357.7,240.9z"/>
		<path class="st0" d="M382.2,293.6c1.6,1.7,2.4,4,2.2,6.3c0,5.2-2.2,10-6.7,14.5c-1.7,1.6-3.6,2.9-5.6,4.1l-1.5-2.6
			c4.2-2.2,7.3-6.1,8.5-10.8c-1,0.2-2,0.4-3,0.4c-3.5,0.2-6.5-2.5-6.7-6c0-0.2,0-0.5,0-0.7c-0.1-2.1,0.7-4.1,2.2-5.6
			c1.4-1.3,3.3-2,5.2-1.9C379,291.4,380.9,292.2,382.2,293.6z"/>
		<path class="st0" d="M408.2,305.5c-3,0-4.5-2.5-4.5-7.4c0-3.9,0.3-7.7,1.1-11.5c0.8-4,2.1-7.8,3.7-11.5c4.1-10.2,8.7-20.3,13.7-30
			h-21.5c-3.5,0-5.9,4.6-7.4,13.7h-1.9l2.2-23h35.6v3.3c-7.7,12.6-12.9,24.9-15.6,36.7c-1,3.5-1.5,7.1-1.5,10.8
			c0,2.7,0.2,6.4,0.7,11.1C413.5,302.9,411.9,305.5,408.2,305.5z"/>
		<path class="st0" d="M460.2,235.7v59c0,5.4,2.1,8.2,6.3,8.2h3v2.6h-28.2v-2.6h4.1c4.2,0,6.3-2.7,6.3-8.2v-42.7
			c0-5.4-2.2-8.2-6.7-8.2h-3.7v-2.6h5.2c5.2,0,8.9-1.9,11.1-5.6H460.2z"/>
		<path class="st0" d="M511.4,240.5c5.9,5.9,8.9,15.7,8.9,29.3c0,14.6-3,24.9-8.9,30.8c-3.2,3.2-6.5,4.8-10,4.8
			c-3.5,0-6.8-1.6-10-4.8c-6.4-6.4-9.6-16.7-9.6-30.8c0-13.1,3.2-22.9,9.6-29.3c3.2-3.2,6.6-4.8,10-4.8
			C504.8,235.7,508.1,237.3,511.4,240.5z M496.9,241.3c-4.2,4.2-6.3,13.7-6.3,28.6c0,15.8,2.1,25.9,6.3,30.1c1.9,2.5,5.4,3,7.8,1.1
			c0.4-0.3,0.8-0.7,1.1-1.1c3.7-3.7,5.6-13.7,5.6-30.1c0-14.8-1.9-24.4-5.6-28.6c-1.1-1.4-2.7-2.2-4.5-2.2
			C499.6,239.2,498,240,496.9,241.3z"/>
		<path class="st0" d="M567,272.1c1.1,1.5,0.8,2.3-1.1,2.5v33.4c0,0.5-0.6,1.1-1.7,1.9c-1.1,0.8-2.4,1.3-3.8,1.3
			c-0.3,0-0.4-0.2-0.4-0.6v-1.9c0-0.2-0.4-0.6-1.3-1L554,306c-0.5-0.4-0.5-0.6,0-0.6h6c1,0,1.5-0.4,1.5-1.1v-14.4h-28v20.3l-1,0.6
			c-1.9,0.8-3,0.8-3.4,0v-42.3l4.7,2.8h26.9l2.5-3L567,272.1z M533.5,288.8h11.8v-16.3h-11.7L533.5,288.8z M549.6,288.8h12v-16.3
			h-11.9L549.6,288.8z"/>
		<path d="M493.8,362.3l-0.6,0.5c-4.7-4.7-6.9-9.8-6.9-16c-0.1-6.1,2.4-11.9,6.9-16.1l0.6,0.5c-4.1,5.9-5.2,9.9-5.2,15.5
			S489.8,356.4,493.8,362.3z"/>
		<path d="M503,343.7c6.1,2.2,4.6,6.1,2.6,4.7c-0.6-1.5-1.5-3-2.6-4.1v13.6c-0.4,0.5-1.1,0.7-1.7,0.7H501v-13.4
			c-1.3,2.9-3.1,5.4-5.4,7.6l-0.4-0.4c2.6-3.6,4.3-7.7,5.2-12h-4.2l-0.2-0.9h5v-5.3c-1.6,0.4-3.3,0.8-5,1l-0.2-0.5
			c3.2-1,6.3-2.4,9.1-4.2l2.6,2c-0.3,0.3-0.8,0.3-1.5,0.1c-0.8,0.3-1.9,0.7-3,1v5.8h1.2l1.3-1.7c0,0,1.5,1.3,2.5,2.2
			c-0.1,0.3-0.4,0.5-0.8,0.5H503V343.7z M523.9,356c0.6,0.2,0.7,0.5,0.7,0.9c0,0.8-0.8,1.2-4.2,1.2h-2.1c-1.9,0-2.3-0.5-2.3-1.9
			v-10.6h-2.3c-0.6,6.6-2.6,10.4-9,13l-0.2-0.5c5.3-3,6.7-6.8,7-12.5h-1.4v0.9c0,0.2-0.8,0.6-1.6,0.6h-0.3v-11.2l2.1,1h5.6
			c1.2-2.1,2.2-4.3,3-6.5l3.1,1.1c-0.1,0.3-0.5,0.6-1.2,0.5c-1.2,1.8-2.6,3.5-4.1,5h3.2l0,0h0.1l1-1.1l2,1.8
			c-0.3,0.3-0.7,0.5-1.2,0.5v8.3c-0.4,0.4-1,0.6-1.6,0.6H520v-1.3h-2v10.1c0,0.4,0.1,0.6,0.8,0.6h1.6c0.8,0,1.3,0,1.6,0
			c0.2,0,0.4-0.2,0.5-0.4c0.2-0.5,0.6-2.5,0.9-4.4h0.4L523.9,356z M509.4,330.5c6.3,2.9,4.5,7.1,2.4,5.5c-0.5-1.9-1.5-3.7-2.8-5.3
			L509.4,330.5z M510.3,344.6h9.7v-7h-9.7L510.3,344.6z"/>
		<path d="M533.6,352.9c2.1,2.5,4.5,2.9,9.8,2.9c3.6,0,8.5,0,12.2-0.1v0.4c-0.9,0.1-1.5,0.8-1.5,1.7h-10.7c-5.6,0-8.1-0.7-10.3-4.3
			c-1.4,1.5-3,2.9-4.6,4.2c0.1,0.3-0.1,0.7-0.4,0.8l-1.4-2.6c1.2-0.5,3.1-1.5,4.9-2.5v-9.1h-4.6l-0.2-0.9h4.3l1.2-1.6l2.7,2.2
			c-0.4,0.3-0.9,0.5-1.5,0.6V352.9z M528.4,331.1c7.8,2.4,6.3,7.4,3.8,5.9c-0.9-2.2-2.3-4.1-4.2-5.6L528.4,331.1z M534,352.8
			c5-3.6,8.8-9.7,10.2-17.3c-0.1-0.7-0.2-1.5-0.3-2.3h-6.2l-0.3-0.9h5.7l1.1-1.6l2.9,2.1c-0.7,0.5-1.5,0.8-2.3,0.7
			c1.1,7.4,4.1,14.2,10.8,17.5l-0.1,0.3c-0.9,0.2-1.6,0.8-1.9,1.7c-4.4-2.9-6.8-7.2-8.3-12.7c-2.1,5.4-5.9,9.9-10.8,12.8L534,352.8z
			"/>
		<path d="M558.4,329.9c4.2,2.7,8.3,7,8.3,14.5s-4.2,11.8-8.3,14.5l-0.5-0.6c7.7-5.9,9.1-16.9,3.2-24.6c-0.9-1.2-2-2.2-3.2-3.2
			L558.4,329.9z"/>
		<path d="M334.9,332.6l0.9,0.9l-10.2,10.2l10.2,10.3l-0.9,0.9l-10.2-10.2l-10.3,10.2l-0.9-0.9l10.3-10.3l-10.2-10.2l0.9-0.9
			l10.2,10.2L334.9,332.6z M315.8,346.1c-1.3,0-2.3-1-2.3-2.3c0-1.3,1-2.3,2.3-2.3c1.3,0,2.3,1,2.3,2.3c0,0,0,0,0,0
			C318.1,345,317.1,346.1,315.8,346.1L315.8,346.1z M322.3,334.9c0-1.3,1-2.3,2.3-2.3c1.3,0,2.3,1,2.3,2.3c0,1.3-1,2.3-2.3,2.3
			c0,0,0,0,0,0C323.4,337.2,322.3,336.2,322.3,334.9L322.3,334.9z M327,352.6c0,1.3-1,2.3-2.3,2.3c-1.3,0-2.3-1-2.3-2.3
			c0-1.3,1-2.3,2.3-2.3c0,0,0,0,0,0C326,350.3,327,351.3,327,352.6z M333.5,341.4c1.3,0,2.3,1,2.3,2.3c0,1.3-1,2.3-2.3,2.3
			c-1.3,0-2.3-1-2.3-2.3c0,0,0,0,0,0C331.2,342.5,332.2,341.4,333.5,341.4L333.5,341.4z"/>
		<path d="M348.3,351.6c1.5,2.3,4.1,3.3,7.7,3.5c3.4,0.1,10.3,0,13.9-0.2c-0.3,0.8-0.6,1.5-0.7,2.4c-3.4,0.1-9.7,0.2-13.1,0.1
			c-4-0.1-6.8-1.3-8.8-3.7c-1.5,1.3-3,2.6-4.7,4l-1.2-2.3c1.6-1.1,3.2-2.3,4.7-3.5v-7.9h-4.3v-2.2h6.6L348.3,351.6z M347.3,336.6
			c-1.5-1.9-3.3-3.6-5.3-4.9l1.7-1.4c2,1.3,3.9,2.9,5.4,4.8L347.3,336.6z M361.4,343.9c1.2,3.8,4.2,6.7,8.1,7.7
			c-0.6,0.6-1.1,1.2-1.5,1.9c-3.8-1.2-6.8-4.2-8.2-8c-1,2.8-3.2,5.6-8.1,7.9c-0.4-0.6-1-1.2-1.5-1.7c5.4-2.2,7.2-5.1,7.7-7.8h-8
			v-2.1h8.2c0-0.3,0-0.6,0-0.9v-3.4H351v-2h3.9c-0.6-1.8-1.5-3.5-2.7-5l2-0.8c1.2,1.5,2.2,3.1,2.8,4.9l-1.9,0.8h13.4v2h-7.9v3.5
			c0,0.3,0,0.6,0,0.8h8.9v2.1L361.4,343.9z M366.8,330.3c-1,1.8-2.1,3.5-3.4,5.1l-1.9-0.7c1.1-1.6,2.1-3.4,2.9-5.2L366.8,330.3z"/>
		<path d="M379.8,342.5c0.9,1,4,5.1,4.7,6.1l-1.5,1.8c-0.6-1.1-2-3.5-3.1-5.3v12.7h-2.1v-12.7c-1,3.1-2.5,6.1-4.3,8.8
			c-0.3-0.8-0.7-1.5-1.2-2.2c2.1-2.9,3.8-6.2,4.8-9.6h-4.4v-2.2h5v-10.2h2.1v10.2h5.1v2.2h-5.1L379.8,342.5z M374.6,338.8
			c-0.3-2.3-0.8-4.6-1.6-6.8l1.7-0.4c0.9,2.2,1.5,4.5,1.8,6.8L374.6,338.8z M384.9,331.9c-0.7,2.4-1.6,4.7-2.5,7l-1.5-0.5
			c0.8-2.3,1.5-4.6,2-7L384.9,331.9z M397,349.2v8.7h-2.2v-8.3l-9.6,1.7l-0.4-2.1l10-1.8v-17.8h2.1V347l3.7-0.6l0.3,2.1L397,349.2z
			 M390.7,344.8c-1.5-1.5-3.3-2.7-5.1-3.7l1.1-1.6c1.9,0.9,3.6,2.1,5.2,3.5L390.7,344.8z M392,337.3c-1.5-1.5-3.1-2.9-4.9-4l1.2-1.5
			c1.8,1,3.4,2.3,4.9,3.8L392,337.3z"/>
		<path d="M417.6,344.4c0,0,0,0.7,0,1c-0.4,7.7-0.7,10.5-1.5,11.5c-0.5,0.6-1.2,0.9-2,0.9c-1.3,0.1-2.5,0.1-3.8,0
			c-0.1-0.7-0.3-1.4-0.6-2c1.2,0.1,2.4,0.2,3.5,0.2c0.4,0,0.7-0.1,1-0.3c0.6-0.6,0.9-3,1.1-9.1h-5.1c-0.7,4.5-2.1,8.8-5.4,11.5
			c-0.4-0.6-1-1.2-1.6-1.6c4.2-3.4,5-9.7,5.3-15.3h-3.4V331h12.2v10.1h-6.5c-0.1,1.1-0.1,2.2-0.3,3.3L417.6,344.4z M407.3,339h7.9
			v-6h-7.9V339z M422.8,350.3h-2.2v-17h2.2V350.3z M430.4,330.2v24.6c0,1.5-0.4,2.3-1.4,2.7s-2.8,0.4-5.6,0.4
			c-0.2-0.8-0.5-1.6-0.8-2.3c2.2,0.1,4.1,0.1,4.7,0s0.8-0.2,0.8-0.8v-24.6L430.4,330.2z"/>
		<path d="M440.9,351.6c1.5,2.3,4.3,3.3,8,3.5c3.4,0.1,10.3,0,14-0.2c-0.3,0.8-0.6,1.5-0.8,2.4c-3.4,0.1-9.8,0.2-13.2,0.1
			c-4.1-0.1-7-1.2-9-3.7c-1.4,1.3-2.9,2.6-4.4,4l-1.2-2.3c1.5-1.1,3-2.3,4.4-3.6v-7.9h-3.9v-2.2h6.2L440.9,351.6z M440,336.8
			c-1.4-2-3.1-3.7-5-5.1l1.7-1.4c1.9,1.4,3.7,3.1,5,5L440,336.8z M453.2,329.7c2.6,3.2,5.9,5.8,9.7,7.6c-0.5,0.6-1,1.3-1.4,2.1
			c-3.6-1.9-6.7-4.5-9.3-7.6c-2.5,3.2-5.6,5.8-9.2,7.7c-0.3-0.7-0.7-1.3-1.2-1.9c3.7-1.8,6.8-4.5,9.2-7.9L453.2,329.7z M448.4,346
			c-1.1,2.3-2.6,4.4-4.5,6.2c-0.6-0.4-1.2-0.8-1.8-1.2c1.8-1.5,3.2-3.4,4.2-5.5L448.4,346z M462,344.2h-8.6v7.1c0,1.1-0.2,1.7-1,2
			c-1.3,0.3-2.7,0.4-4,0.3c-0.1-0.7-0.3-1.4-0.6-2c1.3,0,2.5,0,2.9,0s0.5-0.1,0.5-0.4v-7h-8.1v-2h8.1v-2.8h-4.5v-1.9h11.4v1.9h-4.6
			v2.8h8.5V344.2z M460,352.2c-1.1-2.1-2.6-4.1-4.2-5.9l1.8-0.9c1.7,1.7,3.2,3.7,4.3,5.8L460,352.2z"/>
		<path class="st1" d="M22.1,118.9c0.8-3,1.5-6,1.8-7.8l6.9,4.3c-0.2,0.3-0.6,0.5-1,0.5c-0.3,0-0.5-0.1-0.8-0.2
			c-2.2,2.6-4.6,5-7.1,7.2c-0.1,3.8-0.4,7.6-1,11.4c5.6,2.3,7.5,5.3,7.5,7.7c0,2.2-1.7,4.1-3.9,4.2c-1.2,0-2.4-0.7-3.1-1.7
			c0.1-2.6-0.2-5.1-1.1-7.6c-1.5,6.8-4.6,12.1-10.5,16.2l-0.6-0.8c4.6-7,5.8-15.7,6-27.4h-0.1c-0.4,2.4-2.1,4.1-3.8,4.1
			c-1.4,0-2.5-1.2-2.5-2.6c0,0,0-0.1,0-0.1c0.1-1.2,0.6-2.3,1.5-3.1c0.9-1.1,1.7-3.9,1.7-7.4c0-0.8,0-1.7-0.1-2.5l0.7-0.1
			c1.3,2.6,2.1,5.4,2.6,8.3h0.1c0-5.8-0.1-12.4-0.1-19.8l9.1,0.7c0,0.8-0.5,1.2-2.2,1.5C22.2,109.4,22.2,114.4,22.1,118.9
			L22.1,118.9z M61.2,132.2c-0.4,0.6-1.1,0.8-2.5,0.8h-6.8c-0.1,0.4-0.5,0.7-1.7,0.9v11.7c0,1.2,0,1.2,0.9,1.2h2.6
			c0.9,0,1.2-0.1,1.7-0.7c1-1.9,1.8-3.8,2.5-5.7h0.3v6.1c2,1,2.2,1.3,2.2,2.2c0,2.5-1.7,3.9-6.6,3.9h-3.7c-6,0-7.1-1.4-7.1-7.1V133
			h-2.8l0,0l1.6,0.1c-0.1,0.8-0.6,1.2-2.2,1.2c-1.1,8.5-5.2,15.6-18.8,18.9l-0.3-0.7C30,148.4,32,141,32.1,133h-6.3l-0.2-0.9h5.8
			V124H26l-0.2-0.9h5.6v-7.8l7.3,0.7v-6H28.1l-0.2-0.9h10.8v-7.4l8.8,0.7c0,0.6-0.4,1-1.6,1.1v5.5h2.9l3.4-4.7l6.1,4.8
			c-0.4,0.6-1.1,0.8-2.6,0.8h-9.8v6.2c0,0.1-1.5,1.6-7.2,1.6v-0.7c-0.2,0.1-0.4,0.1-0.5,0.1v5.8h8.4v-7.8l8.5,0.8
			c0,0.6-0.5,1-1.8,1.1v5.8l0,0l2.6-4.3l4.7,4.4c-0.4,0.6-1.1,0.8-2.5,0.8h-4.8v8.1h0.1l2.7-4.4L61.2,132.2z M38.2,132.1h8.4V124
			h-8.4L38.2,132.1z"/>
		<path class="st1" d="M97.9,116.2c0.8,0.5,1.6,0.7,2.5,0.6c0.3,0,1.9-0.2,2.3-0.2c1.4,0,3.2,1.3,3.2,2.7c0,3.1-6.7,4.7-14.8,6.3
			c1.2,2.4,3.2,4.3,5.7,5.3c1.9,0.5,3.1,2.2,3.1,4.1c0,2-1,2.9-2.9,2.9c-2.8,0-4.3-2-6.2-2.7c-2.1-0.7-4.2-1.1-6.4-1.1
			c-4,0-7.3,1.8-7.3,5.2c0,2.5,3,4.3,9.3,4.3c0.5,0,1.1-0.1,1.6-0.1c2.2-0.1,4.3-0.3,6.4-0.9c2.6,0,4.8,2.8,4.8,4.3
			c0,2.5-4.1,3.1-11.3,3.1c-11,0-17.2-3.2-17.2-9c0-5.6,6.6-9.5,14.6-9.5c1.3,0,2.6,0.1,3.8,0.4l-0.1-0.2c-1-0.6-2.1-2.9-3.3-5.3
			c-4.2,0.9-8.4,1.4-12.6,1.6c-5.3,0-6.8-1.7-8.3-6.1l0.8-0.4c2.1,2,3.8,2.2,6.4,2.2h1.2c3.8-0.2,7.5-0.7,11.2-1.5
			c-0.5-1.5-1.2-3.6-1.4-4.7c-2.5,0.5-5.1,0.8-7.6,0.9c-3.3,0-6-1.5-7.4-5.4l0.4-0.4c1.6,1.1,3.5,1.6,5.4,1.5c2.7-0.1,5.4-0.4,8-0.9
			c-0.2-0.8-0.7-3-0.9-3.7c-0.3-1.4-1.6-2.3-3-2.1c-0.7,0-1.4,0.1-2,0.4l-0.3-0.2c0.3-2.2,2.7-4,6.4-4c3.5,0,4.9,1.5,4.9,2.6
			c0,0.4-0.1,2.2-0.1,2.7c0.1,1,0.2,2,0.4,3c2-0.5,4.5-1.3,5.2-3.7c3.9,0,7,0.8,7,2.8c0,1.6-1.9,2.5-3.5,3.2c-2.5,1-5.1,1.9-7.7,2.5
			c0.3,1.5,0.7,3,1.2,4.5c2.2-0.5,8.3-2.1,8.3-4.3c0-0.1,0-0.3-0.1-0.4L97.9,116.2z"/>
		<path class="st1" d="M161.6,133.9c-0.4,0.6-1.1,0.8-2.6,0.8h-18.1c4.6,4.9,13.5,8,21.4,9l-0.1,0.6c-3,0.8-5.2,3.4-6,7.4
			c-7.8-3.2-12.7-8.3-15.9-16v15.7c0,0.1-1.5,1.9-8.3,1.9v-12.4c-5.3,4.9-12.6,8.6-21,11.1l-0.4-0.7c6.7-4,12.2-9.7,15.8-16.6h-15.2
			l-0.3-0.9h21v-7h-8.4v0.9c0,0.2-1.2,2.8-7.5,2.8v-19.5l8.1,3h3v-6.8h-15.4l-0.3-0.9h39.3l3.9-5l7.2,5.1c-0.4,0.6-1.1,0.8-2.6,0.8
			h-13.6v6.8h3.2l2.9-3.7l7.6,5.3c-0.6,0.7-1.3,1.1-2.2,1.2v10.9c0,0.1-2.2,1.6-7.6,1.6v-2.4h-11.7v0.1l4.5,0.3
			c-0.1,0.8-0.5,1.2-2,1.5v5.1h10.3l3.9-5L161.6,133.9z M123.6,114.8V126h3.5v-11.2L123.6,114.8z M134.4,107.2v6.8h3.9v-6.8
			L134.4,107.2z M134.4,126h3.9v-11.1h-3.9V126z M149.4,114.8h-3.8V126h3.8V114.8z"/>
		<path class="st1" d="M199.4,116.2c0.8,0.5,1.6,0.7,2.5,0.6c0.3,0,1.9-0.2,2.2-0.2c1.4,0,3.2,1.3,3.2,2.7c0,3.1-6.7,4.7-14.8,6.3
			c1.2,2.4,3.2,4.3,5.7,5.3c1.9,0.5,3.1,2.2,3.1,4.1c0,2-1,2.9-2.9,2.9c-2.9,0-4.3-2-6.2-2.7c-2.1-0.7-4.2-1.1-6.4-1.1
			c-4,0-7.3,1.8-7.3,5.2c0,2.5,3,4.3,9.3,4.3c0.5,0,1.1-0.1,1.6-0.1c2.2-0.1,4.3-0.3,6.4-0.9c2.6,0,4.8,2.8,4.8,4.3
			c0,2.5-4.1,3.1-11.3,3.1c-11,0-17.2-3.2-17.2-9c0-5.6,6.6-9.5,14.6-9.5c1.3,0,2.6,0.1,3.8,0.4l-0.1-0.2c-1-0.6-2.1-2.9-3.3-5.3
			c-4.2,0.9-8.4,1.4-12.6,1.6c-5.3,0-6.8-1.7-8.3-6.1l0.8-0.4c2.1,2,3.8,2.2,6.4,2.2h1.2c3.8-0.2,7.5-0.7,11.2-1.5
			c-0.5-1.5-1.2-3.6-1.4-4.7c-2.5,0.5-5.1,0.8-7.6,0.9c-3.3,0-6-1.5-7.4-5.4l0.4-0.4c1.6,1.1,3.5,1.6,5.4,1.5c2.7-0.1,5.4-0.4,8-0.9
			c-0.2-0.8-0.7-3-0.9-3.7c-0.3-1.4-1.6-2.3-3-2.1c-0.7,0-1.4,0.1-2,0.4l-0.3-0.2c0.3-2.2,2.7-4,6.4-4c3.5,0,4.9,1.5,4.9,2.6
			c0,0.4-0.1,2.2-0.1,2.7c0.1,1,0.2,2,0.4,3c2-0.5,4.5-1.3,5.2-3.7c3.9,0,7,0.8,7,2.8c0,1.6-1.9,2.5-3.5,3.2c-2.5,1-5.1,1.8-7.8,2.4
			c0.3,1.5,0.7,3,1.2,4.5c2.2-0.5,8.3-2.1,8.3-4.3c0-0.1,0-0.3-0.1-0.4L199.4,116.2z"/>
		<path class="st1" d="M223.9,132.4c3.2-3.4,7.1-6.2,12.4-6.2c4.9,0,7.2,4.1,7.2,8.1c0,1.3-0.1,3.8-0.1,5c0,3,1.5,3.8,4.7,3.8
			c5.4,0,9.5-4,12.6-11.6l0.7,0.2c-1.9,11.2-6.9,18.3-15.6,18.3c-6.3,0-9.4-3.6-9.4-8.3c0-1.4,0.2-4.8,0.2-6.2
			c0-4.6-0.4-6.6-3.1-6.6c-3.7,0-7.9,4.4-9.9,9.6c-0.9,2.2-1.6,4.6-2,6.9c-0.5,3-2.1,4.3-3.9,4.3s-4-1-4-3.5c0-2.2,0.5-4.4,1.4-6.4
			c1.6-3.6,3.4-7.5,5.5-11.7c5.4-10.4,8.1-15.5,8.1-17.8c0.1-0.7-0.2-1.4-0.8-1.9c-0.9-0.6-2.1-0.8-3.2-0.7l-0.2-0.2
			c1-1.6,2.7-2.5,4.6-2.5c4,0.1,8.2,2,8.2,5.2c0,2.2-2,3.5-3.3,5.2c-4,5.3-7.3,10.9-10,16.9L223.9,132.4z"/>
		<path class="st1" d="M288.5,116c0.6-1,2.1-1.5,4-1.5c3.5,0,7.4,4.5,7.4,7c0,3.1-2.7,3.1-5.5,3.6c-10.3,1.8-23.4,6.8-23.4,13.5
			c0,4.1,4.8,4.6,10.9,4.6c3.9,0,9.7-0.7,11.4-2.1c4.1,0.6,7.5,2.1,7.5,4.6c0,3-3.6,4.1-18.5,4.1c-7.5,0-16-2-16-10.6
			c0-5.8,5.9-10.1,10.6-13c-3.8-1.2-3.8-6-3.8-14.7c0-1.5-0.2-3-1.2-3.5c-0.7-0.4-1.4-0.6-2.2-0.6c-0.3,0-0.5,0-0.8,0.1l-0.2-0.3
			c0.7-2,2.8-2.8,4.7-2.8c4.5,0.1,7.7,3,7.7,5.7c-0.1,1.1-0.3,2.2-0.7,3.3c-0.4,1.6-0.6,3.3-0.5,5c0,0.8,0,1.6,0,2.2
			c0.1,1.5,0.7,3,1.8,3.1c1.8-0.9,5-2.5,6.8-3.3c1.6-0.7,2.7-1.4,2.7-2.5c-0.2-1.2-1.4-2-2.6-1.8L288.5,116z"/>
		<path class="st1" d="M317.9,132.4c3.2-3.4,7.1-6.2,12.4-6.2c4.9,0,7.2,4.1,7.2,8.1c0,1.3-0.1,3.8-0.1,5c0,3,1.5,3.8,4.7,3.8
			c5.4,0,9.5-4,12.6-11.6l0.7,0.2c-1.9,11.2-6.9,18.3-15.6,18.3c-6.3,0-9.5-3.6-9.5-8.3c0-1.4,0.2-4.8,0.2-6.2
			c0-4.6-0.4-6.6-3.1-6.6c-3.7,0-7.9,4.4-9.9,9.6c-0.9,2.2-1.6,4.6-2,6.9c-0.5,3-2.1,4.3-3.9,4.3s-4-1-4-3.5c0-2.2,0.5-4.4,1.4-6.4
			c1.6-3.6,3.4-7.5,5.5-11.7c5.4-10.4,8-15.5,8-17.8c0.1-0.7-0.2-1.4-0.8-1.9c-0.9-0.6-2.1-0.8-3.2-0.7l-0.2-0.2
			c1-1.6,2.7-2.5,4.6-2.5c4,0.1,8.2,2,8.2,5.2c0,2.2-2,3.5-3.3,5.2c-4,5.3-7.3,10.9-10,16.9L317.9,132.4z"/>
		<path class="st1" d="M381.7,141.3h-10v-1.4l10.7-17.3h4.6v16.6h3.1l-0.3,2.1H387v2.2c0,2.5,0.2,3,2.5,3v1.7h-10.6v-1.7
			c2.7,0,2.8-0.5,2.8-3V141.3z M381.6,127.1c-0.4,0.6-0.9,1.9-1.8,3.2l-5.3,8.9h7.2V130c0-0.9,0-2,0.1-2.9L381.6,127.1z"/>
		<path class="st1" d="M420.5,119.1l4.7,3.5c-0.4,0.4-0.8,0.7-1.4,0.7v26.1c0,0.1-1.2,1.5-4.9,1.5v-2.3h-10.8v0.9
			c0,0.2-0.6,1.9-4.5,1.9v-30.2h-0.2c-0.8,2.2-1.7,4.4-2.9,6.4l1.4,0.5c-0.1,0.3-0.4,0.6-1.1,0.7V150c-0.1,0.3-2,1.4-3.9,1.4h-0.9
			v-17c-1,1.3-2.2,2.4-3.4,3.5l-0.4-0.2c2.3-4.4,4.7-12.1,6-19.1l5.3,1.5v-0.5l4.7,2h10.1L420.5,119.1z M408.2,148H419v-11.6
			c-0.3,0.2-0.7,0.3-1.1,0.4v7.8c-0.8,0.6-1.8,0.9-2.7,0.9h-0.6v-2.1h-2v1.7c0,0-0.5,1.2-3.3,1.2v-12.6l2.4,1v-4.9h-3.2l-0.2-0.6
			h3.3v-5.8l5,0.5c0,0.4-0.3,0.7-1.3,0.8v4.6l0,0l1.5-2.4l2,1.7v-6.4h-10.7V148z M412.6,135.6v7.1h2v-7.1H412.6z M415.5,134.9
			l1.1-1.4l2.5,2.6v-6.3c-0.2,0-0.4,0-0.6,0h-2.9V134.9z"/>
		<path class="st1" d="M50.3,198.6c-0.3,0.5-0.9,0.6-2.1,0.6H33.5c3.7,4,11,6.5,17.4,7.4l-0.1,0.5c-2.4,0.7-4.2,2.8-4.9,6
			c-6-2.3-10.7-7-13-13.1v12.8c0,0.1-1.2,1.6-6.7,1.6v-10.1c-4.3,4-10.2,7-17.1,9l-0.3-0.6c5.4-3.3,9.9-7.9,12.9-13.5H9.4l-0.2-0.7
			h17.1v-5.7h-6.9v0.7c0,0.2-1,2.2-6.1,2.2v-15.9l6.6,2.5h2.4v-5.5H9.8l-0.2-0.7h32l3.2-4.1l5.9,4.2c-0.3,0.5-0.9,0.6-2.1,0.6H37.4
			v5.5H40l2.3-3l6.2,4.4c-0.5,0.5-1.1,0.9-1.8,1v8.9c0,0.1-1.8,1.3-6.2,1.3v-1.9H31l0,0l3.7,0.3c-0.1,0.6-0.4,1-1.6,1.2v4.2h8.4
			l3.1-4L50.3,198.6z M19.5,183v9.1h2.8V183H19.5z M28.3,176.8v5.5h3.1v-5.5H28.3z M28.3,192.1h3.1V183h-3.1L28.3,192.1z M40.5,183
			h-3.1v9.1h3.1V183z"/>
		<path class="st1" d="M81.1,184.2c0.6,0.4,1.3,0.5,2.1,0.5c0.3,0,1.5-0.1,1.8-0.1c1.3,0,2.4,0.9,2.6,2.2c0,2.6-5.5,3.8-12,5.1
			c0.9,2,2.6,3.5,4.6,4.3c1.5,0.4,2.5,1.8,2.5,3.4c0,1.6-0.8,2.3-2.4,2.3c-2.3,0-3.5-1.6-5.1-2.2c-1.7-0.6-3.4-0.9-5.2-0.9
			c-3.3,0-5.9,1.5-5.9,4.2c0,2,2.4,3.5,7.6,3.5c0.4,0,0.9,0,1.3,0c1.8,0,3.5-0.3,5.2-0.7c1.9,0.2,3.5,1.6,3.9,3.5
			c0,2-3.3,2.5-9.2,2.5c-9,0-14-2.6-14-7.3c0-4.5,5.4-7.7,11.9-7.7c1,0,2.1,0.1,3.1,0.3V197c-0.8-0.5-1.8-2.4-2.7-4.3
			c-3.4,0.7-6.9,1.2-10.3,1.3c-4.3,0-5.5-1.4-6.7-4.9l0.6-0.4c1.7,1.7,3.1,1.8,5.2,1.8h1c3.1-0.1,6.1-0.5,9.1-1.2
			c-0.4-1.2-1-3-1.1-3.8c-2,0.4-4.1,0.7-6.2,0.7c-2.7,0-4.8-1.2-6-4.4l0.3-0.4c1.3,0.9,2.8,1.3,4.4,1.2c2.2,0,4.4-0.3,6.5-0.7
			c-0.2-0.7-0.6-2.4-0.7-3c-0.2-1.1-1.3-1.8-2.4-1.7c-0.6,0-1.1,0.1-1.6,0.4l-0.3-0.1c0.3-1.8,2.2-3.3,5.2-3.3s4,1.2,4,2.1
			c0,0.3-0.1,1.8-0.1,2.2c0.1,0.8,0.2,1.6,0.3,2.5c1.7-0.4,3.7-1.1,4.2-3c3.2,0,5.7,0.7,5.7,2.3c0,1.3-1.5,2-2.9,2.6
			c-2.1,0.8-4.2,1.5-6.3,2c0.2,1.2,0.6,2.5,1,3.7c1.8-0.4,6.8-1.7,6.8-3.5c0-0.1,0-0.2-0.1-0.3L81.1,184.2z"/>
		<path class="st1" d="M101,197.3c2.6-2.7,5.8-5,10-5.1c4,0,5.8,3.3,5.8,6.6c0,1.1-0.1,3.1-0.1,4c0,2.5,1.2,3.1,3.8,3.1
			c4.4,0,7.7-3.2,10.2-9.4l0.6,0.1c-1.5,9.1-5.6,14.9-12.7,14.9c-5.2,0-7.7-2.9-7.7-6.7c0-1.1,0.1-3.9,0.1-5c0-3.8-0.3-5.4-2.5-5.4
			c-3,0-6.4,3.6-8.1,7.8c-0.7,1.8-1.3,3.7-1.6,5.6c-0.4,2.4-1.7,3.5-3.1,3.5c-1.6,0.2-3.1-1.1-3.3-2.7c0-0.1,0-0.1,0-0.2
			c0-1.8,0.4-3.6,1.1-5.2c1.3-3,2.8-6.1,4.5-9.5c4.4-8.4,6.6-12.6,6.6-14.5c0-0.6-0.2-1.1-0.6-1.5c-0.8-0.5-1.7-0.7-2.6-0.6
			l-0.2-0.2c0.8-1.3,2.2-2,3.7-2.1c3.3,0,6.6,1.6,6.6,4.2c0,1.8-1.6,2.8-2.7,4.2c-3.2,4.3-6,8.9-8.2,13.8L101,197.3z"/>
		<path class="st1" d="M153.6,184c0.5-0.8,1.7-1.2,3.3-1.2c2.8,0,6,3.7,6,5.7c0,2.6-2.2,2.5-4.5,2.9c-8.4,1.5-19,5.5-19,11
			c0,3.4,3.9,3.8,8.9,3.8c3.2,0,7.9-0.6,9.3-1.7c3.4,0.5,6.1,1.7,6.1,3.7c0,2.4-3,3.3-15,3.3c-6.1,0-13-1.6-13-8.6
			c0-4.8,4.8-8.2,8.6-10.6c-3.1-1-3.1-4.9-3.1-11.9c0-1.2-0.2-2.4-1-2.8c-0.6-0.3-1.2-0.5-1.8-0.5c-0.2,0-0.4,0-0.6,0.1l-0.1-0.3
			c0.6-1.5,2.2-2.4,3.8-2.3c3.6,0.1,6.2,2.5,6.2,4.7c-0.1,0.9-0.3,1.8-0.6,2.6c-0.3,1.3-0.5,2.7-0.4,4.1c0,0.7,0,1.3,0,1.8
			c0.1,1.2,0.6,2.5,1.4,2.6c1.5-0.8,4.1-2,5.5-2.7c1.3-0.6,2.2-1.1,2.2-2.1c-0.2-1-1.1-1.6-2.1-1.5L153.6,184z"/>
		<path class="st1" d="M177.5,197.3c2.6-2.7,5.8-5,10-5.1c4,0,5.9,3.3,5.9,6.6c0,1.1-0.1,3.1-0.1,4c0,2.5,1.2,3.1,3.8,3.1
			c4.4,0,7.7-3.2,10.2-9.4l0.6,0.1c-1.5,9.1-5.6,14.9-12.7,14.9c-5.1,0-7.7-2.9-7.7-6.7c0-1.1,0.1-3.9,0.1-5c0-3.8-0.4-5.4-2.5-5.4
			c-3,0-6.4,3.6-8.1,7.8c-0.7,1.8-1.3,3.7-1.6,5.6c-0.4,2.4-1.7,3.5-3.1,3.5c-1.6,0.2-3.1-1.1-3.3-2.7c0,0,0-0.1,0-0.1
			c0-1.8,0.4-3.6,1.1-5.2c1.3-3,2.8-6.1,4.5-9.5c4.4-8.4,6.6-12.6,6.6-14.5c0-0.6-0.2-1.1-0.6-1.5c-0.8-0.5-1.7-0.7-2.6-0.6
			l-0.2-0.2c0.8-1.3,2.2-2,3.7-2.1c3.3,0,6.6,1.6,6.6,4.2c0,1.8-1.6,2.8-2.7,4.2c-3.2,4.3-6,8.9-8.2,13.8L177.5,197.3z"/>
		<path class="st1" d="M244.8,196.7l6.2,4.4c-0.3,0.5-0.9,0.6-2.1,0.6h-15.3v10.9c0,0.4-2,1.7-5.5,1.7h-1.3v-12.6h-16.9l-0.2-0.7
			h17.1v-8.9H215l-0.2-0.7h12v-8.6h-14.4l-0.2-0.7h10.7c-0.8-0.2-1.6-0.7-2.1-1.4c0-2.9-0.8-5.7-2.5-8l0.3-0.2
			c6.6,1.2,8.8,3.8,8.8,6c0,1.7-1.2,3.2-2.9,3.5h9.6c0.6-3.2,1-6.4,1.3-9.6l9,2c-0.1,0.6-0.5,0.8-1.7,0.8c-2.3,2.5-4.8,4.8-7.5,6.8
			h4.6l3.3-4.2l6.2,4.3c-0.3,0.5-0.9,0.6-2.1,0.6h-13.5v8.6h3l3.2-4.1l5.9,4.1c-0.3,0.5-0.9,0.6-2.1,0.6h-10v8.9h7.9L244.8,196.7z"
			/>
		<path class="st1" d="M289.1,182.6l5.5,3c-0.3,0.5-0.8,0.6-2,0.6h-38.7l-0.2-0.7h17.2v-3.3h-13.1l-0.2-0.7h13.3v-3.2h-15.2
			l-0.2-0.7h10.1c-0.9-1.9-2.3-3.5-3.9-4.8l0.2-0.3c1-0.1,1.9-0.2,2.9-0.2c3.9,0,5.2,1.5,5.2,3.1c0,0.9-0.4,1.7-1.1,2.2h8
			c0.9-1.7,1.6-3.5,2.2-5.4l7.8,1.9c-0.1,0.8-0.8,0.8-1.5,0.8c-2.2,1.1-4.5,2-6.9,2.7h6.4l2.9-3.2l5.5,3.3c-0.3,0.5-0.9,0.6-2,0.6
			h-14v3.2h5.8l2.8-2.7l5.3,2.8c-0.3,0.5-0.9,0.6-2,0.6H277v3.3h9.3L289.1,182.6z M294.4,201.7c-0.3,0.5-0.8,0.6-2,0.6h-14.8
			c-0.1,0.4-0.6,0.7-1.6,0.8c-0.1,0.8-0.3,1.5-0.5,2.3h10.6l2.8-2.8l5.3,2.9c-0.3,0.5-0.8,0.6-2,0.6h-15.8c2.5,1.6,6.5,2.1,10.8,2.1
			c2.2,0,4.6-0.1,6.9-0.4v0.5c-2.2,0.9-3.4,3-3.8,6c-7.2-1.1-12.3-3-15.1-8.3l0,0c-1.5,4.1-5.5,6.8-21.1,8.2l-0.2-0.7
			c10-2.1,13.5-4.4,14.8-7.5h-14.6l-0.2-0.7h15c0.3-1,0.5-2.1,0.5-3.1h-15.6l-0.2-0.7h17.2v-3H258l-0.2-0.7h13.1v-2.5h-13.6
			l-0.2-0.7h8.1c-0.6-0.2-1.2-0.6-1.5-1.2c0.1-1.5-0.3-2.9-1.1-4.1l0.3-0.2c1.6,0,3.1,0.3,4.6,0.8c-0.1-1-0.4-1.9-0.9-2.8l0.3-0.2
			c4.5,0.7,6,2.2,6,3.5s-1.8,2.6-3.5,2.4c-0.4,0.9-1.2,1.6-2.1,1.9h10.6c0.2-0.6,0.4-1.3,0.6-2c-0.9,0-1.7-0.5-2.2-1.1
			c-0.1-1.7-0.7-3.2-1.8-4.5l0.3-0.2c5.4,0.1,7.1,1.7,7,3.2l4.7,1.3c-0.2,0.7-0.9,0.7-1.5,0.7c-1.8,1-3.7,1.9-5.7,2.6h5.1l2.6-3
			l2.5,1.6c-1.4-2.3-3.3-4.3-5.5-5.9l0.2-0.4c7.6-0.4,10.1,2.3,10.1,4.6c0.1,1.5-1.1,2.8-2.6,2.9c0,0-0.1,0-0.1,0l0.4,0.2
			c-0.3,0.5-0.9,0.6-2,0.6h-4.5l4.7,2.6c-0.3,0.5-0.9,0.6-2,0.6h-11v3h10.1l2.5-2.8L294.4,201.7z M262,186.6
			c0.1,0.6,0.2,1.1,0.2,1.7c0,4-2.8,5.9-5.2,5.9c-1.6,0-3.2-0.8-3.2-2.4c0.1-1.3,1-2.3,2.3-2.6c2-0.1,4.7-1,5.4-2.6L262,186.6z
			 M277,195.4v2.6h5.8l2.5-2.6L277,195.4z"/>
		<path class="st1" d="M330.5,177.3h-8.9v21.8H315v-28.3h15.5L330.5,177.3z M329.4,172h-13.1v25.9h4.3v-21.8h8.9V172z"/>
		<path class="st1" d="M382.8,195.9c-0.4,0.6-1.1,0.8-2.6,0.8h-18c4.6,4.9,13.5,8,21.4,9l-0.1,0.6c-3,0.8-5.2,3.4-6,7.4
			c-7.8-3.2-12.7-8.3-15.9-16v15.7c0,0.1-1.5,1.9-8.3,1.9v-12.4c-5.3,4.9-12.6,8.6-21,11.1l-0.4-0.7c6.7-4,12.2-9.7,15.9-16.6h-15.2
			l-0.3-0.9h21v-7h-8.4v0.9c0,0.2-1.2,2.8-7.5,2.8v-19.5l8.1,3h3v-6.8H333l-0.3-0.9H372l3.9-5l7.2,5.1c-0.4,0.6-1.1,0.8-2.6,0.8
			h-13.6v6.8h3.2l2.9-3.7l7.6,5.4c-0.6,0.7-1.3,1.1-2.2,1.2v10.9c0,0.1-2.2,1.6-7.6,1.6v-2.4H359v0.1l4.5,0.3
			c-0.1,0.8-0.5,1.2-2,1.5v5.1h10.3l3.9-5L382.8,195.9z M344.8,176.8V188h3.5v-11.2L344.8,176.8z M355.7,169.2v6.8h3.9v-6.8
			L355.7,169.2z M355.7,188h3.9v-11.1h-3.9V188z M370.7,176.8h-3.8V188h3.8V176.8z"/>
		<path class="st1" d="M395.3,187.9c-1.8,2.2-2.8,4.9-3,7.7c0,4.2,3.3,7.6,12.2,7.6c5.9,0,10.8-0.8,13-1.7c4.3,0.9,5.6,2.8,5.6,4.8
			c0,3.7-7.2,3.8-17.9,3.8c-11.1,0-16.4-5.2-16.4-11.5c0-3.9,2-7.9,6-11.3L395.3,187.9z M406.2,178.4c-2.9,0.7-5.8,1-8.7,1
			c-3.3,0-7.5-3.5-7.2-7l0.3,0.1c1.2,1.1,3.6,1.2,6.6,1.2c6.1,0,12-2.5,14.9-2.8c3.4,0.2,6.9,2.5,6.9,5.5c0,1.6-1.9,2.5-3.5,2.6
			c-3.5,0.2-9.1,1.6-15.1,4.7l-0.4-0.6c1.1-0.8,5.1-3.2,6.4-4.4L406.2,178.4z M417.7,166c4.9,1,8,3.3,8,6.1c0.1,1.2-0.8,2.3-2,2.4
			c0,0,0,0-0.1,0c-1,0.1-1.9-0.6-2.1-1.6c-0.5-2.6-2-4.8-4.2-6.3L417.7,166z M424.6,163.3c4.9,1,8,3.3,8,6.1
			c0.1,1.2-0.8,2.3-1.9,2.4c0,0,0,0-0.1,0c-1,0.1-1.9-0.6-2.1-1.6c-0.6-2.6-2.1-4.8-4.4-6.3L424.6,163.3z"/>
		<path class="st1" d="M443.8,187.3c-1.8,2.2-2.8,4.9-3,7.7c0,4.2,3.3,7.6,12.2,7.6c5.9,0,10.8-0.8,12.9-1.7
			c4.3,0.9,5.6,2.8,5.6,4.8c0,3.7-7.2,3.8-17.9,3.8c-11.1,0-16.4-5.2-16.4-11.5c0-3.9,2-7.9,6-11.3L443.8,187.3z M454.7,177.8
			c-2.9,0.7-5.8,1-8.8,1c-3.3,0-7.5-3.3-7.1-7l0.3,0.1c1.2,1.2,3.2,1.2,5.9,1.2h0.6c6.1,0,13.1-2.8,14.9-2.8c3.4,0,6.9,2.3,6.9,5.5
			c0,1.6-1.9,2.5-3.5,2.6c-3.5,0.2-9.1,1.6-15.1,4.6l-0.4-0.5c1.1-0.8,5.1-3.2,6.4-4.4L454.7,177.8z"/>
		<path class="st1" d="M485.4,211.6c13.6-1.4,22.5-6.7,22.5-13.7c0-5.3-1.5-8.9-7.6-8.9c-2.9,0-9.8,2.1-15.6,9.9
			c-1.1,1.4-2.1,3.4-3.9,3.4c-2.1,0-3.4-1.6-3.4-3.9c0-3.6,1.7-3.9,3.9-6.2c4.8-4.9,13.2-13.7,16.9-17.3c1.2-1.1,1.9-1.8,1.9-2.1
			c0-0.1-0.1-0.3-0.4-0.3c-3.6,0.5-7.2,1.7-10.4,3.5c-1.2,0.8-1.6,1.6-3,1.6c-2.5,0-5.5-3.3-5.5-6.2c0-1.4,0.5-2.9,1.5-3.9l0.3,0.1
			c0.1,1.9,1.7,3.4,3.6,3.4c0.1,0,0.1,0,0.2,0c3.5,0,9.4-0.9,12.1-2c1.5-0.6,2.7-1.8,3.3-1.8c2.1,0,6.4,2.5,6.4,5.2
			c0,2.1-2.3,2.4-4.2,3.8c-5.8,4.5-11.1,9.4-15.9,14.9l0.1,0.1c5-3.2,10.2-4.9,14.2-4.9c7.6,0,13.2,4.9,13.1,12.1
			c0,9.9-8.9,14.1-29.9,14.3L485.4,211.6z"/>
		<path class="st1" d="M520.1,207.6h10.4V182h7.8v33.3h-18.3V207.6z M521.5,213.8H537v-30.4h-5V209h-10.5V213.8z"/>
		<path class="st1" d="M493.8,113v13.2h12.1v4.7h-12.1v14h-4.6v-14h-12.1v-4.7h12.1V113H493.8z"/>
		<path class="st2" d="M74.7,34.4V38c2.1,0.6,4,1.6,5.7,2.9c1,0.7,1.6,1.8,1.7,3c0,0.5-0.1,0.9-0.4,1.2c-0.2,0.2-0.5,0.4-0.8,0.4
			c-0.6,0-1.1-0.4-1.6-1.3c-1-2.2-2.6-4.1-4.6-5.5v5.8l0.1,14.7c0,0.9-0.6,1.3-1.8,1.3c-0.8,0-1.2-0.4-1.2-1.1c0-0.1,0-1,0.1-2.5
			c0.2-4.8,0.3-10.7,0.4-17.7c-2.2,4.6-5.4,8.7-9.3,12c0,0-0.1,0-0.2,0c-0.2,0-0.3-0.1-0.3-0.3c0,0,0-0.1,0-0.1
			c4-4.9,7.1-10.4,9-16.4H66c-1,0-1.9,0.1-2.9,0.3L62.7,33c1.1,0.2,2.2,0.3,3.3,0.3h6v-7.6c-2.7,0.6-5.5,1-8.3,1.2
			c-0.2,0-0.3-0.1-0.3-0.4s0-0.2,0.2-0.3c4.4-0.8,8.6-2.2,12.6-4.1c1.1-0.5,2.2-1.2,3.1-2c2,1.4,3,2.3,3,2.7s-0.3,0.5-0.8,0.5
			c-0.4,0-0.8-0.1-1.2-0.2c-1.8,0.7-3.7,1.4-5.6,1.9v8.2H78c1.1-1.3,1.8-2,2.1-2c0.8,0.4,1.6,0.9,2.2,1.6c0.7,0.5,1,0.9,1,1.2
			c0,0.3-0.2,0.4-0.6,0.4L74.7,34.4z M98.1,56H87.4v2.2c0,0.8-0.6,1.2-1.8,1.2c-0.8,0-1.2-0.3-1.2-1l0.2-18.9c0-7.2-0.1-11.9-0.2-14
			c1.2,0.5,2.3,1.1,3.4,1.7h9.9c1-1,1.5-1.5,1.7-1.5c0.7,0.3,1.3,0.7,1.9,1.3c0.5,0.5,0.7,0.8,0.7,1s-0.4,0.7-1.2,1.3v9.5l0.2,19.1
			c0,0.8-0.6,1.2-1.8,1.2c-0.8,0-1.2-0.3-1.2-1L98.1,56z M98.1,54.9V28.5H87.5v26.4H98.1z"/>
		<path class="st2" d="M126.4,44.7v-0.4c0-1.5,0-3-0.2-4.5c1.2,0.1,2.5,0.3,3.7,0.5c0.4,0.1,0.6,0.3,0.6,0.6s-0.4,0.6-1.4,1v2.8
			h12.8c1.3-1.5,2.1-2.3,2.3-2.3c1,0.4,1.8,1,2.6,1.8c0.7,0.6,1.1,1,1.1,1.3s-0.2,0.4-0.6,0.4h-17.6c2.3,2.7,5.2,4.9,8.3,6.6
			c3.3,1.6,6.7,2.7,10.3,3.2c0.1,0,0.2,0.1,0.2,0.2c0,0,0,0,0,0c0,0.1-0.1,0.3-0.2,0.3c-0.5,0.1-1,0.4-1.4,0.7
			c-0.3,0.4-0.6,0.8-0.8,1.3c-0.1,0.4-0.4,0.6-0.8,0.6c-0.7-0.1-1.4-0.3-2.1-0.6c-2.4-1-4.7-2.3-6.8-3.8c-3-2.1-5.6-4.7-7.6-7.8
			c0.2,6.3,0.3,10.7,0.3,13.2c0,0.9-0.6,1.3-1.8,1.3c-0.8,0-1.2-0.4-1.2-1.1c0-0.6,0.1-2.3,0.1-5c0.1-3.2,0.2-5.6,0.2-7
			c-2.5,2.7-5.4,5-8.6,6.9c-3.1,1.7-6.3,3.2-9.7,4.2l0,0c-0.2,0-0.3-0.1-0.3-0.4c0-0.1,0-0.2,0.1-0.2c6.4-2.9,12.1-7.2,16.7-12.5
			h-12.4c-1.1,0-2.2,0.1-3.2,0.3l-0.4-1.7c1.2,0.2,2.4,0.3,3.7,0.3H126.4z M114.9,39v0.8c0,0.8-0.6,1.1-1.7,1.1
			c-0.8,0-1.1-0.3-1.1-0.9l0.1-6.8c0-2.6-0.1-4.5-0.2-5.9c1.1,0.5,2.2,1,3.2,1.6h6.6v-5.4h-10c-1,0-2.1,0.1-3.1,0.3l-0.4-1.6
			c1.2,0.2,2.4,0.3,3.6,0.3h30.6c1.2-1.5,2-2.2,2.2-2.2c0.9,0.4,1.8,1,2.5,1.7c0.7,0.5,1,0.9,1,1.2s-0.2,0.4-0.6,0.4h-13.7V29h6.9
			c0.9-0.9,1.4-1.4,1.6-1.4c0.7,0.3,1.3,0.7,1.8,1.2c0.5,0.4,0.7,0.8,0.7,1s-0.4,0.7-1.2,1.2v2.4l0.1,6.5c0,0.7-0.6,1.1-1.6,1.1
			c-0.8,0-1.2-0.3-1.2-1V39L114.9,39z M121.8,37.9v-7.8h-6.9v7.8L121.8,37.9z M124.4,37.9h6.8v-7.8h-6.8L124.4,37.9z M131.2,29v-5.3
			h-6.8V29L131.2,29z M140.9,38v-7.8h-7.1V38H140.9z"/>
		<path class="st2" d="M171.2,47.1v-4.2h-9v0.8c0,0.7-0.6,1.1-1.7,1.1c-0.8,0-1.2-0.3-1.2-0.9l0.2-8.5c0-2.8-0.1-5-0.2-6.7
			c1.1,0.5,2.2,1,3.3,1.6h20.5c0.9-1,1.4-1.5,1.6-1.5c0.7,0.3,1.3,0.7,1.8,1.2c0.5,0.5,0.8,0.8,0.8,1.1s-0.4,0.7-1.2,1.2v3.2l0.2,8
			c0,0.8-0.6,1.2-1.7,1.2c-0.8,0-1.1-0.3-1.1-0.9V43h-9.6v4.2h13.9c1.3-1.5,2-2.2,2.2-2.2c0.9,0.4,1.8,1,2.5,1.7c0.7,0.6,1,1,1,1.2
			s-0.2,0.4-0.6,0.4h-18.4c2.2,2.3,4.9,4,7.9,5.2c3.7,1.4,7.6,2.4,11.6,2.8c0.1,0,0.2,0.1,0.2,0.2c0,0,0,0,0,0
			c0,0.1-0.1,0.2-0.2,0.3c0,0,0,0,0,0c-0.5,0.1-1,0.3-1.3,0.6c-0.3,0.4-0.6,0.8-0.7,1.2c-0.2,0.6-0.5,0.8-0.8,0.8
			c-0.6-0.1-1.3-0.2-1.9-0.4c-2.7-0.8-5.3-2-7.7-3.4c-3-1.8-5.7-4.1-7.8-6.9c0.2,5.8,0.3,9.4,0.3,10.9c0,0.9-0.6,1.3-1.9,1.3
			c-0.8,0-1.2-0.4-1.2-1.1s0.1-3.9,0.4-10c-5.1,4.9-11.4,8.3-18.3,9.8c-0.2,0-0.4-0.1-0.4-0.4c0-0.1,0-0.2,0.1-0.2
			c6.3-2.1,12-5.9,16.5-10.9h-12.6c-1,0-2,0.1-3,0.3l-0.4-1.7c1.1,0.2,2.2,0.3,3.3,0.3L171.2,47.1z M165.4,24.3v-0.6
			c0-1.3-0.1-2.7-0.2-4c1.3,0.1,2.6,0.3,3.8,0.6c0.4,0.1,0.6,0.3,0.6,0.5s-0.5,0.7-1.5,1v2.4h9.1v-0.4c0-1.4-0.1-2.8-0.2-4.2
			c1.3,0.1,2.5,0.3,3.8,0.6c0.4,0.1,0.7,0.3,0.7,0.6s-0.5,0.6-1.5,1v2.4h7.7c1.2-1.5,1.9-2.2,2.2-2.2c0.9,0.4,1.8,1,2.6,1.7
			c0.6,0.5,1,0.9,1,1.2s-0.2,0.4-0.6,0.4h-13c0,0.5,0.1,0.9,0.1,1.5c0,0.3,0,0.5,0,0.6c0,0.8-0.6,1.2-1.7,1.2c-0.8,0-1.2-0.3-1.2-1
			l0.1-2.2H168l0.1,2.2c0,0.8-0.6,1.2-1.7,1.2c-0.8,0-1.2-0.3-1.2-1c0,0,0-0.3,0-0.8s0.1-1,0.1-1.6h-8.7c-1,0-2,0.1-2.9,0.3
			l-0.4-1.6c1.1,0.2,2.2,0.3,3.3,0.3H165.4z M171.2,41.8V37h-9v4.8L171.2,41.8z M171.2,35.9v-4.5h-9v4.5H171.2z M173.9,41.8h9.6V37
			h-9.6L173.9,41.8z M173.9,35.9h9.6v-4.5h-9.6L173.9,35.9z"/>
		<path class="st2" d="M219.7,39.2h12.6c1.5-1.8,2.3-2.7,2.6-2.7c1,0.5,1.9,1.2,2.7,2c0.8,0.7,1.2,1.1,1.2,1.4s-0.2,0.4-0.6,0.4
			h-18.4v5.5l0.2,11.1c0,1.2-0.6,2.3-1.6,2.8c-0.9,0.5-1.9,0.8-2.9,0.8c-0.2,0-0.4,0-0.5-0.1c-0.1-0.2-0.2-0.4-0.2-0.6
			c-0.2-0.7-0.7-1.3-1.4-1.6c-1.4-0.6-2.8-1-4.2-1.3c-0.1,0-0.2-0.1-0.2-0.3s0.1-0.3,0.2-0.3c3.5,0.4,5.8,0.5,7,0.5
			c0.4,0.1,0.8-0.2,0.8-0.6c0-0.1,0-0.1,0-0.2V40.3h-14.9c-1.2,0-2.3,0.1-3.5,0.2l-0.4-1.7c1.3,0.2,2.6,0.3,3.9,0.3h15v-0.2
			c0-3.6-0.1-5.8-0.2-6.8c1.4,0.2,2.4,0.3,3,0.5c2.8-2.3,5.3-5,7.5-7.9h-20.3c-1.2,0-2.5,0.1-3.7,0.3l-0.4-1.7
			c1.3,0.2,2.7,0.3,4,0.3h20.4c0.5-0.6,1.2-1.1,1.9-1.5c0.3,0,1,0.5,2.1,1.6c0.6,0.6,0.9,1,0.9,1.3s-0.6,0.6-1.9,0.9
			c-2.8,2.8-5.9,5.2-9.3,7.1c0.2,0.1,0.3,0.2,0.3,0.4c0,0.4-0.5,0.8-1.5,1.2L219.7,39.2z"/>
		<path class="st2" d="M243.7,53.7l-0.4-1.6c1.4,0.2,2.8,0.3,4.2,0.3h28.7c1.7-2,2.7-3,3-3c1.1,0.6,2.1,1.4,3,2.2
			c0.8,0.7,1.2,1.2,1.2,1.5s-0.2,0.4-0.6,0.4h-35.2C246.3,53.5,245,53.6,243.7,53.7z M249.1,29.9l-0.4-1.6c1.3,0.2,2.7,0.3,4,0.3
			h18.6c1.7-1.9,2.6-2.8,2.9-2.8c1,0.6,2,1.3,2.9,2.1c0.9,0.7,1.3,1.2,1.3,1.5s-0.2,0.4-0.6,0.4h-25
			C251.5,29.7,250.3,29.8,249.1,29.9z"/>
		<path class="st2" d="M296.6,34.2v3.6c1.6,0.6,3.1,1.5,4.3,2.8c0.7,0.7,1.1,1.7,1.2,2.7c0,0.4-0.1,0.9-0.4,1.2
			c-0.2,0.3-0.5,0.4-0.8,0.4c-0.6,0-1-0.5-1.3-1.6c-0.4-1.9-1.5-3.6-3-4.8v7.1v14.3c0,0.8-0.6,1.2-1.7,1.2c-0.8,0-1.2-0.3-1.2-1
			c0-0.2,0-1,0.1-2.4c0.2-4.6,0.3-10.2,0.4-17c-1.6,4-3.8,7.6-6.7,10.8c0,0-0.1,0-0.1,0c-0.2,0-0.4-0.1-0.4-0.3c0,0,0-0.1,0-0.1
			c3.3-5.2,5.5-10.9,6.7-16.9h-3.3c-0.9,0-1.8,0.1-2.6,0.3l-0.4-1.7c1,0.2,2,0.3,3,0.3h3.6v-7.9c-2,0.4-3.9,0.7-5.9,0.9
			c-0.2,0-0.3-0.1-0.3-0.4c0-0.1,0.1-0.2,0.1-0.2c3.2-0.8,6.3-1.9,9.2-3.5c0.9-0.5,1.8-1.1,2.5-1.8c1.9,1.4,2.8,2.2,2.8,2.5
			s-0.3,0.5-0.9,0.5c-0.4,0-0.7-0.1-1.1-0.1c-1.3,0.6-2.6,1-3.9,1.4v8.6h1.8c1-1.2,1.6-1.8,1.9-1.8s0.9,0.5,2,1.4
			c0.6,0.5,0.9,0.8,0.9,1.1s-0.2,0.4-0.6,0.4L296.6,34.2z M315.8,47.3v4.8h6.6c1.1-1.3,1.7-2,1.9-2c0.8,0.4,1.5,1,2.2,1.6
			c0.6,0.5,0.9,0.9,0.9,1.1s-0.2,0.4-0.6,0.4h-11.1V58h8.3c1.2-1.4,1.9-2.1,2.1-2.1c0.9,0.4,1.6,1,2.3,1.7c0.6,0.5,0.9,0.9,0.9,1.1
			c0,0.3-0.2,0.4-0.6,0.4h-25.7c-1,0-2,0.1-2.9,0.3l-0.4-1.7c1.1,0.2,2.2,0.3,3.4,0.3h10v-4.8h-7.9c-0.9,0-1.8,0.1-2.7,0.3l-0.5-1.7
			c1,0.2,2.1,0.3,3.2,0.3h7.9v-4.8h-6.5V48c0,0.7-0.5,1.1-1.6,1.1c-0.8,0-1.1-0.3-1.1-1l0.2-7.9c0-3.5-0.1-6-0.2-7.5
			c1.1,0.4,2.1,0.9,3.1,1.5h6.2v-4.2h-8.3c-1,0-1.9,0.1-2.9,0.3l-0.4-1.7c1.1,0.2,2.2,0.3,3.3,0.3h8.3V25c-3.3,0.4-6.6,0.5-9.9,0.5
			c-0.2,0-0.2-0.1-0.2-0.4s0.1-0.2,0.2-0.3c5-0.5,10-1.5,14.8-2.9c1.6-0.4,3-1.1,4.4-1.9c2.1,1.7,3.2,2.7,3.2,3
			c0,0.3-0.2,0.4-0.7,0.4c-0.6,0-1.1-0.1-1.6-0.4c-2.5,0.6-5,1.2-7.5,1.5v4.1h7.6c1.2-1.4,2-2.1,2.2-2.1c0.9,0.4,1.7,1,2.4,1.6
			c0.6,0.5,1,1,1,1.2s-0.2,0.4-0.6,0.4h-12.5v4.2h6.6c0.8-0.9,1.4-1.4,1.6-1.4c0.6,0.3,1.2,0.7,1.6,1.1c0.5,0.5,0.8,0.8,0.8,1.1
			s-0.4,0.6-1.1,1.1v3.3l0.1,8.1c0,0.8-0.5,1.2-1.6,1.2c-0.8,0-1.2-0.3-1.2-0.9v-0.4L315.8,47.3z M306.7,46.2h6.5v-5h-6.5V46.2z
			 M306.7,40h6.5v-4.8h-6.5L306.7,40z M315.8,46.2h6.9v-5h-6.9V46.2z M315.8,40h6.9v-4.8h-6.9L315.8,40z"/>
		<path class="st2" d="M343.2,30.6h2.2c1-1.2,1.5-1.8,1.8-1.8c0.8,0.3,1.4,0.8,2,1.5c0.5,0.4,0.7,0.7,0.7,1s-0.2,0.4-0.6,0.4h-6.2
			v10c1.8-0.7,3.5-1.4,5.2-2.2c0,0,0.1,0,0.1,0c0.2,0,0.3,0.1,0.3,0.3c0,0.1,0,0.1-0.1,0.2c-1.8,1.2-3.6,2.3-5.5,3.3
			c0,4.7,0,8.9,0.1,12.4c0,2.6,0,3.9,0,3.9c0,0.9-0.6,1.3-1.8,1.3c-0.8,0-1.2-0.3-1.2-1c0-0.2,0-1,0-2.2c0.1-3.7,0.1-8.1,0.1-13.2
			c-1.6,0.7-3.2,1.4-4.8,2c-0.1,1-0.4,1.5-0.8,1.5s-1.1-1.3-1.9-3.8c0.8,0,1.6-0.1,2.4-0.3c1.4-0.3,3.1-0.8,5.1-1.4v-11h-3.9
			c-0.9,2.5-2,4.8-3.5,7c0,0.1-0.1,0.1-0.2,0.1c-0.2,0-0.4-0.1-0.4-0.3v-0.1c1.2-3.2,2.1-6.6,2.5-10c0.2-1.4,0.4-2.8,0.4-4.2
			c1.6,0.5,2.6,0.8,3.1,1s0.8,0.4,0.8,0.7s-0.5,0.6-1.4,0.8c-0.2,1.1-0.6,2.4-1,4h3.5c0-5.5-0.1-9.1-0.2-10.6
			c1.3,0.1,2.6,0.3,3.8,0.6c0.4,0.1,0.6,0.3,0.6,0.6s-0.5,0.7-1.6,1.2L343.2,30.6z M357.4,35.3v-7h-5.7c-0.9,0-1.8,0.1-2.7,0.3
			l-0.4-1.7c1,0.2,2.1,0.3,3.1,0.3h5.7v-1.7c0-1.8,0-3.6-0.2-5.4c1.3,0.1,2.6,0.3,3.9,0.7c0.4,0.1,0.6,0.4,0.6,0.6s-0.5,0.8-1.6,1.2
			v4.7h6.4c1.2-1.4,1.9-2.1,2.1-2.1c0.9,0.4,1.6,1,2.3,1.7c0.6,0.5,0.9,0.9,0.9,1.1s-0.2,0.4-0.6,0.4h-11.2v7h8.4
			c1.2-1.4,1.9-2.1,2.1-2.1c0.9,0.4,1.7,1,2.4,1.7c0.6,0.5,1,0.9,1,1.1s-0.2,0.4-0.6,0.4h-23.4c-1,0-1.9,0.1-2.8,0.3l-0.5-1.8
			c1.1,0.2,2.2,0.3,3.3,0.3L357.4,35.3z M363.4,42.9c0-1.8,0-3.7-0.2-5.5c1.2,0.1,2.5,0.3,3.6,0.6c0.5,0.1,0.7,0.3,0.7,0.6
			s-0.5,0.7-1.5,1.1v3.3h2.5c1.1-1.4,1.8-2.1,2.1-2.1c0.9,0.4,1.7,0.9,2.3,1.6c0.6,0.5,0.9,0.9,0.9,1.2s-0.2,0.4-0.6,0.4h-7.2v3.3
			l0.2,10.1c0,1.1-0.5,2.2-1.5,2.8c-0.7,0.5-1.6,0.8-2.5,0.7c-0.3,0-0.4,0-0.5-0.2c-0.1-0.2-0.2-0.4-0.2-0.6
			c-0.2-0.7-0.7-1.2-1.3-1.4c-1.2-0.4-2.3-0.8-3.6-1c-0.1,0-0.2-0.1-0.2-0.3s0.1-0.3,0.2-0.3c2.7,0.2,4.6,0.3,5.8,0.3
			c0.5,0,0.8-0.2,0.8-0.7V44h-13.2c-0.9,0-1.8,0.1-2.7,0.2l-0.4-1.7c1,0.2,2.1,0.3,3.1,0.3L363.4,42.9z M351.2,46.7c0,0,0-0.1,0-0.1
			c0-0.2,0.1-0.3,0.3-0.3c1.8,0.5,3.4,1.4,4.7,2.7c0.8,0.7,1.2,1.7,1.2,2.8c0,1.3-0.5,1.9-1.6,1.9c-0.7,0-1.2-0.5-1.5-1.6
			C353.9,50,352.8,48.1,351.2,46.7L351.2,46.7z"/>
		<path class="st2" d="M385.8,40.7c1.9-0.7,3.4-1.3,4.5-1.8h0.1c0.2,0,0.3,0.1,0.3,0.3c0,0.1,0,0.2-0.1,0.2c-1.4,1-3,2.1-4.8,3.2
			l0.1,15.4c0.1,1.1-0.4,2.1-1.4,2.7c-0.6,0.4-1.3,0.7-2.1,0.6c-0.4,0-0.5-0.2-0.6-0.6c-0.1-0.6-0.4-1.1-0.9-1.4
			c-0.9-0.4-1.8-0.8-2.8-1c-0.1,0-0.2-0.2-0.2-0.3c0-0.2,0.1-0.3,0.2-0.2c2,0.2,3.3,0.3,4.2,0.3c0.5,0,0.8-0.3,0.8-0.9V44
			c-0.9,0.5-1.9,0.9-2.8,1.3c-0.2,1.1-0.5,1.7-0.9,1.7s-1-1.3-1.8-3.9c1-0.2,2-0.4,3.1-0.8l2.3-0.7V31.4h-2.3
			c-0.8,0-1.7,0.1-2.5,0.3L378,30c1,0.2,1.9,0.3,2.9,0.3h2.3c0-5.5-0.1-8.8-0.2-10c1.3,0.1,2.5,0.3,3.7,0.6c0.4,0.1,0.6,0.3,0.6,0.6
			s-0.5,0.7-1.5,1.1v7.6h0.7c0.9-1.1,1.4-1.7,1.6-1.7s1,0.5,2.1,1.5c0.4,0.4,0.6,0.7,0.6,0.9s-0.2,0.4-0.6,0.4h-4.5L385.8,40.7z
			 M388.3,61c-0.2,0-0.3-0.1-0.3-0.3c0-0.1,0-0.2,0.1-0.2c2.8-1.3,5.3-3,7.5-5.1c0.8-0.7,1.5-1.5,2.1-2.4c2.1,1.3,3.2,2.1,3.2,2.4
			s-0.3,0.4-0.9,0.4c-0.3,0-0.7,0-1-0.1C395.9,58.4,392.2,60.2,388.3,61z M408.6,44.5v6.1h4.9c1.1-1.4,1.8-2.1,2.1-2.1
			c0.8,0.4,1.6,0.9,2.3,1.6c0.6,0.5,0.9,0.9,0.9,1.2s-0.2,0.4-0.6,0.4h-25.9c-0.9,0-1.9,0.1-2.8,0.3l-0.5-1.8
			c1.1,0.2,2.2,0.3,3.2,0.3h4.8v-6.1h-3.5c-0.9,0-1.8,0.1-2.7,0.3l-0.4-1.7c1,0.2,2.1,0.3,3.1,0.3h3.5v-0.4c0-1.7-0.1-3.3-0.2-4.6
			c1.1,0.1,2.3,0.3,3.4,0.6c0.4,0.1,0.5,0.3,0.5,0.5s-0.4,0.7-1.3,1v2.9h6.6v-0.7c0-1.4,0-2.9-0.2-4.3c1.1,0.1,2.3,0.3,3.4,0.6
			c0.4,0.1,0.6,0.3,0.6,0.5s-0.4,0.6-1.3,1v2.9h3.8c1-1.3,1.7-2,1.9-2c0.8,0.4,1.5,0.9,2.2,1.5c0.6,0.5,0.9,0.9,0.9,1.2
			s-0.2,0.4-0.6,0.4L408.6,44.5z M399.8,30h-6v3.6c-0.1,0.6,0.2,1.1,0.7,1.3c0.8,0.2,1.6,0.3,2.4,0.3c2,0,3.2-0.2,3.8-0.7
			c0.7-0.8,1.2-1.8,1.3-2.8c0-0.1,0.1-0.1,0.2-0.1c0.2,0,0.3,0.1,0.3,0.2c-0.1,1.2-0.1,1.9-0.1,2.2s0.1,0.6,0.4,0.7
			c0.4,0.1,0.6,0.4,0.6,0.8c0,0.6-0.4,1.1-1.2,1.4c-1.9,0.4-3.8,0.6-5.7,0.5c-2.1,0-3.5-0.3-4.3-0.9c-0.6-0.7-0.9-1.6-0.9-2.5
			l0.1-6.8c0-1.8-0.1-3.6-0.2-5.4c1,0.4,1.9,0.8,2.9,1.4h5.4c0.7-0.9,1.2-1.3,1.4-1.3c0.6,0.2,1.1,0.5,1.5,0.9
			c0.5,0.4,0.7,0.7,0.7,1s-0.4,0.6-1.1,1.1v1.4l0.1,3.8c0,0.6-0.5,0.9-1.4,0.9C400.2,30.8,399.8,30.5,399.8,30z M399.8,28.9v-4.8h-6
			v4.8L399.8,28.9z M406.1,44.4h-6.6v6.1h6.6V44.4z M413.6,30h-5.9v3.6c-0.1,0.6,0.2,1.1,0.8,1.3c1,0.3,2,0.4,3,0.3
			c1,0,1.9,0,2.9-0.2c0.5-0.1,0.9-0.3,1.3-0.7c0.6-0.9,1-1.8,1.2-2.9c0-0.1,0.1-0.1,0.2-0.1c0.2,0,0.3,0.1,0.3,0.2
			c-0.1,0.9-0.1,1.7-0.1,2.3c0,0.3,0.2,0.7,0.5,0.8c0.4,0.1,0.6,0.4,0.6,0.8c0,0.6-0.4,1-1.3,1.3c-1.9,0.5-3.9,0.6-5.9,0.5
			c-2.4,0-4-0.3-4.9-0.9c-0.7-0.6-1.1-1.6-1-2.5l0.1-6.9c0-1.8,0-3.6-0.2-5.4c1,0.4,2,0.8,2.9,1.4h5.2c0.8-0.9,1.3-1.3,1.5-1.3
			s0.7,0.3,1.5,1c0.5,0.4,0.8,0.7,0.8,0.9s-0.4,0.6-1.1,1.1v1.4L416,30c0,0.7-0.5,1-1.4,1c-0.7,0-1-0.3-1-0.8L413.6,30z M406.5,54.1
			c-0.1,0-0.1-0.1-0.1-0.2c0-0.2,0.1-0.3,0.3-0.3c2.6,0.4,5.1,1.3,7.4,2.7c1.5,1,2.3,2.1,2.3,3.2s-0.4,1.5-1.2,1.5
			c-0.4,0-0.9-0.4-1.6-1.3c-1-1.3-2.1-2.4-3.4-3.4C409,55.4,407.8,54.7,406.5,54.1z M413.6,28.9v-4.8h-5.9v4.8L413.6,28.9z"/>
		<path class="st2" d="M440.8,37.8c0.5-0.1,4.1-1,10.8-2.7c0.5-0.1,1-0.4,1.3-0.9c0.2-0.3,0.6-0.6,1-0.6c0.6,0,1.5,0.5,2.6,1.6
			s1.5,1.6,1.5,2.1s-0.4,0.9-1.3,1c-0.6,0.1-1.2,0.4-1.6,0.9c-2.6,2.6-5.4,5-8.3,7.2c-0.2,0.2-0.5,0.2-0.7,0.2
			c-0.3,0-0.4-0.2-0.4-0.5c0-0.3,0.1-0.5,0.4-0.7c2.6-2.5,5-5.2,7.1-8c0.1-0.1,0.2-0.3,0.2-0.5c0-0.1-0.1-0.2-0.3-0.2h-0.2
			c-1.3,0.3-5.3,1.3-12,3.1l0,5.8c-0.1,1.6,0,3.2,0.3,4.8c0.1,0.5,0.5,1,1,1.2c1.2,0.4,2.5,0.5,3.7,0.5c1.7,0,3.3-0.1,5-0.4l3-0.4
			c0.7,0,1.3,0.1,1.9,0.5c0.4,0.3,0.6,0.7,0.6,1.2c0,0.7-0.5,1.1-1.5,1.3c-2,0.3-4,0.4-6.1,0.3c-1.9,0-3.8,0-5.6-0.3
			c-0.9-0.1-1.8-0.5-2.5-1c-0.8-0.6-1.4-1.6-1.7-2.6c-0.3-1.3-0.4-2.5-0.4-3.8c0-2-0.1-4.2,0-6.5c-3.2,0.8-5.6,1.5-7.3,2.1
			c-0.6,0.2-1.2,0.4-1.7,0.7c-0.3,0.3-0.8,0.5-1.3,0.5c-1-0.2-2-0.7-2.6-1.5c-0.9-0.6-1.4-1.6-1.6-2.6c0-0.5,0.2-0.7,0.5-0.7
			s0.4,0.1,0.6,0.4c0.6,0.7,1.4,1.2,2.4,1.3c1-0.1,2.1-0.2,3.1-0.5c1.3-0.3,4-0.9,7.9-1.8v-7.3c0-0.6-0.2-1.2-0.7-1.6
			c-0.5-0.4-1.1-0.6-1.8-0.7c-0.5-0.1-0.7-0.2-0.7-0.4c0-0.2,0.2-0.5,0.4-0.6c0.5-0.3,1-0.4,1.5-0.3c1.3,0.1,2.6,0.4,3.7,1
			c0.9,0.4,1.3,0.9,1.3,1.5c-0.1,0.5-0.3,0.9-0.6,1.2c-0.3,0.4-0.4,0.9-0.4,1.4C441,33.7,440.9,35.5,440.8,37.8z"/>
		<path class="st2" d="M469.2,36.7c-0.1-0.1-0.2-0.3-0.3-0.5c0-0.1,0.1-0.3,0.2-0.3c0.1-0.1,0.2-0.1,0.4-0.1c0.2,0,0.4,0.1,0.6,0.2
			c1,0.6,1.9,1.3,2.6,2.2c0.9,0.8,1.4,1.9,1.5,3.1c0,0.5-0.2,1-0.5,1.3c-0.3,0.2-0.6,0.4-0.9,0.4c-0.7,0-1.2-0.6-1.5-1.8
			c-0.2-0.8-0.4-1.6-0.8-2.4C470.1,38,469.7,37.4,469.2,36.7z M489.2,36.7c0-0.4-0.3-0.7-0.9-1c-0.5-0.3-1-0.4-1.5-0.5
			c-0.1,0-0.2-0.2-0.2-0.3c0-0.2,0.1-0.3,0.3-0.4c0.4-0.2,0.9-0.3,1.3-0.2c1.2,0,2.5,0.4,3.5,1.2c0.9,0.7,1.4,1.3,1.4,1.8
			c0,0.4-0.3,0.7-0.6,0.8c-0.4,0.2-0.8,0.6-1,1c-2,3.9-4.5,7.6-7.4,10.8c-3.1,3.4-6.8,6.2-10.9,8.1c-0.3,0.1-0.6,0.2-0.9,0.2
			c-0.4,0-0.5-0.2-0.5-0.6c0-0.2,0.2-0.5,0.4-0.6c7.2-4.4,12.9-10.7,16.5-18.3C488.9,38,489.1,37.4,489.2,36.7L489.2,36.7z
			 M476.9,34.7c-0.1-0.2-0.2-0.4-0.2-0.6c0-0.2,0.2-0.4,0.6-0.4c0.2,0,0.4,0.1,0.6,0.2c1.1,0.7,2,1.6,2.8,2.7c0.6,0.8,1,1.9,1,2.9
			c0,1.3-0.5,2-1.5,2c-0.4,0.1-0.8-0.1-1-0.4c-0.3-0.5-0.5-1-0.5-1.5c-0.1-0.9-0.3-1.7-0.6-2.5C477.8,36.3,477.4,35.5,476.9,34.7
			L476.9,34.7z"/>
		<path class="st2" d="M510.7,36.9c2.4,0.2,4.9,0.7,7.1,1.6c3.1,1.2,4.6,2.6,4.6,4.1c0,0.5-0.1,1-0.5,1.3c-0.2,0.2-0.5,0.4-0.8,0.4
			c-0.7-0.1-1.3-0.4-1.8-1c-1.2-1.2-2.5-2.3-4-3.2c-1.5-0.9-3-1.6-4.7-2c0,3.6,0,6.2,0,7.7l0.1,10.6c0,1.3-0.4,1.9-1.2,1.9
			c-0.5-0.1-0.9-0.4-1.2-0.8c-0.6-0.8-1-1.8-1-2.8c0-0.5,0.1-0.9,0.4-1.3c0.3-0.8,0.4-1.7,0.4-2.5c0.1-2.8,0.1-5.7,0.1-8.7
			s0.1-7.3,0.1-13c0.1-0.9,0-1.8-0.2-2.7c-0.6-0.9-1.4-1.5-2.4-1.8c-0.3-0.1-0.5-0.3-0.5-0.5s0.1-0.4,0.4-0.5
			c0.2-0.1,0.4-0.2,0.7-0.2c1.3,0,2.6,0.4,3.7,1c1.3,0.7,1.9,1.4,1.9,2.1c0,0.6-0.3,1.1-0.8,1.4c-0.2,0.1-0.3,0.7-0.3,1.7
			C510.8,31.6,510.7,34,510.7,36.9z"/>
		<rect x="0.5" y="0.5" class="st3" width="593.3" height="76.5"/>
		<path class="st1" d="M549.6,185.8c2.7-0.9,5.3-2,7.8-3.3l0.6,0.3v21.4c0,2.6,0.6,3.1,3.4,3.1v1.3h-11.7v-1.3c3,0,3.6-0.4,3.6-3.1
			v-15.1c0-1.6-0.2-2.5-0.8-2.5c-0.9,0.1-1.8,0.3-2.6,0.7L549.6,185.8z"/>
		<path class="st1" d="M598.5,187.6c-0.2,0.4-0.7,0.5-1.6,0.5h-10.5c2.4,5.6,6.8,10.1,12.4,12.6l-0.1,0.4c-1.8,0.4-3.3,2.1-3.9,4.6
			c-4.6-3.6-7.3-9.4-8.9-17.5h-0.2v15l2-3.4l3.8,3.6c-0.2,0.4-0.7,0.5-1.5,0.5h-4.2v6.6c0,0.4-1.9,1.4-3.8,1.4h-0.9v-8h-5.5
			l-0.1-0.6h5.6v-8.6c-3,4.9-7.3,8.8-12.5,11.2l-0.3-0.4c4.8-4.3,8.3-11.2,9.8-17.5H569l-0.2-0.6h12.4v-8.9l6.1,0.6
			c-0.1,0.6-0.3,1-1.4,1.1v7.1h5.8l2.4-3.8L598.5,187.6z"/>
	</g>
</g>
</svg>
