<svg xmlns="http://www.w3.org/2000/svg" viewBox="0 0 670 119.77"><defs><style>.cls-1{fill:#fff23f;}.cls-2{fill:#231815;}.cls-3{fill:#89c681;}.cls-4{fill:#fff;}.cls-5{fill:#87c796;}.cls-6{fill:none;}</style></defs><g id="レイヤー_2" data-name="レイヤー 2"><g id="contents"><path class="cls-1" d="M189,59.87c0,2.84-3.78,5.37-4.17,8.1s2.52,6.29,1.74,8.94-5.13,4.07-6.29,6.59.64,6.73-.87,9.07-6.06,2.44-7.89,4.55-1.27,6.62-3.38,8.45-6.5.64-8.85,2.16-3.07,6-5.62,7.16-6.4-1.22-9.1-.43-4.62,4.88-7.42,5.28-5.77-3-8.6-3-5.88,3.38-8.61,3-4.77-4.5-7.42-5.28-6.58,1.59-9.1.43-3.28-5.66-5.62-7.16-6.74-.33-8.85-2.16-1.55-6.34-3.38-8.46-6.38-2.19-7.89-4.54.3-6.52-.87-9.07-5.49-3.89-6.29-6.59S72.7,70.76,72.3,68s-4.17-5.26-4.17-8.1,3.78-5.37,4.17-8.1-2.51-6.28-1.74-8.94,5.14-4.06,6.29-6.58-.63-6.73.87-9.07,6.07-2.43,7.9-4.54S86.89,16,89,14.18s6.49-.63,8.85-2.14,3.07-6,5.62-7.17,6.39,1.23,9.09.44S117.19.43,120,0s5.77,3,8.61,3,5.87-3.38,8.6-3,4.77,4.5,7.42,5.28,6.57-1.59,9.1-.44S157,10.53,159.33,12s6.74.32,8.85,2.15,1.55,6.34,3.38,8.45,6.38,2.19,7.89,4.54-.3,6.52.87,9.07,5.5,3.89,6.29,6.58-2.13,6.15-1.74,8.94S189,57,189,59.87Z"/><path class="cls-2" d="M219.1,41.51c1.47,1.48,4.5,4.9,5.22,5.79l-2.95,4.36c-.54-1.08-1.41-2.45-2.27-3.81v11.8h-5.26V48.71a27.07,27.07,0,0,1-4.25,7.2A25.21,25.21,0,0,0,207,51a29.74,29.74,0,0,0,5.58-9.9h-4.86V36.25h6.12V32.37c-1.58.25-3.17.46-4.68.64A17.15,17.15,0,0,0,207.72,29a62.28,62.28,0,0,0,13.07-3.17l3.35,4.1c-1.55.54-3.28,1-5,1.44v4.93h4.68v4.83H219.1Zm20.52-12.63V57.6h-5.4V55h-4.54v2.81h-5.11v-29ZM234.22,50V33.88h-4.54V50Z"/><path class="cls-2" d="M269.1,52.13a35,35,0,0,0,9.29,3.09A22.38,22.38,0,0,0,275,59.58,29.53,29.53,0,0,1,263.41,53v6.73h-5.14v-6.4A29.74,29.74,0,0,1,247,59.47a26,26,0,0,0-3.42-4.35,36.89,36.89,0,0,0,8.78-3h-7.7V47.66h13.61v-1H248.15V33.81H274V46.62H263.41v1h14.15v4.47Zm-17-20.37H245V27.22h7.16V25.49h5.11v1.73h7.38V25.49h5.11v1.73h7.49v4.54h-7.49v1.36H264.6V31.76h-7.38v1.36h-5.11Zm.94,6.76h5.22V37.41h-5.22Zm5.22,4.5V41.87h-5.22V43Zm10.54-5.61h-5.4v1.11h5.4Zm0,4.46h-5.4V43h5.4Z"/><path class="cls-2" d="M314.49,46.33h-14v7.49c0,2.81-.62,4.21-2.56,5s-4.54,1-7.74.94A20.55,20.55,0,0,0,288,54.4c2.3.1,5.15.1,6,.1s1.05-.18,1.05-.79V46.33h-14V41.08h14V35.39h2.52a40,40,0,0,0,3.78-2.7H284.75V27.54h21.93l1.18-.28,4,3a59.24,59.24,0,0,1-11.37,9.18v1.62h14Z"/><path class="cls-2" d="M330.12,27.26a60.35,60.35,0,0,1-3.31,7.3V59.65h-5.3v-17c-.5.61-1,1.15-1.51,1.69a35.25,35.25,0,0,0-2.8-5.65A36.44,36.44,0,0,0,325,25.64Zm12,9v3h8.78V44h-8.78v3.24h9.25v4.86h-9.25v7.6h-5.4V36.25h-.68a38.7,38.7,0,0,1-4.57,6.7,33.21,33.21,0,0,0-4-3.67c3.13-3.17,5.93-8.35,7.52-13.5l5,1.33c-.47,1.41-1,2.81-1.62,4.18h13.42v5Z"/><path class="cls-2" d="M364.84,27.18a52.5,52.5,0,0,0-1.29,6c1.83-2.23,4.6-4.43,8.31-4.43,5.11,0,9.22,4.9,9.22,13,0,10.19-6.16,15.23-15.95,17l-3.27-5c8-1.26,13.31-3.56,13.31-12,0-5.4-1.8-7.92-4.32-7.92-4.06,0-7.52,6.26-7.52,10.94a29.34,29.34,0,0,0,.22,3.42l-5.33.36a40.79,40.79,0,0,1-.47-6.08A85.08,85.08,0,0,1,358.69,31a35.77,35.77,0,0,0,.29-4.1Z"/><path class="cls-2" d="M390.87,30.93c3.34-.29,8.74-.72,15.26-1.3,3.56-.29,7.77-.5,10.36-.61l0,5.54a46,46,0,0,0-6.84.43,9.92,9.92,0,0,0-7.16,9.26c0,5.25,4.93,7.3,11.08,7.66l-2,6c-8-.61-14.76-4.93-14.76-12.52A14.54,14.54,0,0,1,401.34,35c-3.06.33-9.32,1-13.61,2l-.54-5.86C388.63,31.07,390.18,31,390.87,30.93Zm23.5,11.44-3.2,1.41a28.6,28.6,0,0,0-2.74-4.93l3.13-1.3A48.07,48.07,0,0,1,414.37,42.37Zm4.25-1.87L415.45,42a29.72,29.72,0,0,0-2.92-4.78l3.1-1.41C416.57,37.12,417.9,39.21,418.62,40.5Z"/><path class="cls-2" d="M443,40.25c2.34,6.51,6.51,11.77,13.14,14.33a22.48,22.48,0,0,0-3.89,5c-6.34-2.91-10.3-7.7-13.07-14.07a24.86,24.86,0,0,1-13,14.07,16.18,16.18,0,0,0-4-4.46c7.89-3.56,11.2-9,12.64-14.83H423V34.81h12.78c.25-3.16.22-6.33.25-9.32h5.76c0,3-.07,6.16-.36,9.32h13.83v5.44Z"/><path class="cls-2" d="M469.42,47.56c.54,0,.65-.8.76-4.47a13.23,13.23,0,0,0,4.61,2.13c-.51,5.43-1.77,7.3-4.83,7.3h-2.55c-3.78,0-4.72-1.58-4.72-6.73V40.54l-3.06.57-.82-4.86,3.88-.68v-9h5.19v8l6.37-1.15.83,4.75-7.2,1.34v6.22c0,1.59,0,1.77.54,1.77ZM492.71,27.9s0,1.91-.07,2.59c-.36,17.75-.68,24.12-2.05,26.17A5.15,5.15,0,0,1,487,59.18a26.41,26.41,0,0,1-5.3.22,13.67,13.67,0,0,0-1.65-5.4c1.76.14,3.31.14,4.17.14a1.49,1.49,0,0,0,1.41-.75c.93-1.19,1.29-6.84,1.55-20.52h-4.47c-.25,11.59-1.15,21.24-9.82,27.07a14.77,14.77,0,0,0-3.68-4.25c7.71-4.82,8.1-12.74,8.25-22.82h-4.9v-5Z"/><path class="cls-2" d="M506,28.52a37.46,37.46,0,0,0-1,3.63,93.9,93.9,0,0,0-1.69,12.71,6.05,6.05,0,0,0,0,.83c.46-1,.9-1.73,1.36-2.74l2.63,2a92.83,92.83,0,0,0-2.59,9.18,11.21,11.21,0,0,0-.22,1.69c0,.4,0,1.05,0,1.62l-5,.33a45.53,45.53,0,0,1-1.44-11.74,101.24,101.24,0,0,1,1.41-14c.14-1.08.39-2.7.43-4Zm8.42,17.78a12.06,12.06,0,0,0-.36,2.84c0,1.58,1.48,2.16,4.39,2.16a42.54,42.54,0,0,0,9-.94l.11,5.84a51.38,51.38,0,0,1-9.39.68c-6.23,0-9.33-2.34-9.33-6.12a21.78,21.78,0,0,1,.65-4.89Zm12-15.66v5.58a109.13,109.13,0,0,1-15.66,0l0-5.54A82.14,82.14,0,0,0,526.41,30.64Z"/><path class="cls-2" d="M559.79,35.32c-1.66.47-3.6,1-5.69,1.4,1.33,2.88,2.92,5.91,4.5,8.64l-3,3.24c-2.16-.43-5.68-1-8.53-1.4l.47-4.43c1.12.11,2.74.25,3.74.29-.75-1.55-1.72-3.42-2.66-5.44a83.94,83.94,0,0,1-15,0l-.18-5.51a61.82,61.82,0,0,0,12.88.43l-.54-1.19a22.14,22.14,0,0,0-1.91-3.63L550,26.5a53.93,53.93,0,0,0,1.91,5.22,53.3,53.3,0,0,0,6.84-1.8Zm-19.12,9.43a16.32,16.32,0,0,0-1,4.14c0,2.3.87,4,5.76,4a41.71,41.71,0,0,0,9.9-1.05l-.11,5.69a50.4,50.4,0,0,1-9.79.9c-7.45,0-11.41-2.73-11.41-8a28.13,28.13,0,0,1,1-6.08Z"/><path class="cls-2" d="M598.2,54.68a9.79,9.79,0,0,1-6.8,2.52c-2.84,0-4.75-2.16-4.75-5.9s1.26-8.67,1.26-11.81c0-1.58-.83-2.44-2.16-2.44-2.45,0-6.08,3.16-8.82,6.19,0,.75,0,1.51,0,2.23,0,2.7,0,6.19.26,9.61,0,.65.18,2.2.28,3.06h-5.9c.07-.9.11-2.38.11-3,0-2.16.07-4,.14-6.3-1.36,2-2.8,4.17-3.78,5.51l-3.34-4.76c2-2.48,5.36-6.8,7.48-9.86l.11-1.91c-1.83.22-4.32.54-6.23.8l-.54-5.51c1.16,0,2.06,0,3.53,0,1-.07,2.27-.18,3.6-.39.07-1.12.11-2,.11-2.38a20,20,0,0,0-.18-3.49l6.26.18c-.25,1.12-.54,2.92-.83,5.08l1.37,1.79c-.47.62-1.29,1.88-1.94,2.81v.11c2.81-2.34,6.66-4.93,10-4.93,4.13,0,6,2.48,6,5.54,0,3.75-1.12,8.5-1.12,12.24a1.08,1.08,0,0,0,1.12,1.22,6.81,6.81,0,0,0,4.14-2.3Z"/><path class="cls-2" d="M603.2,30.93c3.35-.29,8.75-.72,15.26-1.3,3.57-.29,7.78-.5,10.37-.61l0,5.54A46,46,0,0,0,622,35a9.91,9.91,0,0,0-7.17,9.26c0,5.25,4.93,7.3,11.09,7.66l-2,6C616,57.31,609.18,53,609.18,45.4A14.57,14.57,0,0,1,613.67,35c-3,.33-9.32,1-13.6,2l-.54-5.86C601,31.07,602.52,31,603.2,30.93Z"/><path class="cls-2" d="M215.93,84.13c0,2.34,0,4.68.22,7.06.43,4.68,1.15,8,3.2,8,1.65,0,2.92-4.46,3.42-6.87l4.36,5.33c-2.49,6.29-4.76,8.53-7.89,8.53-4.21,0-7.7-3.6-8.71-13.36-.36-3.38-.4-7.45-.4-9.72a21.25,21.25,0,0,0-.32-3.85l6.62.07A34.37,34.37,0,0,0,215.93,84.13Zm24.55,14.44-5.72,2.19c-.51-5.36-2.24-14.47-6.41-19l5.51-1.8C237.35,84.06,240.19,93.42,240.48,98.57Z"/><path class="cls-2" d="M270.39,80.75c-.93.58-1.83,1.12-2.73,1.73-2,1.36-5.15,3.92-7.09,5.43a11.93,11.93,0,0,1,2.48-.21C269.17,87.7,274,91.62,274,97c0,5.58-4,10.44-13.24,10.44-5,0-9.22-2.34-9.22-6.26,0-3.13,2.88-6,6.91-6,4.36,0,7.16,2.52,7.78,5.9a4.72,4.72,0,0,0,2.08-4.1c0-3.06-3.13-5-7.05-5-5.22,0-9,3.14-12.38,7.31l-3.93-4.07c2.31-1.8,6.45-5.32,8.57-7.05s5.29-4.21,7-5.76c-1.8,0-5.47.18-7.38.32-1.08.07-2.34.18-3.2.33l-.18-5.58a30.54,30.54,0,0,0,3.63.21c1.91,0,9-.1,11.16-.28a18.76,18.76,0,0,0,3.17-.44Zm-9.14,21.7c-.18-2-1.26-3.24-2.77-3.24-1.15,0-1.84.69-1.84,1.41,0,1.11,1.19,1.91,3,1.91C260.21,102.53,260.75,102.49,261.25,102.45Z"/><path class="cls-2" d="M287.19,94.18a14.23,14.23,0,0,0-.54,3.38c0,2,1.83,3.53,6.66,3.53A53.72,53.72,0,0,0,306,99.68l0,6.12A58.19,58.19,0,0,1,293.52,107c-8.67,0-12.7-2.95-12.7-8.06a25.5,25.5,0,0,1,.68-5.26ZM283.3,78.66a94.36,94.36,0,0,0,9.86.43c3.57,0,7.92-.21,10.73-.5v5.79c-2.52.22-7.23.44-10.69.44-3.82,0-6.95-.18-9.9-.4Z"/><path class="cls-2" d="M337.89,84.56c-1.26.76-2.55,1.44-4,2.16a98.09,98.09,0,0,0-9.43,5c-2.78,1.8-4.76,3.71-4.76,6s2.27,3.45,6.84,3.45a61.53,61.53,0,0,0,11.77-1.36l-.07,6.22a67.74,67.74,0,0,1-11.55.9c-7.35,0-13-2-13-8.56,0-4.07,2.52-7,5.8-9.47-1.66-3.06-3.31-6.7-4.9-10.44L320,76.29a74.88,74.88,0,0,0,4.28,9.5c2.63-1.51,5.33-2.92,6.88-3.82a24.48,24.48,0,0,0,3.7-2.41Z"/><path class="cls-2" d="M359.24,99.9c.07-.9.14-2.23.18-3.56-2.23,1.29-3.21,2.44-3.21,3.88s1.12,2.13,4.47,2.13A53.41,53.41,0,0,0,371,101.23l-.18,5.58a95.22,95.22,0,0,1-10.29.61c-5.87,0-10.08-1.51-10.08-6.26s4.25-7.63,8.21-9.72a2.68,2.68,0,0,0-1.95-.72,8.54,8.54,0,0,0-5.25,2.38,41.9,41.9,0,0,0-3.31,4l-4.61-3.46a32.84,32.84,0,0,0,7.63-9.18c-1.48,0-4.07-.07-5.94-.25v-5a46.1,46.1,0,0,0,6.41.43h1.4a20,20,0,0,0,.61-3.89l5.69.47a29.24,29.24,0,0,1-.79,3.24,82,82,0,0,0,9.61-1l0,5c-3.34.44-7.7.76-11.51.9a20.84,20.84,0,0,1-1.37,2.52,17.6,17.6,0,0,1,3.53-.36,5.21,5.21,0,0,1,4.75,2.52c1.44-.68,2.59-1.15,3.85-1.72,1.55-.69,3-1.37,4.53-2.09l2.13,5c-1.26.36-3.49,1.18-4.86,1.72s-3.1,1.19-5,2c0,1.94.11,4.35.14,5.94Z"/><path class="cls-2" d="M410.13,85.82a40.25,40.25,0,0,1-3.6,12.89,16.8,16.8,0,0,0,6.09,5.44,20.35,20.35,0,0,0-3.64,4.57,19.35,19.35,0,0,1-5.69-5.22,22.83,22.83,0,0,1-7.2,5.36,23.55,23.55,0,0,0-3-4.79,16.82,16.82,0,0,0,7.34-5.54,44,44,0,0,1-2.05-6,14.62,14.62,0,0,1-1.19,1.69,23.91,23.91,0,0,0-2.66-2.56,39.92,39.92,0,0,1-4.86,5V97l6-.43V101c-2,.18-4,.32-6,.47V104c0,2.12-.36,3.31-1.8,4a12.8,12.8,0,0,1-5.47.76,16.41,16.41,0,0,0-1.44-4.43c1.18,0,2.77,0,3.2,0s.61-.11.61-.51v-2l-6.44.47-.51-4.61c2-.1,4.36-.25,7-.39V94.72h1.51c.44-.4.87-.83,1.3-1.3h-1.73a36,36,0,0,1-5,3.46,29.65,29.65,0,0,0-3.45-4,32.09,32.09,0,0,0,3.85-2.23V89.42h1.69c.54-.43,1.08-.86,1.58-1.33h-6.29V83.63H383v-1.8h-3.71V77.47H383v-3h4.82v3h3V80A33.63,33.63,0,0,0,393,75.39l4.83,1.36a46.42,46.42,0,0,1-3.42,6.88h1.51V86A42,42,0,0,0,399,74.45l5.3.83c-.33,1.94-.72,3.85-1.19,5.72h9.1v4.82Zm-22.28-2.19h.69c.43-.58.86-1.19,1.25-1.8h-1.94ZM392,89.17l1.29,1a23.46,23.46,0,0,0,1.48-2.13h-3.6c-.4.47-.76.9-1.15,1.33h1Zm9.86-3.35a44.49,44.49,0,0,0,1.58,6.48,39.26,39.26,0,0,0,1.3-6.48Z"/><path class="cls-2" d="M438.59,89.64c-1.76,1.48-4.75,4.18-5.33,4.82a3.94,3.94,0,0,1,1.37.4,3.74,3.74,0,0,1,1.84,2.34c.32.9.61,2,.9,2.81a2.07,2.07,0,0,0,2.19,1.51,40.45,40.45,0,0,0,7.13-.58l-.36,5.65a61.2,61.2,0,0,1-7.16.47c-3.64,0-5.55-.75-6.45-3.06-.39-1-.75-2.48-1-3.31-.39-1.26-1.15-1.62-1.76-1.62s-1.26.61-2.12,1.51c-1.19,1.26-3.17,3.49-5.87,6.91L416.92,104a37.7,37.7,0,0,0,2.85-2.56c2.08-2.09,8-8,11.08-11.34-2.3,0-5.58.33-7.56.51a31.08,31.08,0,0,0-3.2.46l-.5-5.94c.82.08,2.26.15,3.63.15s9.47-.25,12.6-.65a13,13,0,0,0,2.16-.43l3.13,3.53C440,88.45,439.35,89,438.59,89.64Zm1-12.24-.68,5c-3.85-.29-10.73-1-14.94-1.69l.83-5C428.84,76.43,435.71,77.15,439.56,77.4Z"/><path class="cls-2" d="M451.62,79.92c3.35-.29,8.75-.72,15.26-1.29,3.57-.29,7.78-.51,10.37-.62l0,5.55a43.49,43.49,0,0,0-6.84.43c-3.85.86-7.16,5-7.16,9.25,0,5.25,4.93,7.31,11.08,7.67l-2,6c-8-.61-14.76-4.93-14.76-12.53A14.53,14.53,0,0,1,462.1,84c-3.06.32-9.33,1-13.61,2L448,80.1C449.39,80.07,450.94,80,451.62,79.92Z"/><path class="cls-2" d="M502.8,79.74c-1.33,1-2.56,1.91-3.53,2.67-2.23,1.69-6.69,5.11-8.93,7-1.76,1.51-1.69,1.84,0,3.35,2.34,2,9.36,7.48,12.92,10.87l-5,4.68c-1.15-1.3-2.34-2.52-3.49-3.71-2-2.05-7.09-6.44-10.33-9.21-3.64-3.14-3.42-5.3.36-8.39,2.84-2.31,7.41-6.08,9.83-8.39a26.42,26.42,0,0,0,3.13-3.38Z"/><path class="cls-2" d="M529.62,85.36A58.88,58.88,0,0,1,523,86.47c-.36,1.51-.72,3.1-1.08,4.5a118.68,118.68,0,0,1-5.69,16.6l-6-2c2.12-3.53,4.93-11.12,6.26-16.09.22-.83.47-1.69.65-2.52-.61,0-1.22,0-1.8,0-1.83,0-3.2-.08-4.43-.15l-.14-5.36a38.29,38.29,0,0,0,4.61.29c.93,0,1.91,0,2.84-.08a13,13,0,0,0,.22-1.44,20,20,0,0,0,.11-4l6.58.5c-.29,1.12-.65,2.85-.83,3.68l-.14.61c1.84-.29,3.67-.65,5.47-1.08Zm-.32,11.26a13.17,13.17,0,0,0-.47,2.85c0,1.47.94,2.41,4.07,2.41a45.08,45.08,0,0,0,7.63-.76l-.22,5.51a59,59,0,0,1-7.45.5c-6.23,0-9.36-2.26-9.36-5.9a25,25,0,0,1,.65-5.07Zm-2.77-9.1a70.39,70.39,0,0,1,7.05-.4c2,0,4.14.11,6.3.32l-.11,5.19a50.75,50.75,0,0,0-6.19-.47,53.92,53.92,0,0,0-7.05.4ZM535.6,84a51.22,51.22,0,0,0-2.77-5l3.38-1.37c.9,1.34,2.16,3.68,2.81,4.93Zm4.5-1.76a40.34,40.34,0,0,0-2.85-5l3.39-1.36a51.61,51.61,0,0,1,2.84,4.89Z"/><path class="cls-2" d="M575.07,84.31c-1.66.47-3.6,1-5.69,1.41,1.33,2.88,2.91,5.9,4.5,8.64l-3,3.24c-2.16-.44-5.69-1-8.53-1.41l.47-4.43c1.11.11,2.73.26,3.74.29-.75-1.55-1.73-3.42-2.66-5.43a83.2,83.2,0,0,1-15,0l-.18-5.51a62.69,62.69,0,0,0,12.89.44l-.54-1.19a22.23,22.23,0,0,0-1.91-3.64l6.12-1.19a51.4,51.4,0,0,0,1.91,5.22,53.3,53.3,0,0,0,6.84-1.8ZM556,93.74a16.32,16.32,0,0,0-1,4.14c0,2.31.86,4,5.76,4a42.38,42.38,0,0,0,9.9-1l-.11,5.69a50.49,50.49,0,0,1-9.79.9c-7.45,0-11.41-2.74-11.41-8a28.13,28.13,0,0,1,1-6.08Z"/><path class="cls-2" d="M587.43,84.13c0,2.34,0,4.68.21,7.06.44,4.68,1.16,8,3.21,8,1.65,0,2.91-4.46,3.42-6.87l4.35,5.33c-2.48,6.29-4.75,8.53-7.88,8.53-4.21,0-7.7-3.6-8.71-13.36-.36-3.38-.4-7.45-.4-9.72a21.25,21.25,0,0,0-.32-3.85l6.62.07A33,33,0,0,0,587.43,84.13ZM612,98.57l-5.73,2.19c-.5-5.36-2.23-14.47-6.4-19l5.5-1.8C608.85,84.06,611.69,93.42,612,98.57Z"/><path class="cls-3" d="M76.39,39.91A38.93,38.93,0,1,1,28.36,13,38.92,38.92,0,0,1,76.39,39.91Z"/><polyline class="cls-3" points="60.16 76.47 87.96 79.61 67.91 58.55"/><path class="cls-4" d="M25.48,32.93a.46.46,0,0,1-.4.62l-8.92,1.78A11.19,11.19,0,0,1,14,39.09a.48.48,0,0,1-.27.17c-.21,0-.31-.08-.31-.35a39.93,39.93,0,0,0-.76-8.61q-.07-.37.33-.42l3.52-.46a.64.64,0,0,1,.8.56.62.62,0,0,1-.41.71.17.17,0,0,0-.1.18,32.49,32.49,0,0,1-.38,3.33l4.66-.92,1.13-1.79a.65.65,0,0,1,.42-.33.73.73,0,0,1,.55.14l1.88,1.18A.74.74,0,0,1,25.48,32.93Zm1.1,7a.47.47,0,0,1-.43.63l-4.37.87q.36,5.22-5.1,8.47a1.19,1.19,0,0,1-.69.24c-.11,0-.18-.05-.2-.18a.39.39,0,0,1,.05-.28,13,13,0,0,0,2.5-7.56l-3.9.78a.54.54,0,0,1-.21-1.06l4-.8c-.07-.53-.36-2-.86-4.43a.65.65,0,0,1,.21-.31l2.95-.45c.53-.09.84.06.91.44a.65.65,0,0,1-.27.71.19.19,0,0,0-.07.18c.15.74.33,1.8.55,3.18l1-.19.91-1.52a.66.66,0,0,1,.42-.34.82.82,0,0,1,.55.14l1.66,1A.72.72,0,0,1,26.58,40ZM26.45,47a1.24,1.24,0,0,1-1.35-.47,13.81,13.81,0,0,0-2.53-2.4.45.45,0,0,1-.19-.26c-.07-.31.09-.5.46-.56a7.19,7.19,0,0,1,2.82.13,2.33,2.33,0,0,1,1.92,1.8,1.54,1.54,0,0,1-.19,1.14A1.34,1.34,0,0,1,26.45,47ZM37.34,31.47a.6.6,0,0,1,.21.37.58.58,0,0,1-.07.45l-.47.56,1.4,7.69a1,1,0,0,1-.78,1.33l-1.81.52a.43.43,0,0,1-.4-.1.47.47,0,0,1-.24-.35L35,41.1l-3,.6.07.34a1,1,0,0,1-.65,1.25l-1.74.6c-.46.16-.75,0-.85-.52L26.53,32.72a.39.39,0,0,1,.09-.36.33.33,0,0,1,.34-.11l3,.68,3.18-.63,1.22-1.72a.66.66,0,0,1,.44-.26.65.65,0,0,1,.51.07ZM33.6,33.28l-3.29.66,1.47,6.74,3.06-.61Z"/><path class="cls-4" d="M49.83,30.05a.28.28,0,0,1,.09.17,1.67,1.67,0,0,1-.23.79l-1.08,2.4A2.14,2.14,0,0,0,48.52,35c.34,1.08.06,1.77-.85,2.06a1.88,1.88,0,0,1-1.88-.39A3.58,3.58,0,0,1,44.69,35a35.92,35.92,0,0,1-1-4c-.32-1.63-.65-3.7-1-6.21,0-.27.1-.42.4-.46l3.1-.35c.42,0,.65.11.7.47a.6.6,0,0,1-.33.66.18.18,0,0,0-.09.13,51.62,51.62,0,0,0,1.08,6.63c0,.21.15.21.32,0l1.19-1.47C49.4,30,49.65,29.89,49.83,30.05Zm4.91-4a.63.63,0,0,1-.15.66.22.22,0,0,0,0,.14A40.62,40.62,0,0,1,56,33.12q.77,7.56-7.48,11.64-.65.33-.84.06t.21-.75a17.94,17.94,0,0,0,3.89-5.73,10.7,10.7,0,0,0,.41-4.82,36.45,36.45,0,0,0-1.59-6.61.35.35,0,0,1,.29-.47l3-.69C54.33,25.63,54.63,25.75,54.74,26.09Z"/><path class="cls-4" d="M34.87,55.75a.47.47,0,0,1-.43.6l-8,1.6.62,13.7a1.43,1.43,0,0,1-1.41,1.7l-1.28.15c-.43,0-.7-.19-.8-.72a1.91,1.91,0,0,1-.06-.42L23,58.62l-3.66.73a.55.55,0,1,1-.22-1.08L23,57.51l-.26-4.76a.33.33,0,0,1,.36-.4l3-.18a.54.54,0,0,1,.65.5.49.49,0,0,1-.38.57.16.16,0,0,0-.09.12l.15,3.48L30,56.11l1.35-2a.7.7,0,0,1,.45-.33.72.72,0,0,1,.55.13l2,1.35A1,1,0,0,1,34.87,55.75Zm4.89,4a.62.62,0,0,1-.57.82l-.76.16L35.54,63.8a.81.81,0,0,1-.3.14.28.28,0,0,1-.38-.25.55.55,0,0,1,0-.22l.19-2.37-3.79.76c-.39.08-.62-.06-.69-.41a.51.51,0,0,1,.44-.67L35,60l1.34-1.66a.85.85,0,0,1,.48-.34.72.72,0,0,1,.51.12l1.93,1.14C39.57,59.45,39.74,59.61,39.76,59.73Zm1.45,7.92a2.7,2.7,0,0,1,.18.52c.16.82-.26,1.45-1.27,1.89a10.08,10.08,0,0,1-3.76.91,4.14,4.14,0,0,1-4.51-3.29c-.12-.41-.08-.67.12-.79s.33,0,.61.21a4.72,4.72,0,0,0,1.06.66,3.62,3.62,0,0,0,2,.13,10.14,10.14,0,0,0,2.89-1.15,2.28,2.28,0,0,1,.71-.28A1.71,1.71,0,0,1,41.21,67.65Z"/><path class="cls-4" d="M54.74,58.58c0,.19-.08.45-.36.76L52,62a1.26,1.26,0,0,0,0,1.46,2.28,2.28,0,0,1,.2.59c.18.89-.3,1.43-1.43,1.62a2.7,2.7,0,0,1-2.85-1.54,19.09,19.09,0,0,1-2.27-6.31c-.2-1-.41-2.36-.64-4,0-.22.06-.33.23-.35L48.47,53c.39-.06.61.09.66.44a.53.53,0,0,1-.29.61q-.08,0-.06.09a24.58,24.58,0,0,0,1.45,6.34c.13.3.37.33.7.08l2.87-2.08a.49.49,0,0,0,.14-.11,1.07,1.07,0,0,1,.36-.15C54.54,58.21,54.69,58.32,54.74,58.58ZM65,56.9c.33,1.65-.17,2.61-1.49,2.87a1.46,1.46,0,0,1-1.82-1.2,15.25,15.25,0,0,0-1.19-3.1,9,9,0,0,0-3-2.83c-.29-.17-.39-.38-.29-.62s.26-.26.6-.29A7,7,0,0,1,65,56.9Z"/><path class="cls-5" d="M131.7,51.81a29.3,29.3,0,0,1-.91,7.06,38.34,38.34,0,0,1-2.62,7.33A40,40,0,0,1,124,73.11a31.57,31.57,0,0,1-5.53,5.77,26.28,26.28,0,0,1-6.76,4A20.45,20.45,0,0,1,104,84.33a13.58,13.58,0,0,1-5.8-1.19,12.67,12.67,0,0,1-4.39-3.35A15.37,15.37,0,0,1,91,74.57a22.1,22.1,0,0,1-1-6.81,27.47,27.47,0,0,1,.94-6.91,36.23,36.23,0,0,1,2.67-7.15A41.84,41.84,0,0,1,97.79,47a32.48,32.48,0,0,1,5.54-5.63A26.92,26.92,0,0,1,110,37.46,20.12,20.12,0,0,1,117.62,36a13.77,13.77,0,0,1,5.72,1.17,13.27,13.27,0,0,1,4.47,3.25,14.5,14.5,0,0,1,2.88,5A19.12,19.12,0,0,1,131.7,51.81Zm-9.77,0q0-3.69-1.35-5.3a4.35,4.35,0,0,0-3.48-1.62,12.51,12.51,0,0,0-6.52,1.9,20.43,20.43,0,0,0-5.58,5,26.56,26.56,0,0,0-3.93,7.2,24,24,0,0,0-1.48,8.31,21,21,0,0,0,.26,3.28,10,10,0,0,0,.91,2.9,5.48,5.48,0,0,0,1.77,2.09,5,5,0,0,0,2.88.78,10.39,10.39,0,0,0,5-1.23,15.32,15.32,0,0,0,4.13-3.24,22.19,22.19,0,0,0,3.22-4.63A36.22,36.22,0,0,0,120.06,62a37.07,37.07,0,0,0,1.41-5.37A27.9,27.9,0,0,0,121.93,51.81Z"/><path class="cls-5" d="M141.94,78c1-1.57,1.85-3.06,2.65-4.5s1.55-2.83,2.26-4.18l2.08-4q1-1.95,2.1-3.92l7.12-12.94-2.26.89-3.37,1.32L149.14,52c-1,.42-1.8.7-2.21.84a.75.75,0,0,1-.39.12l-.34,0a2,2,0,0,1-1.48-.7,2.57,2.57,0,0,1-.65-1.84,4.78,4.78,0,0,1,.63-2.19,8.22,8.22,0,0,1,2.23-2.49q3.48-2.34,7-4.21c1-.52,2-1,3.07-1.53s2.14-1,3.19-1.35a27.1,27.1,0,0,1,3.12-1,12.47,12.47,0,0,1,2.84-.36,4.42,4.42,0,0,1,2.62.8,3.22,3.22,0,0,1,1.12,2.78,11.42,11.42,0,0,1-.11,1.44,5.8,5.8,0,0,1-.52,1.69q-.78,1.6-1.9,4.13c-.74,1.68-1.55,3.51-2.41,5.5s-1.78,4.1-2.73,6.32-1.9,4.4-2.86,6.54-1.88,4.21-2.78,6.16-1.71,3.68-2.44,5.17a12.68,12.68,0,0,1-1.85,2.76,12.08,12.08,0,0,1-2.23,2,9.64,9.64,0,0,1-2.41,1.23,7.36,7.36,0,0,1-2.34.41,4.71,4.71,0,0,1-2.84-.85,3,3,0,0,1-1.17-2.58,10.42,10.42,0,0,1,.11-1.35A3.64,3.64,0,0,1,141.94,78Z"/><rect class="cls-6" y="1.44" width="670" height="117"/></g></g></svg>