<svg xmlns="http://www.w3.org/2000/svg" viewBox="0 0 670 119.77"><defs><style>.cls-1{fill:#fff23f;}.cls-2{fill:#231815;}.cls-3{fill:#89c681;}.cls-4{fill:#fff;}.cls-5{fill:#87c796;}.cls-6{fill:none;}</style></defs><g id="レイヤー_2" data-name="レイヤー 2"><g id="contents"><path class="cls-1" d="M189,59.87c0,2.84-3.78,5.37-4.17,8.1s2.52,6.29,1.74,8.94-5.13,4.07-6.29,6.59.64,6.73-.87,9.07-6.06,2.44-7.89,4.55-1.27,6.62-3.38,8.45-6.5.64-8.85,2.16-3.07,6-5.62,7.16-6.4-1.22-9.1-.43-4.62,4.88-7.42,5.28-5.77-3-8.6-3-5.88,3.38-8.61,3-4.77-4.5-7.42-5.28-6.58,1.59-9.1.43-3.28-5.66-5.62-7.16-6.74-.33-8.85-2.16-1.55-6.34-3.38-8.46-6.38-2.19-7.89-4.54.3-6.52-.87-9.07-5.49-3.89-6.29-6.59S72.7,70.76,72.3,68s-4.17-5.26-4.17-8.1,3.78-5.37,4.17-8.1-2.51-6.28-1.74-8.94,5.14-4.06,6.29-6.58-.63-6.73.87-9.07,6.07-2.43,7.9-4.54S86.89,16,89,14.18s6.49-.63,8.85-2.14,3.07-6,5.62-7.17,6.39,1.23,9.09.44S117.19.43,120,0s5.77,3,8.61,3,5.87-3.38,8.6-3,4.77,4.5,7.42,5.28,6.57-1.59,9.1-.44S157,10.53,159.33,12s6.74.32,8.85,2.15,1.55,6.34,3.38,8.45,6.38,2.19,7.89,4.54-.3,6.52.87,9.07,5.5,3.89,6.29,6.58-2.13,6.15-1.74,8.94S189,57,189,59.87Z"/><path class="cls-2" d="M221.87,30a30.42,30.42,0,0,1,6.26-.76c5.62,0,10.3,2.92,10.3,8.18,0,4.17-1.91,7.59-8,9.14a33.62,33.62,0,0,1-4.82.61l-2-5.58a27.55,27.55,0,0,0,4.46-.25c2.74-.47,4.75-1.77,4.75-4S231,34,228.06,34a24.87,24.87,0,0,0-6.08.79c.07,2.7.14,5.18.14,6.26,0,5-1.8,6.26-4.35,6.26-3.86,0-8.93-3.13-8.93-7.23,0-3.2,3.56-6.55,8.06-8.5,0-.93,0-1.87,0-2.77V26.73c-.58,0-1.08,0-1.55,0a50.68,50.68,0,0,1-5.19-.18L210,21.4a41.89,41.89,0,0,0,5.14.25c.54,0,1.12,0,1.7,0V19.35c0-.75-.15-2.81-.26-3.49h5.91c-.11.68-.29,2.52-.36,3.46l-.11,1.83a44.89,44.89,0,0,0,6.15-1.22l.11,5.36c-2,.43-4.24.76-6.4,1,0,.75,0,1.55,0,2.3Zm-4.79,10c0-.69,0-1.88-.07-3.35-1.76,1-2.84,2.16-2.84,3.2,0,.83,1.18,1.55,1.87,1.55S217.08,41.24,217.08,40Zm15.08-20.3a84.4,84.4,0,0,1,9.11,4.93L238.71,29a65,65,0,0,0-8.89-5.11Z"/><path class="cls-2" d="M257.43,16.15a59.32,59.32,0,0,1-3.56,7.38V48.62h-5.18V31.12c-.72.83-1.44,1.62-2.16,2.34A35.92,35.92,0,0,0,243.58,28a37.2,37.2,0,0,0,8.78-13.5Zm12.24,14V42.35h7.81v5H256.07v-5h8.2V30.19h-9.18V25.11h9.18V15.25h5.4v9.86h8.46v5.08Z"/><path class="cls-2" d="M313.61,38.75h-3.78V45H304.5V43.54h-5.26V44c0,2.38-.54,3.39-2.08,4.11s-3.53.72-6.63.72a15.19,15.19,0,0,0-1.69-4c1.48.08,3.6.08,4.18.08s.9-.26.9-.87v-.43H283.37V39.83h10.55V38.75h-14V34.83h14v-1h-10.3V30.4h10.3V29.32h-9.51V21.69h9.51V20.61H280.78V16.54h13.14v-2h5.32v2h13.47v4.07H299.24v1.08h9.94v7.63h-9.94V30.4h10.59v4.43h3.78ZM293.92,26.12V24.89h-4.5v1.23Zm5.32-1.23v1.23h4.57V24.89Zm0,9.94h5.26v-1h-5.26Zm5.26,3.92h-5.26v1.08h5.26Z"/><path class="cls-2" d="M333,39.9c.07-.9.15-2.23.18-3.56-2.23,1.3-3.2,2.45-3.2,3.89s1.11,2.12,4.46,2.12a53.41,53.41,0,0,0,10.37-1.11l-.18,5.58a98.26,98.26,0,0,1-10.3.61c-5.86,0-10.08-1.51-10.08-6.27s4.25-7.63,8.21-9.71a2.67,2.67,0,0,0-1.94-.72,8.56,8.56,0,0,0-5.26,2.37,44.83,44.83,0,0,0-3.31,4l-4.61-3.45A32.64,32.64,0,0,0,325,24.5c-1.47,0-4.06-.07-5.93-.25v-5a45.83,45.83,0,0,0,6.4.44h1.41a21.64,21.64,0,0,0,.61-3.89l5.69.47a32.16,32.16,0,0,1-.8,3.23,79.47,79.47,0,0,0,9.61-1l0,5c-3.35.43-7.7.76-11.52.9a19.54,19.54,0,0,1-1.37,2.52,16.9,16.9,0,0,1,3.53-.36,5.17,5.17,0,0,1,4.75,2.52c1.44-.68,2.59-1.15,3.85-1.73,1.55-.68,3-1.37,4.54-2.09l2.12,5c-1.26.36-3.49,1.19-4.86,1.73s-3.09,1.19-5,2c0,1.94.1,4.35.14,5.93Z"/><path class="cls-2" d="M379.69,24.32c-1.65.47-3.6,1-5.69,1.4,1.34,2.88,2.92,5.91,4.5,8.64l-3,3.24c-2.16-.43-5.69-1-8.53-1.4l.46-4.43c1.12.11,2.74.25,3.75.29-.76-1.55-1.73-3.42-2.67-5.44a83.94,83.94,0,0,1-15,0l-.18-5.51a61.89,61.89,0,0,0,12.89.43l-.54-1.19a22.14,22.14,0,0,0-1.91-3.63l6.12-1.19a51.21,51.21,0,0,0,1.9,5.22,52.45,52.45,0,0,0,6.84-1.8Zm-19.11,9.43a15.91,15.91,0,0,0-1,4.14c0,2.3.86,4,5.76,4a41.54,41.54,0,0,0,9.89-1.05l-.1,5.69a50.58,50.58,0,0,1-9.79.9c-7.46,0-11.41-2.73-11.41-8a28.06,28.06,0,0,1,1-6.08Z"/><path class="cls-2" d="M418.11,43.68a9.84,9.84,0,0,1-6.81,2.52c-2.84,0-4.75-2.16-4.75-5.9s1.26-8.67,1.26-11.81c0-1.58-.83-2.44-2.16-2.44-2.44,0-6.08,3.16-8.82,6.19,0,.75,0,1.51,0,2.23,0,2.7,0,6.19.25,9.61,0,.65.18,2.2.29,3.06h-5.91c.08-.9.11-2.38.11-3,0-2.16.07-4,.15-6.3-1.37,2-2.81,4.17-3.78,5.51l-3.35-4.76c2-2.48,5.36-6.8,7.49-9.86l.1-1.91c-1.83.22-4.32.54-6.22.8l-.54-5.51c1.15,0,2.05,0,3.52,0,1-.07,2.27-.18,3.6-.39.08-1.12.11-2,.11-2.38a19,19,0,0,0-.18-3.49l6.27.18c-.26,1.12-.54,2.92-.83,5.08l1.37,1.79c-.47.62-1.3,1.88-1.95,2.81v.11c2.81-2.34,6.66-4.93,10-4.93,4.14,0,6,2.48,6,5.54,0,3.75-1.11,8.5-1.11,12.24a1.07,1.07,0,0,0,1.11,1.22,6.78,6.78,0,0,0,4.14-2.3Z"/><path class="cls-2" d="M423.1,19.93c3.35-.29,8.75-.72,15.27-1.3,3.56-.29,7.77-.5,10.36-.61l0,5.54a46,46,0,0,0-6.84.43,9.92,9.92,0,0,0-7.16,9.26c0,5.25,4.93,7.3,11.08,7.66l-2,6c-8-.61-14.76-4.93-14.76-12.52A14.54,14.54,0,0,1,433.58,24c-3.06.33-9.32,1.05-13.61,2l-.54-5.86C420.87,20.07,422.42,20,423.1,19.93Z"/><path class="cls-2" d="M461,24.14c0,2.34,0,4.68.21,7.05.44,4.68,1.16,8,3.21,8,1.65,0,2.91-4.46,3.42-6.88l4.35,5.33c-2.48,6.3-4.75,8.53-7.88,8.53-4.21,0-7.7-3.6-8.71-13.35-.36-3.39-.4-7.45-.4-9.72a21.25,21.25,0,0,0-.32-3.85l6.62.07A32.82,32.82,0,0,0,461,24.14Zm24.55,14.43-5.73,2.2c-.5-5.36-2.23-14.47-6.4-19l5.5-1.8C482.42,24.07,485.27,33.43,485.56,38.57Z"/><path class="cls-2" d="M491.89,19.93c3.35-.29,8.75-.72,15.26-1.3,3.57-.29,7.78-.5,10.37-.61l0,5.54a46,46,0,0,0-6.84.43,9.93,9.93,0,0,0-7.17,9.26c0,5.25,4.94,7.3,11.09,7.66l-2,6c-8-.61-14.76-4.93-14.76-12.52A14.54,14.54,0,0,1,502.37,24c-3.06.33-9.33,1.05-13.61,2l-.54-5.86C489.66,20.07,491.21,20,491.89,19.93Z"/><path class="cls-2" d="M555.3,34.79v3.89H521.89V34.79h7.92a14.61,14.61,0,0,0-.72-1.58l1.66-.4h-3.6V25.36h23.47v7.45h-1.8a22.64,22.64,0,0,1-1.34,2ZM535.82,20h-12.6V16.4h12.6v-2h5.33v2H554V20H541.15v.9h10.91v3.53H525.63V20.93h10.19Zm-9.43,19.55h25v9.11h-5.4v-.87h-14.4v.87h-5.15ZM531.54,43V44.4h14.4V43Zm.57-13.24h13.22V28.49H532.11Zm2.24,3.09a13.82,13.82,0,0,1,.86,2h6.84c.25-.64.54-1.33.75-2Z"/><path class="cls-2" d="M582.79,17.91a29.76,29.76,0,0,0,7.7,14.8l-4,4.28q-1.29-1.73-2.59-3.78c.11,7.74-3.89,15-13.17,15-6.09,0-10.4-3.88-10.4-10.22a22.22,22.22,0,0,1,5.14-13.5c-1.11.11-2.7.36-3.89.61-.75.15-1.29.29-2.16.51L558.67,20c.68,0,1.4,0,2.09-.1a68.23,68.23,0,0,0,12.41-2.09l1.62,4.75a9.86,9.86,0,0,0-1.72.86c-2.56,2.06-7.2,8.1-7.2,13.75A4.78,4.78,0,0,0,571,42.32c6.66,0,10.4-8,7.31-20.92-.26-.61-.47-1.22-.72-1.87Zm2.12,4.21A37.74,37.74,0,0,0,583,16.8l3.17-1a50.48,50.48,0,0,1,1.87,5.3Zm4.1-1.33a39.51,39.51,0,0,0-1.94-5.29l3.06-1a43.93,43.93,0,0,1,2,5.29Z"/><path class="cls-2" d="M610.68,39.9c.07-.9.14-2.23.18-3.56-2.23,1.3-3.2,2.45-3.2,3.89s1.11,2.12,4.46,2.12a53.5,53.5,0,0,0,10.37-1.11l-.18,5.58a98.26,98.26,0,0,1-10.3.61c-5.87,0-10.08-1.51-10.08-6.27s4.25-7.63,8.21-9.71a2.67,2.67,0,0,0-1.94-.72,8.56,8.56,0,0,0-5.26,2.37,43.18,43.18,0,0,0-3.31,4L595,33.68a32.81,32.81,0,0,0,7.63-9.18c-1.47,0-4.07-.07-5.94-.25v-5a46.08,46.08,0,0,0,6.41.44h1.4a21,21,0,0,0,.62-3.89l5.68.47a29.17,29.17,0,0,1-.79,3.23,79.47,79.47,0,0,0,9.61-1l0,5c-3.35.43-7.71.76-11.52.9a19.54,19.54,0,0,1-1.37,2.52,16.9,16.9,0,0,1,3.53-.36A5.18,5.18,0,0,1,615,29.07c1.44-.68,2.59-1.15,3.85-1.73,1.55-.68,3-1.37,4.54-2.09l2.12,5c-1.26.36-3.49,1.19-4.86,1.73s-3.1,1.19-5,2c0,1.94.11,4.35.15,5.93Z"/><path class="cls-2" d="M227.34,92.61c1.26,0,1.48-.36,1.66-2.92a14.4,14.4,0,0,0,4.6,1.8c-.57,4.57-2,5.72-5.76,5.72h-5.11c-5.18,0-6.33-1.44-6.33-5.68V87.39h4.86c-.43-.33-.83-.62-1.23-.87l2.45-2h-7.27v-8h10.51v5a19.61,19.61,0,0,0,2.66-2,37.87,37.87,0,0,1-2.44-8.78H214.81v1.47c0,4.57-.72,11.16-4.21,15.26a19.12,19.12,0,0,0-3.81-3.16c3-3.53,3.24-8.53,3.24-12.17V66.65h15.4c-.07-1-.14-2.08-.18-3.16h4.9c0,1.08.07,2.12.18,3.16h2c-.58-.28-1.19-.54-1.73-.75l2.56-2.85a20,20,0,0,1,5,2.38l-1.07,1.22h3v4.11h-9.18a43.76,43.76,0,0,0,1,4.39,21.22,21.22,0,0,0,1.8-4l4.83,1.15a28.34,28.34,0,0,1-4.32,7.88,2.93,2.93,0,0,0,2.08,1.37c.76,0,1-1.19,1.23-4.17a12.1,12.1,0,0,0,3.89,2.26c-.69,5.44-2.17,6.59-5.4,6.59a6.65,6.65,0,0,1-5-2.52A24.43,24.43,0,0,1,228.1,86a28.23,28.23,0,0,0-2.38-2.59v1.15H224.6a20.87,20.87,0,0,1,4,3.42L225,91a18.19,18.19,0,0,0-3.42-3.35v3.81c0,1,.25,1.16,1.84,1.16ZM207.15,94a13.22,13.22,0,0,0,4.28-6.8l4.68,1.65c-.86,3.06-2.2,6.09-4.61,8.1Zm18.61-18.75H215.35V72h10.41Zm-4.25,4.53h-2.16v1.48h2.16Zm14.43,6.77a25.66,25.66,0,0,1,5.48,7.67l-4.79,2.37a25.17,25.17,0,0,0-5.08-7.88Z"/><path class="cls-2" d="M254.19,65.72c-.25,1.69-.46,3.85-.54,5.4-.18,3.74-.43,11.44-.43,15.37,0,3.42,2,4.5,4.39,4.5,5.55,0,9.29-3.24,11.88-7.24l3.93,4.82a18.93,18.93,0,0,1-15.84,8.32c-6.23,0-10.12-2.81-10.12-9,0-4.49.33-14,.33-16.73a26.08,26.08,0,0,0-.54-5.47Zm12.24,8.56-3.85,1.66a32.94,32.94,0,0,0-3.27-5.9l3.74-1.55A59.85,59.85,0,0,1,266.43,74.28Zm5-2.23-3.74,1.8a35.19,35.19,0,0,0-3.46-5.72L268,66.44A49.19,49.19,0,0,1,271.47,72.05Z"/><path class="cls-2" d="M302.68,69.75c-.93.58-1.83,1.12-2.73,1.73-2,1.36-5.15,3.92-7.09,5.43a11.93,11.93,0,0,1,2.48-.21c6.12,0,10.94,3.92,10.94,9.28,0,5.58-4,10.44-13.24,10.44-5,0-9.22-2.34-9.22-6.26,0-3.13,2.88-6,6.91-6,4.36,0,7.17,2.52,7.78,5.9a4.73,4.73,0,0,0,2.09-4.1c0-3.06-3.14-5-7.06-5-5.22,0-9,3.14-12.38,7.31l-3.92-4.07c2.3-1.8,6.44-5.32,8.56-7.05s5.29-4.21,7-5.76c-1.8,0-5.47.18-7.38.32-1.08.07-2.34.18-3.2.33l-.18-5.58a30.67,30.67,0,0,0,3.63.21c1.91,0,9-.1,11.16-.28a18.76,18.76,0,0,0,3.17-.44Zm-9.14,21.7c-.18-2-1.26-3.24-2.77-3.24-1.15,0-1.84.69-1.84,1.41,0,1.11,1.19,1.91,3,1.91C292.5,91.53,293,91.49,293.54,91.45Z"/><path class="cls-2" d="M323.52,90.77h-7v3.35h-4.83V65.61h11.88Zm-7-20.52v5.44h2.19V70.25Zm2.19,15.88V80.22h-2.19v5.91Zm22.72-7.63V81h3.06v4.53h-3.06v6.84c0,2.38-.44,3.68-2,4.43s-3.6.87-6.19.87a18,18,0,0,0-1.62-4.9c1.51.07,3.45.07,4,.07s.72-.11.72-.57V85.51H324.17V81h12.09V78.5H324.17V73.92h7.63V71.55h-6.62v-4.5h6.62v-3.6H337v3.6h6.87v4.5H337v2.37h7.67V78.5ZM329.07,93.83a24,24,0,0,0-3.89-5.94l4.17-2.38a24.33,24.33,0,0,1,4.21,5.73Z"/><path class="cls-2" d="M364.16,88.9c.07-.9.14-2.23.18-3.56-2.23,1.29-3.2,2.44-3.2,3.88s1.11,2.13,4.46,2.13A53.51,53.51,0,0,0,376,90.23l-.18,5.58a95.6,95.6,0,0,1-10.3.61c-5.87,0-10.08-1.51-10.08-6.26s4.25-7.63,8.21-9.72a2.67,2.67,0,0,0-1.94-.72,8.54,8.54,0,0,0-5.26,2.38,41.9,41.9,0,0,0-3.31,4l-4.61-3.46a32.84,32.84,0,0,0,7.63-9.18c-1.47,0-4.07-.07-5.94-.25v-5a46.1,46.1,0,0,0,6.41.43H358a21,21,0,0,0,.62-3.89l5.68.47a29.24,29.24,0,0,1-.79,3.24,82,82,0,0,0,9.61-1l0,5c-3.35.44-7.71.76-11.52.9a19.54,19.54,0,0,1-1.37,2.52,17.6,17.6,0,0,1,3.53-.36,5.2,5.2,0,0,1,4.75,2.52c1.44-.68,2.59-1.15,3.85-1.72,1.55-.69,3-1.37,4.54-2.09l2.12,5c-1.26.36-3.49,1.18-4.86,1.72s-3.1,1.19-5,2c0,1.94.11,4.35.15,5.94Z"/><path class="cls-2" d="M415.05,74.82a40.25,40.25,0,0,1-3.6,12.89,16.8,16.8,0,0,0,6.09,5.44,20.35,20.35,0,0,0-3.64,4.57,19.35,19.35,0,0,1-5.69-5.22A22.9,22.9,0,0,1,401,97.86a24.05,24.05,0,0,0-3-4.79,16.82,16.82,0,0,0,7.34-5.54,44,44,0,0,1-2.05-6,14.62,14.62,0,0,1-1.19,1.69,23.91,23.91,0,0,0-2.66-2.56,39.92,39.92,0,0,1-4.86,5V86l6.05-.43V90c-2,.18-4,.32-6.05.47V93c0,2.12-.36,3.31-1.8,4a12.8,12.8,0,0,1-5.47.76,16.41,16.41,0,0,0-1.44-4.43c1.18,0,2.77,0,3.2,0s.61-.11.61-.51v-2l-6.44.47-.5-4.61c2-.1,4.35-.25,6.94-.39V83.72h1.51c.44-.4.87-.83,1.3-1.3h-1.73a36,36,0,0,1-5,3.46,29,29,0,0,0-3.45-4,31.33,31.33,0,0,0,3.85-2.23V78.42h1.69c.54-.43,1.08-.86,1.58-1.33h-6.29V72.63H388v-1.8h-3.71V66.47H388v-3h4.82v3h3V69a33.63,33.63,0,0,0,2.12-4.64l4.83,1.36a45.47,45.47,0,0,1-3.42,6.88h1.51V75a42,42,0,0,0,3.09-11.52l5.3.83c-.33,1.94-.72,3.85-1.19,5.72h9.11v4.82Zm-22.28-2.19h.69c.43-.58.86-1.19,1.26-1.8h-2ZM397,78.17l1.29,1a23.46,23.46,0,0,0,1.48-2.13h-3.6c-.4.47-.76.9-1.15,1.33h1Zm9.86-3.35a44.49,44.49,0,0,0,1.58,6.48,39.26,39.26,0,0,0,1.3-6.48Z"/><path class="cls-2" d="M443.51,78.64c-1.76,1.48-4.75,4.18-5.32,4.82a4,4,0,0,1,1.36.4,3.74,3.74,0,0,1,1.84,2.34c.32.9.61,2,.9,2.81a2.07,2.07,0,0,0,2.19,1.51,40.45,40.45,0,0,0,7.13-.58l-.36,5.65a61.05,61.05,0,0,1-7.16.47c-3.64,0-5.55-.75-6.44-3.06-.4-1-.76-2.48-1-3.31-.39-1.26-1.15-1.62-1.76-1.62s-1.26.61-2.12,1.51c-1.19,1.26-3.17,3.49-5.87,6.91L421.84,93a37.7,37.7,0,0,0,2.85-2.56c2.08-2.09,8-8,11.08-11.34-2.3,0-5.58.33-7.56.51A31.5,31.5,0,0,0,425,80l-.5-5.94c.82.08,2.26.15,3.63.15s9.47-.25,12.6-.65a13,13,0,0,0,2.16-.43L446,76.7C445,77.45,444.27,78,443.51,78.64Zm1-12.24-.68,5c-3.85-.29-10.73-1-14.94-1.69l.83-5C433.76,65.43,440.63,66.15,444.48,66.4Z"/><path class="cls-2" d="M456.54,68.92c3.35-.29,8.75-.72,15.27-1.29,3.56-.29,7.77-.51,10.36-.62l0,5.55a43.49,43.49,0,0,0-6.84.43c-3.85.86-7.16,5-7.16,9.25,0,5.25,4.93,7.31,11.08,7.67l-2,6c-8-.61-14.76-4.93-14.76-12.53A14.53,14.53,0,0,1,467,73c-3.06.32-9.32,1-13.61,2l-.54-5.87C454.31,69.07,455.86,69,456.54,68.92Z"/><path class="cls-2" d="M507.72,68.74c-1.33,1-2.56,1.91-3.53,2.67-2.23,1.69-6.69,5.11-8.93,7-1.76,1.51-1.69,1.84,0,3.35,2.34,2,9.36,7.48,12.92,10.87l-5,4.68c-1.15-1.3-2.34-2.52-3.49-3.71-2-2.05-7.09-6.44-10.33-9.21-3.63-3.14-3.42-5.3.36-8.39,2.84-2.31,7.42-6.08,9.83-8.39a25.71,25.71,0,0,0,3.13-3.38Z"/><path class="cls-2" d="M534.54,74.36a58.88,58.88,0,0,1-6.62,1.11c-.36,1.51-.72,3.1-1.08,4.5a118.68,118.68,0,0,1-5.69,16.6l-6-2c2.12-3.53,4.93-11.12,6.26-16.09.22-.83.47-1.69.65-2.52-.61,0-1.22,0-1.8,0-1.83,0-3.2-.08-4.42-.15l-.15-5.36a38.42,38.42,0,0,0,4.61.29c.93,0,1.91,0,2.84-.08a13,13,0,0,0,.22-1.44,20,20,0,0,0,.11-4l6.58.5c-.29,1.12-.64,2.85-.83,3.68l-.14.61c1.84-.29,3.67-.65,5.47-1.08Zm-.32,11.26a13.17,13.17,0,0,0-.47,2.85c0,1.47.94,2.41,4.07,2.41a45.08,45.08,0,0,0,7.63-.76l-.22,5.51a59,59,0,0,1-7.45.5c-6.23,0-9.36-2.26-9.36-5.9a25,25,0,0,1,.65-5.07Zm-2.77-9.1a70.39,70.39,0,0,1,7-.4c2,0,4.14.11,6.3.32l-.11,5.19a50.75,50.75,0,0,0-6.19-.47,53.92,53.92,0,0,0-7,.4Zm9.07-3.5a51.22,51.22,0,0,0-2.77-5l3.38-1.37c.9,1.34,2.16,3.68,2.81,4.93Zm4.5-1.76a39.09,39.09,0,0,0-2.85-5l3.39-1.36a51.61,51.61,0,0,1,2.84,4.89Z"/><path class="cls-2" d="M580,73.31c-1.66.47-3.6,1-5.69,1.41,1.33,2.88,2.92,5.9,4.5,8.64l-3,3.24c-2.16-.44-5.68-1-8.53-1.41l.47-4.43c1.12.11,2.74.26,3.74.29-.75-1.55-1.72-3.42-2.66-5.43a83.09,83.09,0,0,1-15,0l-.18-5.51a62.6,62.6,0,0,0,12.88.44L566,69.32a22.23,22.23,0,0,0-1.91-3.64l6.12-1.19a53.93,53.93,0,0,0,1.91,5.22,52.45,52.45,0,0,0,6.84-1.8Zm-19.11,9.43a15.94,15.94,0,0,0-1,4.14c0,2.31.87,4,5.76,4a42.38,42.38,0,0,0,9.9-1l-.11,5.69a50.4,50.4,0,0,1-9.79.9c-7.45,0-11.41-2.74-11.41-8a28.13,28.13,0,0,1,1-6.08Z"/><path class="cls-2" d="M592.35,73.13c0,2.34,0,4.68.22,7.06.43,4.68,1.15,8,3.2,8,1.65,0,2.92-4.46,3.42-6.87l4.35,5.33c-2.48,6.29-4.75,8.53-7.88,8.53-4.21,0-7.7-3.6-8.71-13.36-.36-3.38-.4-7.45-.4-9.72a21.25,21.25,0,0,0-.32-3.85l6.62.07A34.37,34.37,0,0,0,592.35,73.13ZM616.9,87.57l-5.72,2.19c-.51-5.36-2.24-14.47-6.41-19l5.51-1.8C613.77,73.06,616.61,82.42,616.9,87.57Z"/><path class="cls-3" d="M76.39,39.91A38.93,38.93,0,1,1,28.36,13,38.92,38.92,0,0,1,76.39,39.91Z"/><polyline class="cls-3" points="60.16 76.47 87.96 79.61 67.91 58.55"/><path class="cls-4" d="M25.48,32.93a.46.46,0,0,1-.4.62l-8.92,1.78A11.19,11.19,0,0,1,14,39.09a.48.48,0,0,1-.27.17c-.21,0-.31-.08-.31-.35a39.93,39.93,0,0,0-.76-8.61q-.07-.37.33-.42l3.52-.46a.64.64,0,0,1,.8.56.62.62,0,0,1-.41.71.17.17,0,0,0-.1.18,32.49,32.49,0,0,1-.38,3.33l4.66-.92,1.13-1.79a.65.65,0,0,1,.42-.33.73.73,0,0,1,.55.14l1.88,1.18A.74.74,0,0,1,25.48,32.93Zm1.1,7a.47.47,0,0,1-.43.63l-4.37.87q.36,5.22-5.1,8.47a1.19,1.19,0,0,1-.69.24c-.11,0-.18-.05-.2-.18a.39.39,0,0,1,.05-.28,13,13,0,0,0,2.5-7.56l-3.9.78a.54.54,0,0,1-.21-1.06l4-.8c-.07-.53-.36-2-.86-4.43a.65.65,0,0,1,.21-.31l2.95-.45c.53-.09.84.06.91.44a.65.65,0,0,1-.27.71.19.19,0,0,0-.07.18c.15.74.33,1.8.55,3.18l1-.19.91-1.52a.66.66,0,0,1,.42-.34.82.82,0,0,1,.55.14l1.66,1A.72.72,0,0,1,26.58,40ZM26.45,47a1.24,1.24,0,0,1-1.35-.47,13.81,13.81,0,0,0-2.53-2.4.45.45,0,0,1-.19-.26c-.07-.31.09-.5.46-.56a7.19,7.19,0,0,1,2.82.13,2.33,2.33,0,0,1,1.92,1.8,1.54,1.54,0,0,1-.19,1.14A1.34,1.34,0,0,1,26.45,47ZM37.34,31.47a.6.6,0,0,1,.21.37.58.58,0,0,1-.07.45l-.47.56,1.4,7.69a1,1,0,0,1-.78,1.33l-1.81.52a.43.43,0,0,1-.4-.1.47.47,0,0,1-.24-.35L35,41.1l-3,.6.07.34a1,1,0,0,1-.65,1.25l-1.74.6c-.46.16-.75,0-.85-.52L26.53,32.72a.39.39,0,0,1,.09-.36.33.33,0,0,1,.34-.11l3,.68,3.18-.63,1.22-1.72a.66.66,0,0,1,.44-.26.65.65,0,0,1,.51.07ZM33.6,33.28l-3.29.66,1.47,6.74,3.06-.61Z"/><path class="cls-4" d="M49.83,30.05a.28.28,0,0,1,.09.17,1.67,1.67,0,0,1-.23.79l-1.08,2.4A2.14,2.14,0,0,0,48.52,35c.34,1.08.06,1.77-.85,2.06a1.88,1.88,0,0,1-1.88-.39A3.58,3.58,0,0,1,44.69,35a35.92,35.92,0,0,1-1-4c-.32-1.63-.65-3.7-1-6.21,0-.27.1-.42.4-.46l3.1-.35c.42,0,.65.11.7.47a.6.6,0,0,1-.33.66.18.18,0,0,0-.09.13,51.62,51.62,0,0,0,1.08,6.63c0,.21.15.21.32,0l1.19-1.47C49.4,30,49.65,29.89,49.83,30.05Zm4.91-4a.63.63,0,0,1-.15.66.22.22,0,0,0,0,.14A40.62,40.62,0,0,1,56,33.12q.77,7.56-7.48,11.64-.65.33-.84.06t.21-.75a17.94,17.94,0,0,0,3.89-5.73,10.7,10.7,0,0,0,.41-4.82,36.45,36.45,0,0,0-1.59-6.61.35.35,0,0,1,.29-.47l3-.69C54.33,25.63,54.63,25.75,54.74,26.09Z"/><path class="cls-4" d="M34.87,55.75a.47.47,0,0,1-.43.6l-8,1.6.62,13.7a1.43,1.43,0,0,1-1.41,1.7l-1.28.15c-.43,0-.7-.19-.8-.72a1.91,1.91,0,0,1-.06-.42L23,58.62l-3.66.73a.55.55,0,1,1-.22-1.08L23,57.51l-.26-4.76a.33.33,0,0,1,.36-.4l3-.18a.54.54,0,0,1,.65.5.49.49,0,0,1-.38.57.16.16,0,0,0-.09.12l.15,3.48L30,56.11l1.35-2a.7.7,0,0,1,.45-.33.72.72,0,0,1,.55.13l2,1.35A1,1,0,0,1,34.87,55.75Zm4.89,4a.62.62,0,0,1-.57.82l-.76.16L35.54,63.8a.81.81,0,0,1-.3.14.28.28,0,0,1-.38-.25.55.55,0,0,1,0-.22l.19-2.37-3.79.76c-.39.08-.62-.06-.69-.41a.51.51,0,0,1,.44-.67L35,60l1.34-1.66a.85.85,0,0,1,.48-.34.72.72,0,0,1,.51.12l1.93,1.14C39.57,59.45,39.74,59.61,39.76,59.73Zm1.45,7.92a2.7,2.7,0,0,1,.18.52c.16.82-.26,1.45-1.27,1.89a10.08,10.08,0,0,1-3.76.91,4.14,4.14,0,0,1-4.51-3.29c-.12-.41-.08-.67.12-.79s.33,0,.61.21a4.72,4.72,0,0,0,1.06.66,3.62,3.62,0,0,0,2,.13,10.14,10.14,0,0,0,2.89-1.15,2.28,2.28,0,0,1,.71-.28A1.71,1.71,0,0,1,41.21,67.65Z"/><path class="cls-4" d="M54.74,58.58c0,.19-.08.45-.36.76L52,62a1.26,1.26,0,0,0,0,1.46,2.28,2.28,0,0,1,.2.59c.18.89-.3,1.43-1.43,1.62a2.7,2.7,0,0,1-2.85-1.54,19.09,19.09,0,0,1-2.27-6.31c-.2-1-.41-2.36-.64-4,0-.22.06-.33.23-.35L48.47,53c.39-.06.61.09.66.44a.53.53,0,0,1-.29.61q-.08,0-.06.09a24.58,24.58,0,0,0,1.45,6.34c.13.3.37.33.7.08l2.87-2.08a.49.49,0,0,0,.14-.11,1.07,1.07,0,0,1,.36-.15C54.54,58.21,54.69,58.32,54.74,58.58ZM65,56.9c.33,1.65-.17,2.61-1.49,2.87a1.46,1.46,0,0,1-1.82-1.2,15.25,15.25,0,0,0-1.19-3.1,9,9,0,0,0-3-2.83c-.29-.17-.39-.38-.29-.62s.26-.26.6-.29A7,7,0,0,1,65,56.9Z"/><path class="cls-5" d="M128.44,53.54a28.07,28.07,0,0,1-.87,6.73,36.62,36.62,0,0,1-2.49,7,38.52,38.52,0,0,1-4,6.59,30.85,30.85,0,0,1-5.27,5.49,25.4,25.4,0,0,1-6.43,3.78,19.57,19.57,0,0,1-7.4,1.41,12.94,12.94,0,0,1-5.52-1.14,12.11,12.11,0,0,1-4.18-3.19,14.43,14.43,0,0,1-2.67-5,21,21,0,0,1-.94-6.48,26.55,26.55,0,0,1,.89-6.58,35.6,35.6,0,0,1,2.55-6.81,38.59,38.59,0,0,1,4-6.4,29.81,29.81,0,0,1,5.27-5.37,26,26,0,0,1,6.35-3.69A19.28,19.28,0,0,1,115,38.5a13.18,13.18,0,0,1,5.45,1.11,12.57,12.57,0,0,1,4.25,3.1,13.69,13.69,0,0,1,2.75,4.74A18.52,18.52,0,0,1,128.44,53.54Zm-9.3,0c0-2.34-.43-4-1.29-5A4.13,4.13,0,0,0,114.54,47a11.89,11.89,0,0,0-6.21,1.8,19.59,19.59,0,0,0-5.32,4.8,24.88,24.88,0,0,0-3.73,6.86,22.64,22.64,0,0,0-1.41,7.91,19,19,0,0,0,.24,3.12A9.46,9.46,0,0,0,99,74.22a5.24,5.24,0,0,0,1.68,2,4.73,4.73,0,0,0,2.75.74,9.91,9.91,0,0,0,4.75-1.16,14.78,14.78,0,0,0,3.93-3.09,21.34,21.34,0,0,0,3.06-4.41,35.38,35.38,0,0,0,2.21-5.07,36.2,36.2,0,0,0,1.34-5.12A27.07,27.07,0,0,0,119.14,53.54Z"/><path class="cls-5" d="M156.13,63.72a11.91,11.91,0,0,0-.24-2.4,4.16,4.16,0,0,0-1-2A5.46,5.46,0,0,0,152.67,58a13.5,13.5,0,0,0-5.59-.39,13.16,13.16,0,0,1-1.94.13,2.48,2.48,0,0,1-2.11-.88,3.08,3.08,0,0,1-.67-1.9,3,3,0,0,1,1.31-2.4A8.26,8.26,0,0,1,147.46,51a21.14,21.14,0,0,0,6.14-1.86,20,20,0,0,0,4.25-2.75,11.81,11.81,0,0,0,2.47-2.84,4.67,4.67,0,0,0,.81-2.14A3.19,3.19,0,0,0,160.07,39a3.72,3.72,0,0,0-2.55-1,23.36,23.36,0,0,0-4.59.41c-1.34.28-2.58.57-3.71.88l-3.15.88a10.41,10.41,0,0,1-2.83.41,3.93,3.93,0,0,1-2.63-1,2.91,2.91,0,0,1-1.13-2.34,4.1,4.1,0,0,1,1-2.42,21.16,21.16,0,0,1,3.49-2.07,34.26,34.26,0,0,1,4.35-1.72,38.59,38.59,0,0,1,4.82-1.21,26.93,26.93,0,0,1,4.92-.47,18.87,18.87,0,0,1,4.59.54,10.61,10.61,0,0,1,3.79,1.78A8.85,8.85,0,0,1,169,35a11.46,11.46,0,0,1,.95,4.93,11,11,0,0,1-3.35,7.6A23.45,23.45,0,0,1,157,53.26a14.12,14.12,0,0,1,4.33,1.7,10.44,10.44,0,0,1,2.7,2.39,8,8,0,0,1,1.4,2.79,11.4,11.4,0,0,1,.38,2.81,21.14,21.14,0,0,1-1.23,7.39,21.71,21.71,0,0,1-3.35,6,24.86,24.86,0,0,1-5,4.72A38.7,38.7,0,0,1,150,84.65a51.29,51.29,0,0,1-6.85,2.63q-3.56,1.08-7,1.8l-1.45.26a7,7,0,0,1-1.18.1,4.39,4.39,0,0,1-2.92-.82,2.54,2.54,0,0,1-.95-2,3.72,3.72,0,0,1,1-2.4,6,6,0,0,1,3-1.78,43.21,43.21,0,0,0,4.67-1.31,38.54,38.54,0,0,0,5-2.11,40.56,40.56,0,0,0,4.74-2.86,24.27,24.27,0,0,0,4-3.54A17.65,17.65,0,0,0,155,68.49,11.5,11.5,0,0,0,156.13,63.72Z"/><rect class="cls-6" y="0.44" width="670" height="119"/></g></g></svg>