<svg xmlns="http://www.w3.org/2000/svg" viewBox="0 0 542.16 292.48"><defs><style>.cls-1{fill:#7b001e;}.cls-2{fill:#651815;}</style></defs><g id="レイヤー_2" data-name="レイヤー 2"><g id="文字_写真" data-name="文字＆写真"><path d="M66.41,217.82H51.31V177.07h15.1v.75c-7,3.12-11.58,9.94-11.58,19.62S59.45,214,66.41,217.07Z"/><path d="M89.46,210.86v3.31H70.05v-2.65c2.73-2.81,5.46-5.76,7.57-8,4.84-5.24,6.78-8.85,6.78-12.55,0-4-2.29-6.64-6.07-6.64a10.72,10.72,0,0,0-2.91.39l-1.1,3.39c-.53,1.9-1.19,2.73-2.33,2.73a2.36,2.36,0,0,1-2.11-1.36c.74-4.62,4.84-7,9.41-7,5.94,0,8.72,3.31,8.72,8.15,0,4-2.11,7.21-9.16,14.25-1.23,1.32-3.47,3.57-5.89,5.94Z"/><path d="M115.86,189a41.72,41.72,0,0,0,18.22,17.73l-.09.44a3.6,3.6,0,0,0-2.9,2.42c-6.69-4.09-12.72-11.44-16.24-20.59v18h4l2.07-2.77s2.33,1.94,3.83,3.34c-.13.49-.57.71-1.19.71h-8.71v8.23c0,.44-1.24,1.1-2.38,1.1h-.57v-9.33h-9.29l-.35-1.28h9.64V191.5a44.88,44.88,0,0,1-18.4,18.44l-.44-.66A49.13,49.13,0,0,0,109.57,189H93.94l-.39-1.32H111.9V177.24l4.58.53c-.14.66-.49,1.1-1.63,1.28v8.58H127l2.29-2.86s2.55,2,4.09,3.48c-.08.48-.52.7-1.14.7Z"/><path d="M156.78,178.21l4.93,3.61c-.71.84-2.29,1.32-4.49,1.5l0,2.15c1.5,13.78,8.23,24.07,20.6,29.14l-.18.52c-1.49.05-2.42.88-3.08,2.51a35,35,0,0,1-17.12-23.89,34.67,34.67,0,0,1-19.76,23.85l-.44-.66c9.77-5.19,17.17-15.89,18.62-31.34v-3.3h-10l-.36-1.27H155Z"/><path d="M192.33,197.44c0-9.68-4.62-16.5-11.57-19.62v-.75h15.09v40.75H180.76v-.75C187.71,214,192.33,207.12,192.33,197.44Z"/><path class="cls-1" d="M329.26,171.84q4.82,4.83,4.82,13,0,7.78-4.08,11.87a21.55,21.55,0,0,1-8.17,4.83,22.33,22.33,0,0,1,9.65,5.19q4.08,4.09,4.09,11.51a19.78,19.78,0,0,1-4.09,12.61q-5.19,6.32-15.21,6.31-8.91,0-13-5.19a16.69,16.69,0,0,1-3.71-10.39c0-2.47.61-4.33,1.85-5.57a5.36,5.36,0,0,1,3.72-1.86,6.08,6.08,0,0,1,4.45,1.86,6.36,6.36,0,0,1,0,8.16,5,5,0,0,1-3.71,1.49,4.49,4.49,0,0,1-3.34-1.12q3,9.28,11.87,9.28a11.6,11.6,0,0,0,9.28-4.45q3-4.08,3-11.13,0-8.16-4.08-12.25a8.88,8.88,0,0,0-6.31-3,4.28,4.28,0,0,0-1.86.37,8.36,8.36,0,0,1-2.59.74,2.11,2.11,0,0,1-1.49-.74,3.21,3.21,0,0,1-.37-1.48,3.28,3.28,0,0,1,.37-1.49,2.15,2.15,0,0,1,1.49-.74,6,6,0,0,1,2.59.74,2.94,2.94,0,0,0,1.86.37c2,0,4.2-1.48,6.68-4.45q2.6-3.35,2.6-11.5,0-7.8-3.34-11.14a9.28,9.28,0,0,0-6.68-3q-7.8,0-11.51,10a5.38,5.38,0,0,1,3.34-1.12,5.52,5.52,0,0,1,4.08,1.49,5,5,0,0,1,1.49,3.71,5.79,5.79,0,0,1-9.65,4.08c-1.24-1.24-1.86-3.09-1.86-5.57q0-6.3,5.2-11.5a14.65,14.65,0,0,1,10.76-4.45Q324.8,167.39,329.26,171.84Z"/><path class="cls-1" d="M356.72,225.28a8.54,8.54,0,0,1,2.22,6.3q0,7.8-6.68,14.48a29.77,29.77,0,0,1-5.56,4.08l-1.49-2.6a17.14,17.14,0,0,0,8.54-10.76,12.08,12.08,0,0,1-3,.37,6.36,6.36,0,0,1-6.68-6.68,7.52,7.52,0,0,1,2.23-5.56,7,7,0,0,1,5.19-1.86A7.12,7.12,0,0,1,356.72,225.28Z"/><path class="cls-1" d="M397.17,171.84a15.57,15.57,0,0,1,4.45,11.5,14.23,14.23,0,0,1-4.45,10.39,24.89,24.89,0,0,1-7.8,4.83,67.42,67.42,0,0,1,10.39,9.65A16.25,16.25,0,0,1,403.85,219a17.81,17.81,0,0,1-5.57,13,18.11,18.11,0,0,1-13.36,5.19q-9.29,0-14.1-4.82-4.45-4.46-4.45-12.62,0-7.8,4.82-12.62a41.44,41.44,0,0,1,7.42-5.56,33.73,33.73,0,0,1-5.94-5.94,18.19,18.19,0,0,1-4.08-11.51q0-6.68,5.57-12.24a15.1,15.1,0,0,1,11.13-4.45Q392.72,167.39,397.17,171.84Zm-25.61,47.87q0,6.67,3.71,10.39a13.58,13.58,0,0,0,10,4.08,11.12,11.12,0,0,0,8.17-3.34q3-3,3-8.16t-5.19-10q-5.94-5.19-10.39-8.91Q371.55,211.19,371.56,219.71Zm6.31-46.39a9.93,9.93,0,0,0-3.34,7.05q0,3.72,3.34,8.17c1.73,2.22,4.82,5,9.28,8.16a26.52,26.52,0,0,0,5.93-4.08q3.35-3.35,3.34-9.28,0-6.68-3.34-10a10.58,10.58,0,0,0-7.79-3A10.1,10.1,0,0,0,377.87,173.32Z"/><path class="cls-1" d="M414.61,200l2.22-32.65h30.43c0,3-.37,5.07-1.11,6.3-1.24,2-3.34,3-6.31,3H419.06l-1.48,19.67q5.57-7.05,13-7.05a16.33,16.33,0,0,1,11.87,5.2q6.3,6.32,6.31,17.44t-5.94,18.18q-5.56,7.05-15.21,7.05-7.8,0-12.25-5.57a13.7,13.7,0,0,1-3.34-8.9q0-4.08,1.86-5.94a6.28,6.28,0,0,1,8.9,0,5.53,5.53,0,0,1,1.49,4.08,6.07,6.07,0,0,1-1.86,4.46,5,5,0,0,1-3.71,1.48,5.43,5.43,0,0,1-3.34-1.11q2.59,7.78,10.76,7.79a11.64,11.64,0,0,0,9.65-4.82q3.71-4.45,3.71-16.33,0-11.5-4.45-16a10.06,10.06,0,0,0-7.42-3q-5.57,0-10.77,7.42Z"/><path class="cls-1" d="M485.86,172.21q8.91,8.91,8.9,29.32,0,21.9-8.9,30.8-4.83,4.81-10,4.82t-10-4.82q-9.66-9.65-9.65-30.8,0-19.67,9.65-29.32,4.81-4.82,10-4.82T485.86,172.21Zm-14.47.74q-6.31,6.31-6.31,28.58,0,23.75,6.31,30.05a5.56,5.56,0,0,0,8.9,0q5.56-5.57,5.57-30.05,0-22.28-5.57-28.58a5.63,5.63,0,0,0-4.45-2.22A6.4,6.4,0,0,0,471.39,173Z"/><path class="cls-1" d="M541.52,203.77q1.71,2.28-1.14,2.46V239.6c0,.5-.57,1.14-1.7,1.9a6.63,6.63,0,0,1-3.8,1.32c-.25,0-.38-.19-.38-.57v-1.89c0-.26-.44-.57-1.32-1l-4.74-1.71c-.51-.37-.51-.57,0-.57h6.06c1,0,1.52-.37,1.52-1.13V221.59H508v20.29l-.95.56c-1.89.76-3,.76-3.41,0V200.17l4.74,2.84h26.92l2.47-3ZM508,220.45h11.76v-16.3H508Zm16.12,0H536v-16.3H524.08Z"/><path d="M468.27,292l-.65.52c-4.68-4.68-6.88-9.82-6.88-16a21.7,21.7,0,0,1,6.88-16.07l.65.56c-4.06,5.89-5.24,9.89-5.24,15.51S464.24,286.1,468.27,292Z"/><path d="M477.51,273.32c6.14,2.2,4.56,6.11,2.63,4.75a11.52,11.52,0,0,0-2.63-4.13v13.65a2.06,2.06,0,0,1-1.71.68h-.28V274.9a25,25,0,0,1-5.39,7.63l-.4-.43a32.27,32.27,0,0,0,5.24-12h-4.22l-.22-.93h5v-5.3a48,48,0,0,1-5,1l-.18-.5a37.78,37.78,0,0,0,9.08-4.21l2.61,2c-.28.31-.81.31-1.55.1-.84.34-1.86.68-3,1v5.83h1.21l1.33-1.74s1.52,1.27,2.45,2.17c-.06.34-.37.5-.8.5h-4.19Zm20.87,12.37c.62.25.71.47.71.87,0,.81-.78,1.18-4.16,1.18h-2.07c-1.93,0-2.27-.5-2.27-1.86v-10.6h-2.26c-.59,6.57-2.6,10.41-9,13l-.22-.47c5.27-3,6.67-6.76,7-12.52h-1.37v.9c0,.18-.83.62-1.64.62h-.28V265.54l2.08,1h5.52a41.29,41.29,0,0,0,3-6.54l3.07,1.05c-.13.34-.5.56-1.15.5a29.48,29.48,0,0,1-4.12,5h3.22v0h.06l1-1.15,2,1.8a2.29,2.29,0,0,1-1.15.56V276a2.16,2.16,0,0,1-1.58.62h-.37v-1.3h-2v10.14c0,.43.09.55.8.55H495c.77,0,1.33,0,1.58,0a.46.46,0,0,0,.46-.4,42.45,42.45,0,0,0,.87-4.37h.4Zm-14.45-25.45c6.26,2.85,4.46,7.1,2.38,5.49a14.55,14.55,0,0,0-2.75-5.27Zm.83,14.11h9.71v-7h-9.71Z"/><path d="M508.11,282.59c2.14,2.48,4.49,2.86,9.83,2.86,3.62,0,8.52,0,12.24-.13v.44a1.79,1.79,0,0,0-1.55,1.7H518c-5.65,0-8.13-.71-10.33-4.28a50.28,50.28,0,0,1-4.56,4.25.62.62,0,0,1-.37.78l-1.42-2.64c1.2-.53,3.1-1.49,4.86-2.45V274h-4.56l-.18-.93h4.31l1.18-1.58,2.69,2.24a2.43,2.43,0,0,1-1.48.55Zm-5.24-21.79c7.75,2.38,6.26,7.44,3.84,5.86a14.53,14.53,0,0,0-4.15-5.62Zm5.64,21.7c5-3.66,8.77-9.74,10.2-17.3-.12-.74-.22-1.52-.31-2.33h-6.17L512,262h5.67l1.09-1.58,2.91,2.11a3.43,3.43,0,0,1-2.29.75c1.15,7.34,4.09,14.2,10.76,17.54l-.12.35a2.8,2.8,0,0,0-1.93,1.67c-4.37-2.88-6.85-7.16-8.34-12.68A25.44,25.44,0,0,1,508.88,283Z"/><path d="M532.91,259.53c4.18,2.66,8.34,7,8.34,14.51s-4.16,11.84-8.34,14.51l-.53-.62a17.55,17.55,0,0,0,0-27.78Z"/><path d="M309.37,265.28l.9.9L300,276.41l10.23,10.23-.9.9-10.23-10.23-10.26,10.26-.9-.9,10.26-10.26L288,266.18l.9-.9,10.23,10.23ZM290.3,278.73a2.33,2.33,0,1,1,2.33-2.32A2.33,2.33,0,0,1,290.3,278.73Zm6.51-11.16a2.33,2.33,0,1,1,2.33,2.33A2.34,2.34,0,0,1,296.81,267.57Zm4.66,17.68a2.33,2.33,0,1,1-2.33-2.33A2.34,2.34,0,0,1,301.47,285.25ZM308,274.08a2.33,2.33,0,1,1-2.33,2.33A2.34,2.34,0,0,1,308,274.08Z"/><path d="M322.82,284.29c1.46,2.26,4.16,3.31,7.72,3.47,3.38.12,10.27,0,13.89-.22a10.7,10.7,0,0,0-.74,2.36c-3.38.12-9.74.18-13.15.06-4-.16-6.79-1.27-8.77-3.66-1.49,1.3-3,2.64-4.68,4l-1.24-2.33a52.9,52.9,0,0,0,4.71-3.53v-7.85h-4.31v-2.17h6.57Zm-1-15a21.17,21.17,0,0,0-5.27-4.9l1.71-1.4a23.07,23.07,0,0,1,5.39,4.78Zm14.08,7.25a11.31,11.31,0,0,0,8.09,7.69,7.92,7.92,0,0,0-1.46,1.93,12.8,12.8,0,0,1-8.15-8c-1,2.79-3.16,5.64-8.09,7.84a11.26,11.26,0,0,0-1.52-1.7c5.36-2.17,7.16-5.12,7.72-7.79h-8v-2.07h8.22c0-.31,0-.59,0-.87v-3.44h-7.26v-2.05h3.88a17.09,17.09,0,0,0-2.67-5l1.95-.78a17.48,17.48,0,0,1,2.83,4.93l-1.86.84H343v2.05H335.1v3.47a7.86,7.86,0,0,1,0,.84H344v2.07ZM341.36,263a60.19,60.19,0,0,1-3.34,5.12l-1.9-.68a30.37,30.37,0,0,0,2.89-5.21Z"/><path d="M354.32,275.2c.87,1,4,5.05,4.65,6.11l-1.52,1.8c-.56-1.15-2-3.54-3.13-5.27v12.71h-2.14V277.8a35.7,35.7,0,0,1-4.28,8.84,13.54,13.54,0,0,0-1.18-2.23,32,32,0,0,0,4.84-9.64h-4.34V272.6h5V262.36h2.14V272.6h5.05v2.17h-5.05Zm-5.21-3.69a30,30,0,0,0-1.67-6.88l1.67-.41a28.29,28.29,0,0,1,1.83,6.79Zm10.26-6.91a61.86,61.86,0,0,1-2.54,7l-1.49-.49a56.89,56.89,0,0,0,2.05-7Zm12.1,17.23v8.72H369.3v-8.31L359.68,284l-.37-2.14,10-1.76v-17.8h2.17v17.4l3.65-.66.35,2.11Zm-6.27-4.34a23.52,23.52,0,0,0-5.14-3.72l1.08-1.61a24.41,24.41,0,0,1,5.21,3.47Zm1.3-7.5a25.75,25.75,0,0,0-4.86-4l1.17-1.55a24.21,24.21,0,0,1,4.87,3.78Z"/><path d="M392.08,277.06s0,.71,0,1c-.37,7.72-.68,10.54-1.52,11.51a2.45,2.45,0,0,1-2,.86,27.48,27.48,0,0,1-3.78,0,4.67,4.67,0,0,0-.65-2c1.52.15,3,.15,3.54.15a1.25,1.25,0,0,0,1.05-.34c.56-.62.87-3,1.15-9.08h-5.09c-.68,4.49-2.14,8.77-5.39,11.47a5.83,5.83,0,0,0-1.59-1.58c4.22-3.35,5-9.68,5.28-15.29h-3.38V263.67h12.18v10.07h-6.57c-.06,1.09-.16,2.2-.28,3.32Zm-10.26-5.36h7.87v-6h-7.87ZM397.26,283H395V266h2.24Zm7.59-20.15v24.65c0,1.55-.43,2.26-1.39,2.67s-2.76.4-5.58.4a9.51,9.51,0,0,0-.84-2.33c2.17.1,4.12.07,4.71,0s.81-.18.81-.77V262.86Z"/><path d="M415.42,284.29c1.52,2.29,4.28,3.31,8,3.47,3.38.12,10.32,0,14-.22a10.21,10.21,0,0,0-.77,2.36c-3.38.12-9.8.18-13.21.06-4.12-.16-7-1.24-9-3.66-1.4,1.3-2.85,2.64-4.41,4l-1.24-2.3a48.15,48.15,0,0,0,4.41-3.56v-7.85h-3.94v-2.17h6.17Zm-.9-14.86a22.44,22.44,0,0,0-5-5.08l1.7-1.37a22.14,22.14,0,0,1,5.06,5Zm13.18-7.1a26.86,26.86,0,0,0,9.7,7.6A10.34,10.34,0,0,0,436,272a31.66,31.66,0,0,1-9.33-7.6,28.35,28.35,0,0,1-9.21,7.69,10.26,10.26,0,0,0-1.21-1.89,24.3,24.3,0,0,0,9.18-7.88Zm-4.81,16.34a20.75,20.75,0,0,1-4.46,6.23,13.29,13.29,0,0,0-1.8-1.17,16.68,16.68,0,0,0,4.22-5.55Zm13.61-1.83H428v7.07c0,1.15-.22,1.71-1,2a12.8,12.8,0,0,1-4,.34,9,9,0,0,0-.62-1.95c1.34,0,2.55,0,2.92,0s.49-.1.49-.44v-7h-8.06v-1.95h8.06V272.1h-4.52v-1.92h11.38v1.92H428v2.79h8.55Zm-2,8A26.25,26.25,0,0,0,430.3,279l1.8-.87a26.31,26.31,0,0,1,4.34,5.77Z"/><path class="cls-2" d="M60.73,38.59c-.45.7-1.34.9-3.13.9H36.09C41.53,45.24,52.16,49,61.63,50.17l-.13.77c-3.52,1-6.14,4-7.17,8.7C45,55.87,39.17,49.79,35.39,40.7V59.26c0,.13-1.79,2.3-9.86,2.3V46.84C19.26,52.6,10.56,57,.45,60L0,59.13A51.12,51.12,0,0,0,18.88,39.49H.83l-.32-1h25V30.21h-10v1c0,.26-1.41,3.26-9,3.26V11.39L16.13,15h3.52V7H1.34L1,6H47.87L52.54,0l8.58,6.08c-.52.7-1.35.9-3.14.9H41.79v8h3.77L49,10.56l9,6.33a4.08,4.08,0,0,1-2.62,1.41V31.17c0,.12-2.63,1.85-9.09,1.85V30.21H32.38v.06l5.38.38c-.13.9-.58,1.41-2.37,1.73v6.08H47.61l4.61-5.89ZM15.49,16V29.18h4.16V16ZM28.41,7v8H33V7Zm0,22.2H33V16H28.41ZM46.27,16H41.79V29.18h4.48Z"/><path class="cls-2" d="M109,17.66a5.11,5.11,0,0,0,3,.71c.38,0,2.24-.2,2.68-.2,1.73,0,3.78,1.54,3.84,3.21,0,3.71-8,5.5-17.59,7.48a12.64,12.64,0,0,0,6.78,6.27c2.75,1,3.65,2.82,3.65,4.87,0,2.37-1.15,3.39-3.46,3.39-3.39,0-5.12-2.31-7.42-3.2a24.39,24.39,0,0,0-7.62-1.28c-4.8,0-8.7,2.17-8.7,6.14,0,3,3.58,5.12,11.07,5.12.64,0,1.28-.06,1.92-.06a36.78,36.78,0,0,0,7.62-1c3.13,0,5.69,3.33,5.69,5.12,0,2.95-4.86,3.65-13.44,3.65-13.12,0-20.48-3.77-20.54-10.62C76.48,40.64,84.35,36,93.89,36a23.69,23.69,0,0,1,4.54.45l-.06-.19c-1.16-.77-2.56-3.45-3.91-6.27a97.41,97.41,0,0,1-15,1.92c-6.33,0-8.06-2.05-9.85-7.17l.89-.51c2.5,2.43,4.55,2.56,7.68,2.56h1.41A82.32,82.32,0,0,0,92.86,25c-.57-1.73-1.41-4.29-1.66-5.5a54.53,54.53,0,0,1-9.09,1.09c-3.9,0-7.1-1.8-8.83-6.4l.51-.51a10.49,10.49,0,0,0,6.4,1.79,53.42,53.42,0,0,0,9.54-1.09c-.26-1-.84-3.52-1-4.35a3.25,3.25,0,0,0-3.52-2.5,4.55,4.55,0,0,0-2.37.51l-.38-.19c.38-2.56,3.26-4.73,7.62-4.73,4.16,0,5.82,1.79,5.82,3.07,0,.45-.13,2.62-.13,3.13a33.85,33.85,0,0,0,.45,3.59c2.43-.64,5.38-1.6,6.14-4.42,4.68,0,8.39,1,8.39,3.33,0,1.92-2.24,2.94-4.23,3.78a57.72,57.72,0,0,1-9.28,2.87,36.43,36.43,0,0,0,1.48,5.32c2.62-.58,9.91-2.5,9.91-5.06a1,1,0,0,0-.12-.45Z"/><path class="cls-2" d="M141.38,36.73c3.77-4,8.44-7.29,14.71-7.36,5.83,0,8.58,4.8,8.58,9.6,0,1.54-.13,4.55-.13,5.89,0,3.58,1.79,4.48,5.57,4.48,6.4,0,11.26-4.74,15-13.69l.84.19c-2.24,13.24-8.26,21.69-18.63,21.69-7.55,0-11.26-4.22-11.26-9.79,0-1.66.19-5.7.19-7.29,0-5.51-.51-7.81-3.71-7.81-4.41,0-9.41,5.18-11.84,11.39a42.53,42.53,0,0,0-2.37,8.19c-.57,3.52-2.49,5.06-4.6,5.06s-4.8-1.16-4.8-4.16a18,18,0,0,1,1.66-7.56c1.86-4.28,4-8.89,6.59-13.82,6.4-12.28,9.6-18.36,9.6-21a2.68,2.68,0,0,0-.89-2.24,5.78,5.78,0,0,0-3.78-.83l-.26-.26a6.66,6.66,0,0,1,5.44-3c4.8.07,9.73,2.31,9.73,6.15,0,2.55-2.37,4.09-4,6.14-3.58,4.61-9.21,13.37-12,20Z"/><path class="cls-2" d="M221.57,17.34c.7-1.21,2.49-1.72,4.8-1.72,4.16,0,8.77,5.37,8.77,8.25,0,3.71-3.2,3.65-6.6,4.22-12.28,2.18-27.9,8-27.9,15.94,0,4.86,5.7,5.5,13,5.5,4.67,0,11.52-.83,13.57-2.49,4.93.7,9,2.43,9,5.44,0,3.52-4.35,4.86-22,4.86-8.95,0-19.07-2.37-19.07-12.48,0-6.91,7-11.9,12.61-15.36-4.48-1.47-4.48-7.1-4.48-17.34,0-1.79-.25-3.52-1.47-4.1a6.31,6.31,0,0,0-2.62-.7,4.52,4.52,0,0,0-1,.13L198,7.1c.84-2.36,3.33-3.32,5.57-3.32,5.31.06,9.15,3.58,9.15,6.78a13.27,13.27,0,0,1-.83,3.9,21.42,21.42,0,0,0-.64,5.89c0,1,0,1.92.07,2.62.12,1.73.83,3.59,2.11,3.72,2.17-1.09,6-3,8.12-3.91,1.92-.83,3.27-1.66,3.27-3s-1.6-2.36-3.07-2.17Z"/><path class="cls-2" d="M259.78,36.73c3.77-4,8.44-7.29,14.72-7.36,5.82,0,8.57,4.8,8.57,9.6,0,1.54-.13,4.55-.13,5.89,0,3.58,1.79,4.48,5.57,4.48,6.4,0,11.26-4.74,15-13.69l.83.19c-2.24,13.24-8.26,21.69-18.63,21.69-7.55,0-11.26-4.22-11.26-9.79,0-1.66.19-5.7.19-7.29,0-5.51-.51-7.81-3.71-7.81-4.41,0-9.41,5.18-11.84,11.39a41.71,41.71,0,0,0-2.36,8.19c-.58,3.52-2.5,5.06-4.61,5.06s-4.8-1.16-4.8-4.16A18,18,0,0,1,249,45.56c1.86-4.28,4-8.89,6.59-13.82,6.4-12.28,9.6-18.36,9.6-21a2.68,2.68,0,0,0-.89-2.24,5.78,5.78,0,0,0-3.78-.83l-.26-.26a6.66,6.66,0,0,1,5.44-3c4.8.07,9.73,2.31,9.73,6.15,0,2.55-2.37,4.09-4,6.14-3.58,4.61-9.21,13.37-12,20Z"/><path class="cls-2" d="M361.6,35.9l9.09,6.4c-.45.7-1.28.9-3.14.9H345.09V59.07c0,.51-2.95,2.43-8.07,2.43h-1.85V43.2h-24.7l-.32-1h25v-13H318l-.32-1h17.54V15.68H314.11l-.32-1h15.62a5.6,5.6,0,0,1-3.07-2c0-4-1.28-8.7-3.65-11.58l.38-.32c9.67,1.79,12.87,5.57,12.87,8.77a5.38,5.38,0,0,1-4.29,5.11h14.14a119.16,119.16,0,0,0,1.86-14l13.12,2.88c-.19.83-.77,1.22-2.5,1.22a74.15,74.15,0,0,1-10.94,9.91h6.72l4.86-6.14,9,6.27c-.44.71-1.34.9-3.13.9H345.09V28.16h4.41l4.68-5.89,8.63,6c-.44.7-1.34.89-3.13.89H345.09v13h11.58Z"/><path class="cls-2" d="M429.7,15.29l8,4.36c-.38.76-1.21.89-2.88.89H378.05l-.32-1H403V14.78h-19.2l-.32-1H403V9.09H380.74l-.32-1H395.2a19,19,0,0,0-5.76-7l.26-.45A26.15,26.15,0,0,1,394,.32c5.69,0,7.68,2.24,7.68,4.48A4.2,4.2,0,0,1,400,8.06h11.78A52,52,0,0,0,415,.26L426.37,3c-.19,1.15-1.22,1.15-2.24,1.15A67.35,67.35,0,0,1,414,8.06h9.34l4.22-4.6,8,4.73c-.45.77-1.28.9-3,.9H411.9v4.67h8.45l4.1-4,7.74,4.1c-.38.76-1.28.89-2.88.89H411.9v4.74h13.57Zm7.74,27.84c-.45.77-1.22.9-2.88.9h-21.7c-.19.57-.83,1-2.36,1.21a26.38,26.38,0,0,1-.71,3.33h15.49l4.16-4,7.81,4.16c-.39.77-1.22.9-2.88.9H411.2c3.71,2.3,9.47,3.07,15.87,3.07,3.26,0,6.72-.19,10.11-.51l.07.76c-3.2,1.35-5,4.42-5.57,8.77-10.56-1.53-18.05-4.41-22.14-12.09h-.07c-2.17,6-8.12,9.85-31,12l-.26-1c14.59-3,19.71-6.34,21.63-10.94H378.5l-.32-1h22A19.83,19.83,0,0,0,401,44H378.05l-.32-1H403V38.72H384.07l-.32-1H403V34H383.11l-.32-1h11.84a4.4,4.4,0,0,1-2.24-1.73,10.42,10.42,0,0,0-1.67-6l.39-.32a22.49,22.49,0,0,1,6.78,1.16,10.34,10.34,0,0,0-1.28-4l.45-.32c6.59,1,8.83,3.14,8.83,5.06s-2.62,3.84-5.06,3.52A4.75,4.75,0,0,1,397.7,33h15.55c.25-.9.57-1.92.83-2.95a4.4,4.4,0,0,1-3.26-1.66,10.67,10.67,0,0,0-2.56-6.53l.38-.32c7.87.07,10.37,2.43,10.18,4.67l6.84,1.92c-.32,1-1.34,1-2.17,1A62.51,62.51,0,0,1,415.17,33h7.55l3.78-4.35,3.64,2.3a28.39,28.39,0,0,0-8.06-8.51l.32-.51c11.13-.51,14.78,3.39,14.78,6.65a4.07,4.07,0,0,1-4,4.23l.51.32c-.45.76-1.28.89-2.94.89h-6.53l6.91,3.84c-.38.77-1.28.9-2.88.9H411.9V43h14.79l3.71-4.09ZM390,21.25a11.22,11.22,0,0,1,.26,2.49c0,5.76-4.16,8.51-7.68,8.51-2.3,0-4.67-1.15-4.67-3.52,0-1.85,1.6-3.2,3.33-3.77,3-.19,6.91-1.47,7.87-3.78ZM411.9,34v3.71h8.52L424,34Z"/><path class="cls-2" d="M30.4,87.73H18V118H8.64V78.64H30.4ZM28.73,80.3H10.3v36h6V86.06H28.73Z"/><path class="cls-2" d="M95.93,116.59c-.45.7-1.34.9-3.13.9H71.29c5.44,5.75,16.07,9.47,25.54,10.68l-.13.77c-3.52,1-6.14,4-7.17,8.7-9.34-3.77-15.16-9.85-18.94-18.94v18.56c0,.13-1.79,2.3-9.86,2.3V124.84C54.46,130.6,45.76,135,35.65,138l-.45-.83a51.12,51.12,0,0,0,18.88-19.64H36l-.32-1h25v-8.25h-10v1c0,.26-1.41,3.26-9,3.26V89.39L51.33,93h3.52V85H36.54l-.32-1H83.07l4.67-6,8.58,6.08c-.52.7-1.35.9-3.14.9H77v8h3.78l3.39-4.41,9,6.33a4.08,4.08,0,0,1-2.62,1.41v12.87c0,.12-2.63,1.85-9.09,1.85v-2.81H67.58v.06l5.38.38c-.13.9-.58,1.41-2.37,1.73v6.08H82.81l4.61-5.89ZM50.69,94v13.18h4.16V94Zm12.92-9v8h4.61V85Zm0,22.2h4.61V94H63.61ZM81.47,94H77v13.18h4.48Z"/><path class="cls-2" d="M114,107.05c-2.24,3-3.58,6.28-3.58,9.16,0,5,4,9,14.59,9,7,0,12.86-.89,15.42-2,5.12,1,6.66,3.26,6.66,5.69,0,4.35-8.64,4.55-21.31,4.55-13.18,0-19.52-6.15-19.52-13.57,0-4.61,2.43-9.34,7.17-13.38Zm13-11.2A48,48,0,0,1,116.61,97c-3.91,0-9-4.1-8.58-8.32l.39.06c1.4,1.28,4.35,1.47,7.87,1.47,7.23,0,14.27-3,17.72-3.26,4,.25,8.2,2.94,8.2,6.46,0,1.86-2.24,3-4.23,3.07-4.16.2-10.88,1.86-18,5.51l-.51-.64c1.28-1,6.08-3.78,7.62-5.19Zm13.7-14.65c5.82,1.15,9.53,3.9,9.53,7.23a2.62,2.62,0,0,1-2.49,2.82,2.25,2.25,0,0,1-2.5-1.86A11.68,11.68,0,0,0,140.16,82Zm8.19-3.2c5.82,1.15,9.6,3.9,9.6,7.23A2.58,2.58,0,0,1,156,88.05a2.25,2.25,0,0,1-2.5-1.86,12,12,0,0,0-5.18-7.42Z"/><path class="cls-2" d="M175,106.41c-2.24,3-3.58,6.28-3.58,9.16,0,5,4,9,14.59,9,7,0,12.86-.89,15.42-2,5.12,1,6.66,3.26,6.66,5.69,0,4.35-8.64,4.55-21.31,4.55-13.19,0-19.52-6.15-19.52-13.57,0-4.61,2.43-9.34,7.16-13.38Zm13-11.26a40.61,40.61,0,0,1-10.43,1.22c-4,0-8.9-3.91-8.51-8.32l.38.06c1.41,1.41,3.84,1.47,7,1.47h.77c7.23,0,15.62-3.32,17.79-3.32,4.1,0,8.19,2.68,8.19,6.52,0,1.86-2.24,3-4.22,3.07-4.16.2-10.88,1.86-18,5.51l-.51-.64c1.28-1,6.08-3.84,7.62-5.25Z"/><path class="cls-2" d="M227.78,135.15c16.25-1.6,26.75-7.87,26.75-16.26,0-6.27-1.73-10.49-9.09-10.49-3.46,0-11.65,2.43-18.62,11.64-1.28,1.6-2.5,4-4.61,4-2.5-.06-4.1-1.85-4.1-4.61,0-4.28,2-4.6,4.68-7.29,5.69-5.76,15.67-16.26,20.09-20.48,1.41-1.34,2.24-2.11,2.24-2.43,0-.07-.13-.32-.51-.32A35.07,35.07,0,0,0,232.26,93c-1.47.89-1.86,1.85-3.59,1.85-3,.07-6.52-3.9-6.52-7.35a6.28,6.28,0,0,1,1.79-4.61l.38.06a4.13,4.13,0,0,0,4.48,4c4.22,0,11.2-1,14.4-2.43,1.79-.77,3.2-2.11,4-2.11,2.49,0,7.68,2.94,7.68,6.2,0,2.5-2.75,2.82-5,4.48-5.64,4.23-14.72,12.55-19,17.67l.13.12c6-3.84,12.16-5.82,17-5.82,9,0,15.68,5.82,15.61,14.33,0,11.78-10.55,16.71-35.58,16.9Z"/><path class="cls-2" d="M272.32,130.35h12.42V100.08h9.34v39.36H272.32Zm1.67,7.42h18.43v-36h-6V132H274Z"/></g></g></svg>