<svg xmlns="http://www.w3.org/2000/svg" viewBox="0 0 670 119.77"><defs><style>.cls-1{fill:#fff23f;}.cls-2{fill:#231815;}.cls-3{fill:#89c681;}.cls-4{fill:#fff;}.cls-5{fill:#87c796;}.cls-6{fill:none;}</style></defs><g id="レイヤー_2" data-name="レイヤー 2"><g id="contents"><path class="cls-1" d="M189,59.87c0,2.84-3.78,5.37-4.17,8.1s2.52,6.29,1.74,8.94-5.13,4.07-6.29,6.59.64,6.73-.87,9.07-6.06,2.44-7.89,4.55-1.27,6.62-3.38,8.45-6.5.64-8.85,2.16-3.07,6-5.62,7.16-6.4-1.22-9.1-.43-4.62,4.88-7.42,5.28-5.77-3-8.6-3-5.88,3.38-8.61,3-4.77-4.5-7.42-5.28-6.58,1.59-9.1.43-3.28-5.66-5.62-7.16-6.74-.33-8.85-2.16-1.55-6.34-3.38-8.46-6.38-2.19-7.89-4.54.3-6.52-.87-9.07-5.49-3.89-6.29-6.59S72.7,70.76,72.3,68s-4.17-5.26-4.17-8.1,3.78-5.37,4.17-8.1-2.51-6.28-1.74-8.94,5.14-4.06,6.29-6.58-.63-6.73.87-9.07,6.07-2.43,7.9-4.54S86.89,16,89,14.18s6.49-.63,8.85-2.14,3.07-6,5.62-7.17,6.39,1.23,9.09.44S117.19.43,120,0s5.77,3,8.61,3,5.87-3.38,8.6-3,4.77,4.5,7.42,5.28,6.57-1.59,9.1-.44S157,10.53,159.33,12s6.74.32,8.85,2.15,1.55,6.34,3.38,8.45,6.38,2.19,7.89,4.54-.3,6.52.87,9.07,5.5,3.89,6.29,6.58-2.13,6.15-1.74,8.94S189,57,189,59.87Z"/><path class="cls-2" d="M226.66,15.21c0,.69-.08,1.48-.11,2.38.29,5.18,2,20,15.37,26.31a15.37,15.37,0,0,0-4,4.46c-7.67-3.88-11.7-10.58-13.86-16.88A31.85,31.85,0,0,1,211.29,48.4a17.36,17.36,0,0,0-4.47-4.21c14.33-8.32,13.54-24.26,13.79-29Z"/><path class="cls-2" d="M272.25,28.49c-.15,8.32.28,15.05,2,15.05.47,0,.61-1.87.65-4.72a20.78,20.78,0,0,0,3.35,3.35c-.36,4.5-1.3,6.59-4.36,6.59-5.54,0-6.73-6.95-7-15.91H260l4.9,1.58a31.12,31.12,0,0,1-3.42,5.15,37.89,37.89,0,0,1,5.29,4.14l-4.18,4a36.35,36.35,0,0,0-4.86-4.18,36.94,36.94,0,0,1-8.82,5.87A28.72,28.72,0,0,0,245,45.34a30.59,30.59,0,0,0,8.39-4.79c-1.91-1.22-3.81-2.37-5.58-3.35l3.74-3.45c1.7.86,3.64,1.94,5.55,3.1a23.75,23.75,0,0,0,2.59-4H248.24V29.72a40.55,40.55,0,0,0-4.65-3.17c3.64-2.63,6.37-7.27,7.67-12.27l5.51,1.18c-.22.8-.47,1.55-.76,2.31h20.66v4.28H254.14c-.18.36-.36.72-.58,1.08h19.95v4.18H252.59V24.79a25.09,25.09,0,0,1-2.84,3.7Z"/><path class="cls-2" d="M295.51,42a25.84,25.84,0,0,0,3.5-.65c4.53-1.12,7.56-4.29,7.56-9s-2.24-7.89-6.34-8.86a75.52,75.52,0,0,1-2.09,9.29c-2.12,7.12-5.32,11.91-9.54,11.91-4.39,0-7.77-4.79-7.77-10.87,0-8.46,7.31-15.66,16.84-15.66,9.08,0,14.83,6.27,14.83,14.37,0,7.48-4.42,13-13.71,14.54ZM294.36,23.6a10.63,10.63,0,0,0-7.92,9.65c0,3.09,1.08,4.71,2.31,4.71,1.44,0,2.52-2.16,3.78-6.3A51.84,51.84,0,0,0,294.36,23.6Z"/><path class="cls-2" d="M327.71,14.49H340v4.68h-7.09V37.35h-5.15Z"/><path class="cls-2" d="M366.34,39.47A36.91,36.91,0,0,0,377,44.08a22,22,0,0,0-3.49,4.36A36.68,36.68,0,0,1,362.38,42v6.69h-5.33V42.24A34.25,34.25,0,0,1,346,48.47a26.22,26.22,0,0,0-3.46-4.35,37,37,0,0,0,10.91-4.65h-9.83V34.94h13.46V33.39H345.71V22.12h7.49V20.47h-9.43V16h32.11v4.5H365.76v1.65h8.14V33.39H362.38v1.55H376v4.53Zm-15.8-10.29h2.66V26.33h-2.66Zm7.52-7.06h2.84V20.47h-2.84Zm2.84,7.06V26.33h-2.84v2.85Zm4.86-2.85v2.85h3V26.33Z"/><path class="cls-2" d="M387.69,34.54a14.23,14.23,0,0,0-.54,3.38c0,2,1.83,3.53,6.66,3.53a54.29,54.29,0,0,0,12.7-1.4l0,6.12A58.84,58.84,0,0,1,394,47.36c-8.67,0-12.71-3-12.71-8.07A25.29,25.29,0,0,1,382,34ZM405.4,15.39a56,56,0,0,1,2.8,4.93l-3.42,1.44-.39-.79v3.78c-2.52.22-7.24.43-10.69.43-3.82,0-6.95-.18-9.9-.39V19a94.36,94.36,0,0,0,9.86.43c3.17,0,6.95-.18,9.72-.4a19.68,19.68,0,0,0-1.37-2.3Zm4.42-1.73a53.19,53.19,0,0,1,2.85,4.9L409.28,20a40.26,40.26,0,0,0-2.84-5Z"/><path class="cls-2" d="M422.81,34.18a14.31,14.31,0,0,0-.54,3.38c0,2,1.84,3.53,6.66,3.53a54.38,54.38,0,0,0,12.71-1.4l0,6.12A58.8,58.8,0,0,1,429.15,47c-8.68,0-12.71-3-12.71-8.07a25.39,25.39,0,0,1,.68-5.25Zm-3.89-15.51a94.57,94.57,0,0,0,9.87.43c3.56,0,7.92-.22,10.72-.5v5.79c-2.52.22-7.23.43-10.69.43-3.81,0-6.94-.18-9.9-.39Z"/><path class="cls-2" d="M454.64,17.88c1.91,0,8.78-.08,11.19-.22a17,17,0,0,0,2.88-.43L471.48,21c-.79.4-1.62.94-2.19,1.3a81.57,81.57,0,0,0-7.42,5.43,17.74,17.74,0,0,1,2.63-.21c6.48,0,10.91,3.78,10.91,8.81,0,6.88-5.11,12.1-19.12,11l-1.58-5.61c9.83,1.33,14.72-.87,14.72-5.37,0-2.44-2.41-4.24-6.15-4.24-6,0-9.79,4.1-12.92,7.77l-4-4.28c4-3.6,12.27-10.58,14.94-13-1.77,0-4.72.29-6.37.39-1,.08-2.23.22-3,.36l-.21-5.57A24.17,24.17,0,0,0,454.64,17.88Z"/><path class="cls-2" d="M491.1,48.69H478.86V44H486V25.83h5.15Z"/><path class="cls-2" d="M514.94,17.52a32.5,32.5,0,0,0-1,3.63,93.9,93.9,0,0,0-1.69,12.71,6.05,6.05,0,0,0,0,.83c.46-1,.89-1.73,1.36-2.74L516.27,34a90.14,90.14,0,0,0-2.59,9.18,11.21,11.21,0,0,0-.22,1.69c0,.4,0,1.05,0,1.62l-5,.33a45.53,45.53,0,0,1-1.44-11.74,101.24,101.24,0,0,1,1.41-14c.14-1.08.39-2.7.43-4Zm8.42,17.78a12.06,12.06,0,0,0-.36,2.84c0,1.58,1.48,2.16,4.39,2.16a42.54,42.54,0,0,0,9-.94l.11,5.84a51.38,51.38,0,0,1-9.39.68c-6.23,0-9.33-2.34-9.33-6.12a21.22,21.22,0,0,1,.65-4.89Zm12-15.66v5.58a109,109,0,0,1-15.65,0l0-5.54A82,82,0,0,0,535.38,19.64Z"/><path class="cls-2" d="M545.35,23.92c2.59-.79,10-3.31,15.23-3.31,6.73,0,12,3.85,12,10.8,0,7.81-7.23,13.57-20.7,14.22l-2.52-5.76c9.83-.18,17-2.95,17-8.57,0-3.13-2-5.47-6-5.47-4.94,0-13,3.35-17.21,5.26L540.71,25C542,24.82,544.09,24.28,545.35,23.92Z"/><path class="cls-2" d="M583.71,24.14c0,2.34,0,4.68.22,7.05.43,4.68,1.15,8,3.2,8,1.66,0,2.92-4.46,3.42-6.88l4.36,5.33c-2.49,6.3-4.75,8.53-7.89,8.53-4.21,0-7.7-3.6-8.71-13.35-.36-3.39-.39-7.45-.39-9.72a20.44,20.44,0,0,0-.33-3.85l6.63.07A33,33,0,0,0,583.71,24.14Zm24.55,14.43-5.72,2.2c-.5-5.36-2.23-14.47-6.41-19l5.51-1.8C605.13,24.07,608,33.43,608.26,38.57Z"/><path class="cls-2" d="M614.6,19.93c3.35-.29,8.74-.72,15.26-1.3,3.56-.29,7.77-.5,10.37-.61l0,5.54a46.11,46.11,0,0,0-6.84.43,9.92,9.92,0,0,0-7.16,9.26c0,5.25,4.93,7.3,11.09,7.66l-2,6c-8-.61-14.76-4.93-14.76-12.52A14.58,14.58,0,0,1,625.07,24c-3.06.33-9.32,1.05-13.6,2l-.54-5.86C612.37,20.07,613.91,20,614.6,19.93Z"/><path class="cls-2" d="M239.33,74.82a40.5,40.5,0,0,1-3.6,12.89,16.69,16.69,0,0,0,6.08,5.44,20.63,20.63,0,0,0-3.64,4.57,19.31,19.31,0,0,1-5.68-5.22,23.06,23.06,0,0,1-7.2,5.36,23.61,23.61,0,0,0-3-4.79,16.82,16.82,0,0,0,7.34-5.54,45.39,45.39,0,0,1-2-6,13.49,13.49,0,0,1-1.19,1.69,22.26,22.26,0,0,0-2.66-2.56,39.92,39.92,0,0,1-4.86,5V86l6.05-.43V90c-2,.18-4,.32-6.05.47V93c0,2.12-.36,3.31-1.8,4s-3.2.76-5.47.76a16.41,16.41,0,0,0-1.44-4.43c1.19,0,2.77,0,3.2,0s.62-.11.62-.51v-2l-6.45.47L207,86.7c2-.1,4.35-.25,7-.39V83.72h1.51c.43-.4.86-.83,1.29-1.3h-1.72a37.22,37.22,0,0,1-5,3.46,29.74,29.74,0,0,0-3.46-4,31.33,31.33,0,0,0,3.85-2.23V78.42h1.69c.54-.43,1.08-.86,1.59-1.33h-6.3V72.63h4.82v-1.8h-3.71V66.47h3.71v-3h4.83v3h3V69a34.9,34.9,0,0,0,2.13-4.64L227,65.75a44.55,44.55,0,0,1-3.42,6.88h1.51V75a42.35,42.35,0,0,0,3.1-11.52l5.29.83Q233,67.19,232.27,70h9.11v4.82Zm-22.28-2.19h.68c.43-.58.86-1.19,1.26-1.8h-1.94Zm4.17,5.54,1.3,1A23.41,23.41,0,0,0,224,77.09h-3.6c-.39.47-.75.9-1.15,1.33h1Zm9.86-3.35a43.23,43.23,0,0,0,1.59,6.48A39.29,39.29,0,0,0,234,74.82Z"/><path class="cls-2" d="M267.79,78.64c-1.77,1.48-4.76,4.18-5.33,4.82a4,4,0,0,1,1.37.4,3.76,3.76,0,0,1,1.83,2.34c.33.9.61,2,.9,2.81a2.08,2.08,0,0,0,2.2,1.51,40.42,40.42,0,0,0,7.12-.58l-.35,5.65a61.37,61.37,0,0,1-7.17.47c-3.63,0-5.54-.75-6.44-3.06a32.09,32.09,0,0,1-1-3.31c-.4-1.26-1.16-1.62-1.77-1.62s-1.26.61-2.12,1.51c-1.19,1.26-3.17,3.49-5.87,6.91L246.12,93c.75-.62,1.76-1.48,2.84-2.56,2.09-2.09,8-8,11.09-11.34-2.31,0-5.58.33-7.56.51a31.33,31.33,0,0,0-3.21.46l-.5-5.94c.83.08,2.27.15,3.64.15S261.88,74,265,73.6a12.62,12.62,0,0,0,2.16-.43l3.14,3.53C269.23,77.45,268.54,78,267.79,78.64Zm1-12.24-.69,5c-3.85-.29-10.72-1-14.93-1.69l.82-5C258,65.43,264.91,66.15,268.76,66.4Z"/><path class="cls-2" d="M280.82,68.92c3.34-.29,8.74-.72,15.26-1.29,3.56-.29,7.77-.51,10.37-.62l0,5.55a43.56,43.56,0,0,0-6.84.43c-3.85.86-7.16,5-7.16,9.25,0,5.25,4.93,7.31,11.09,7.67l-2,6c-8-.61-14.76-4.93-14.76-12.53a14.53,14.53,0,0,1,4.5-10.4c-3.06.32-9.32,1-13.61,2l-.54-5.87C278.58,69.07,280.13,69,280.82,68.92Z"/><path class="cls-2" d="M317.3,90.73a4.26,4.26,0,0,1,8.49,0,4.26,4.26,0,0,1-8.49,0Zm.54-17.42-.22-6h7.88l-.21,6-1.48,11.38h-4.5Z"/><path class="cls-3" d="M76.39,39.91A38.93,38.93,0,1,1,28.36,13,38.92,38.92,0,0,1,76.39,39.91Z"/><polyline class="cls-3" points="60.16 76.47 87.96 79.61 67.91 58.55"/><path class="cls-4" d="M25.48,32.93a.46.46,0,0,1-.4.62l-8.92,1.78A11.19,11.19,0,0,1,14,39.09a.48.48,0,0,1-.27.17c-.21,0-.31-.08-.31-.35a39.93,39.93,0,0,0-.76-8.61q-.07-.37.33-.42l3.52-.46a.64.64,0,0,1,.8.56.62.62,0,0,1-.41.71.17.17,0,0,0-.1.18,32.49,32.49,0,0,1-.38,3.33l4.66-.92,1.13-1.79a.65.65,0,0,1,.42-.33.73.73,0,0,1,.55.14l1.88,1.18A.74.74,0,0,1,25.48,32.93Zm1.1,7a.47.47,0,0,1-.43.63l-4.37.87q.36,5.22-5.1,8.47a1.19,1.19,0,0,1-.69.24c-.11,0-.18-.05-.2-.18a.39.39,0,0,1,.05-.28,13,13,0,0,0,2.5-7.56l-3.9.78a.54.54,0,0,1-.21-1.06l4-.8c-.07-.53-.36-2-.86-4.43a.65.65,0,0,1,.21-.31l2.95-.45c.53-.09.84.06.91.44a.65.65,0,0,1-.27.71.19.19,0,0,0-.07.18c.15.74.33,1.8.55,3.18l1-.19.91-1.52a.66.66,0,0,1,.42-.34.82.82,0,0,1,.55.14l1.66,1A.72.72,0,0,1,26.58,40ZM26.45,47a1.24,1.24,0,0,1-1.35-.47,13.81,13.81,0,0,0-2.53-2.4.45.45,0,0,1-.19-.26c-.07-.31.09-.5.46-.56a7.19,7.19,0,0,1,2.82.13,2.33,2.33,0,0,1,1.92,1.8,1.54,1.54,0,0,1-.19,1.14A1.34,1.34,0,0,1,26.45,47ZM37.34,31.47a.6.6,0,0,1,.21.37.58.58,0,0,1-.07.45l-.47.56,1.4,7.69a1,1,0,0,1-.78,1.33l-1.81.52a.43.43,0,0,1-.4-.1.47.47,0,0,1-.24-.35L35,41.1l-3,.6.07.34a1,1,0,0,1-.65,1.25l-1.74.6c-.46.16-.75,0-.85-.52L26.53,32.72a.39.39,0,0,1,.09-.36.33.33,0,0,1,.34-.11l3,.68,3.18-.63,1.22-1.72a.66.66,0,0,1,.44-.26.65.65,0,0,1,.51.07ZM33.6,33.28l-3.29.66,1.47,6.74,3.06-.61Z"/><path class="cls-4" d="M49.83,30.05a.28.28,0,0,1,.09.17,1.67,1.67,0,0,1-.23.79l-1.08,2.4A2.14,2.14,0,0,0,48.52,35c.34,1.08.06,1.77-.85,2.06a1.88,1.88,0,0,1-1.88-.39A3.58,3.58,0,0,1,44.69,35a35.92,35.92,0,0,1-1-4c-.32-1.63-.65-3.7-1-6.21,0-.27.1-.42.4-.46l3.1-.35c.42,0,.65.11.7.47a.6.6,0,0,1-.33.66.18.18,0,0,0-.09.13,51.62,51.62,0,0,0,1.08,6.63c0,.21.15.21.32,0l1.19-1.47C49.4,30,49.65,29.89,49.83,30.05Zm4.91-4a.63.63,0,0,1-.15.66.22.22,0,0,0,0,.14A40.62,40.62,0,0,1,56,33.12q.77,7.56-7.48,11.64-.65.33-.84.06t.21-.75a17.94,17.94,0,0,0,3.89-5.73,10.7,10.7,0,0,0,.41-4.82,36.45,36.45,0,0,0-1.59-6.61.35.35,0,0,1,.29-.47l3-.69C54.33,25.63,54.63,25.75,54.74,26.09Z"/><path class="cls-4" d="M34.87,55.75a.47.47,0,0,1-.43.6l-8,1.6.62,13.7a1.43,1.43,0,0,1-1.41,1.7l-1.28.15c-.43,0-.7-.19-.8-.72a1.91,1.91,0,0,1-.06-.42L23,58.62l-3.66.73a.55.55,0,1,1-.22-1.08L23,57.51l-.26-4.76a.33.33,0,0,1,.36-.4l3-.18a.54.54,0,0,1,.65.5.49.49,0,0,1-.38.57.16.16,0,0,0-.09.12l.15,3.48L30,56.11l1.35-2a.7.7,0,0,1,.45-.33.72.72,0,0,1,.55.13l2,1.35A1,1,0,0,1,34.87,55.75Zm4.89,4a.62.62,0,0,1-.57.82l-.76.16L35.54,63.8a.81.81,0,0,1-.3.14.28.28,0,0,1-.38-.25.55.55,0,0,1,0-.22l.19-2.37-3.79.76c-.39.08-.62-.06-.69-.41a.51.51,0,0,1,.44-.67L35,60l1.34-1.66a.85.85,0,0,1,.48-.34.72.72,0,0,1,.51.12l1.93,1.14C39.57,59.45,39.74,59.61,39.76,59.73Zm1.45,7.92a2.7,2.7,0,0,1,.18.52c.16.82-.26,1.45-1.27,1.89a10.08,10.08,0,0,1-3.76.91,4.14,4.14,0,0,1-4.51-3.29c-.12-.41-.08-.67.12-.79s.33,0,.61.21a4.72,4.72,0,0,0,1.06.66,3.62,3.62,0,0,0,2,.13,10.14,10.14,0,0,0,2.89-1.15,2.28,2.28,0,0,1,.71-.28A1.71,1.71,0,0,1,41.21,67.65Z"/><path class="cls-4" d="M54.74,58.58c0,.19-.08.45-.36.76L52,62a1.26,1.26,0,0,0,0,1.46,2.28,2.28,0,0,1,.2.59c.18.89-.3,1.43-1.43,1.62a2.7,2.7,0,0,1-2.85-1.54,19.09,19.09,0,0,1-2.27-6.31c-.2-1-.41-2.36-.64-4,0-.22.06-.33.23-.35L48.47,53c.39-.06.61.09.66.44a.53.53,0,0,1-.29.61q-.08,0-.06.09a24.58,24.58,0,0,0,1.45,6.34c.13.3.37.33.7.08l2.87-2.08a.49.49,0,0,0,.14-.11,1.07,1.07,0,0,1,.36-.15C54.54,58.21,54.69,58.32,54.74,58.58ZM65,56.9c.33,1.65-.17,2.61-1.49,2.87a1.46,1.46,0,0,1-1.82-1.2,15.25,15.25,0,0,0-1.19-3.1,9,9,0,0,0-3-2.83c-.29-.17-.39-.38-.29-.62s.26-.26.6-.29A7,7,0,0,1,65,56.9Z"/><path class="cls-5" d="M128.44,53.54a28.07,28.07,0,0,1-.87,6.73,36.62,36.62,0,0,1-2.49,7,38.52,38.52,0,0,1-4,6.59,30.85,30.85,0,0,1-5.27,5.49,25.4,25.4,0,0,1-6.43,3.78,19.57,19.57,0,0,1-7.4,1.41,12.94,12.94,0,0,1-5.52-1.14,12.11,12.11,0,0,1-4.18-3.19,14.43,14.43,0,0,1-2.67-5,21,21,0,0,1-.94-6.48,26.55,26.55,0,0,1,.89-6.58,35.6,35.6,0,0,1,2.55-6.81,38.59,38.59,0,0,1,4-6.4,29.81,29.81,0,0,1,5.27-5.37,26,26,0,0,1,6.35-3.69A19.28,19.28,0,0,1,115,38.5a13.18,13.18,0,0,1,5.45,1.11,12.57,12.57,0,0,1,4.25,3.1,13.69,13.69,0,0,1,2.75,4.74A18.52,18.52,0,0,1,128.44,53.54Zm-9.3,0c0-2.34-.43-4-1.29-5A4.13,4.13,0,0,0,114.54,47a11.89,11.89,0,0,0-6.21,1.8,19.59,19.59,0,0,0-5.32,4.8,24.88,24.88,0,0,0-3.73,6.86,22.64,22.64,0,0,0-1.41,7.91,19,19,0,0,0,.24,3.12A9.46,9.46,0,0,0,99,74.22a5.24,5.24,0,0,0,1.68,2,4.73,4.73,0,0,0,2.75.74,9.91,9.91,0,0,0,4.75-1.16,14.78,14.78,0,0,0,3.93-3.09,21.34,21.34,0,0,0,3.06-4.41,35.38,35.38,0,0,0,2.21-5.07,36.2,36.2,0,0,0,1.34-5.12A27.07,27.07,0,0,0,119.14,53.54Z"/><path class="cls-3" d="M166.14,73.88l.33-.06a1.24,1.24,0,0,1,.27,0,2.07,2.07,0,0,1,1.62.74,2.63,2.63,0,0,1,.64,1.8,3.94,3.94,0,0,1-1.08,2.72,8.86,8.86,0,0,1-2.75,2,15.13,15.13,0,0,1-3.64,1.22,18.39,18.39,0,0,1-3.79.42,27.72,27.72,0,0,1-2.9-.16,18.13,18.13,0,0,1-3.14-.67,29.2,29.2,0,0,1-3.83-1.48c-1.42-.64-3.09-1.51-5-2.58l-4.27,2.67c-1,.65-1.82,1.13-2.38,1.44a6.92,6.92,0,0,1-1.15.55,2.15,2.15,0,0,1-.55.09,2.33,2.33,0,0,1-1.14-.34,5.33,5.33,0,0,1-1.08-.91,4.67,4.67,0,0,1-.83-1.26,3.55,3.55,0,0,1-.32-1.5,3.08,3.08,0,0,1,.3-1.3,2.92,2.92,0,0,1,1-1.15c2-1.11,4.1-2.28,6.19-3.53s4.1-2.55,6.05-3.92,3.75-2.78,5.44-4.22a42.69,42.69,0,0,0,4.43-4.36,21.72,21.72,0,0,0,3-4.39,9.7,9.7,0,0,0,1.08-4.31,3.69,3.69,0,0,0-1-2.94,4.1,4.1,0,0,0-2.68-.85,10.31,10.31,0,0,0-2.88.46,24.43,24.43,0,0,0-3.12,1.18c-1.05.48-2.08,1-3.12,1.52L143,52.27c-.87.47-1.65.86-2.33,1.17a4.1,4.1,0,0,1-1.57.46,3.11,3.11,0,0,1-1.38-.32,3.57,3.57,0,0,1-1.11-.85,4.31,4.31,0,0,1-.71-1.18,3.63,3.63,0,0,1-.26-1.34,3.7,3.7,0,0,1,1.06-2.37,13.56,13.56,0,0,1,2.82-2.38,29.33,29.33,0,0,1,4-2.17,47.35,47.35,0,0,1,4.64-1.8,37.14,37.14,0,0,1,4.71-1.22,23.45,23.45,0,0,1,4.27-.44,15.24,15.24,0,0,1,4.27.58,9.09,9.09,0,0,1,3.48,1.84,8.71,8.71,0,0,1,2.33,3.35,13.3,13.3,0,0,1,.85,5.07,16.59,16.59,0,0,1-.81,5.08A16.84,16.84,0,0,1,164.3,61a34.54,34.54,0,0,1-5.75,5.56,72.65,72.65,0,0,1-9.25,6,27.94,27.94,0,0,0,4.25,1.48,15.89,15.89,0,0,0,4.06.6c.88,0,1.69,0,2.4,0s1.38-.08,2-.16,1.29-.16,1.93-.25Z"/><rect class="cls-6" y="0.44" width="670" height="119"/></g></g></svg>