<svg xmlns="http://www.w3.org/2000/svg" viewBox="0 0 598.91 362.82"><defs><style>.cls-1{fill:#7b001e;}.cls-2{fill:#651815;}.cls-3{fill:#a00000;}.cls-4{fill:none;stroke:#651815;stroke-miterlimit:10;}</style></defs><g id="レイヤー_2" data-name="レイヤー 2"><g id="文字_写真" data-name="文字＆写真"><path d="M91.92,296.15H76.83V255.4H91.92v.75c-7,3.12-11.57,10-11.57,19.63S85,292.28,91.92,295.4Z"/><path d="M114.27,291.09v1.41H96.89v-1.41l7-.84c0-2.64.09-5.23.09-7.83v-18l-6.6.75v-1.59l9.5-2.46.66.53-.17,6.82v14c0,2.6,0,5.19.09,7.83Z"/><path d="M123.33,273.88a16.93,16.93,0,0,1,5-.74c6.08,0,10.21,3.47,10.21,9.68s-4.31,10.29-10.95,10.29c-4.67,0-7.79-2.11-8.8-6.33a2.06,2.06,0,0,1,2.06-1.45c1.24,0,1.76.61,2.34,2.68l.88,2.86a11.57,11.57,0,0,0,3.25.48c5,0,7.7-3.16,7.7-8.09,0-5.11-3-7.84-7.7-7.84a14.68,14.68,0,0,0-4.79.75l-1.24-.26,1-14.39h15.44v3.3H124Z"/><path d="M155.72,257.16c-.18.49-.71.84-1.72.79a69.47,69.47,0,0,1-4,8.89l2,.8c-.13.39-.52.66-1.32.79v26.44a3,3,0,0,1-2.24,1H148V270.41a41.22,41.22,0,0,1-5.28,6.82l-.66-.44a72.31,72.31,0,0,0,9.2-21.12Zm27.06,3a3.32,3.32,0,0,1-1.89.88v33.1c0,.35-1.41,1.1-2.42,1.1h-.4v-3.17H158.45v2.42c0,.39-1,1.14-2.21,1.14h-.52V257.78l2.94,1.41h19l1.59-1.85Zm-4.71,30.63V260.46H158.45v30.32Zm-8.76-21.39v6h2.78l1.27-1.4,2.51,2.37a3.13,3.13,0,0,1-1.58.79v9.51a3,3,0,0,1-2,.88h-.44v-2.29h-7.26v1.85c0,.22-1,.79-2,.79h-.4V274.24l2.64,1.18h2v-6h-6.42l-.35-1.27h6.77V262l4,.44c-.09.57-.44,1-1.46,1.14v4.58H172l1.72-2.25s1.94,1.63,3.17,2.86c-.13.45-.53.66-1.15.66Zm2.51,7.31h-7.26V284h7.26Z"/><path d="M206,256.55l4.93,3.6c-.71.84-2.29,1.32-4.49,1.5l0,2.16c1.5,13.77,8.23,24.07,20.6,29.13l-.18.53c-1.49,0-2.42.88-3.08,2.5a35,35,0,0,1-17.12-23.89A34.65,34.65,0,0,1,187,295.93l-.44-.66c9.77-5.19,17.17-15.89,18.62-31.33v-3.3h-10l-.36-1.28h9.46Z"/><path d="M241.56,275.78c0-9.68-4.62-16.51-11.57-19.63v-.75h15.09v40.75H230v-.75C236.94,292.28,241.56,285.46,241.56,275.78Z"/><path class="cls-1" d="M357.74,240.91q4.81,4.83,4.83,13.73a30.41,30.41,0,0,1-2.23,10.4,26.53,26.53,0,0,1-6.31,8.53l-10,9.65q-2.22,2.22-12.25,13.36H350q7.79,0,10.76-13h1.48l-1.85,21.89h-36V301.4q6.32-7.78,18.93-22.26a62.34,62.34,0,0,0,7.42-11.51c1.24-3,1.86-7.29,1.86-13,0-5.19-1.25-9-3.72-11.5a10.06,10.06,0,0,0-7.42-3,11.72,11.72,0,0,0-8.53,3.71,16.15,16.15,0,0,0-4.83,11.88,5.4,5.4,0,0,1,4.46-2.6,5.07,5.07,0,0,1,3.71,1.48,6.38,6.38,0,0,1,0,8.17,5.53,5.53,0,0,1-4.08,1.48,6,6,0,0,1-4.83-2.22,8.89,8.89,0,0,1-2.23-5.94q0-9.27,5.94-15.22a17.18,17.18,0,0,1,12.62-5.19Q352.55,235.72,357.74,240.91Z"/><path class="cls-1" d="M382.23,293.61a8.51,8.51,0,0,1,2.23,6.31q0,7.79-6.68,14.47a29.45,29.45,0,0,1-5.57,4.08l-1.48-2.59a17.17,17.17,0,0,0,8.53-10.77,12.06,12.06,0,0,1-3,.37,6.35,6.35,0,0,1-6.68-6.68,7.55,7.55,0,0,1,2.22-5.56,7,7,0,0,1,5.2-1.86A7.14,7.14,0,0,1,382.23,293.61Z"/><path class="cls-1" d="M408.21,305.48q-4.45,0-4.45-7.42a55.21,55.21,0,0,1,1.11-11.5,56.42,56.42,0,0,1,3.71-11.51A329,329,0,0,1,422.31,245H400.79q-5.21,0-7.42,13.73h-1.86l2.23-23h35.62v3.34Q417.86,258,413.78,275.8a41.28,41.28,0,0,0-1.49,10.76c0,2.72.25,6.44.74,11.13Q413.78,305.49,408.21,305.48Z"/><path class="cls-1" d="M460.16,235.72v59q0,8.17,6.31,8.17h3v2.59h-28.2v-2.59h4.08q6.3,0,6.31-8.17V252.05q0-8.16-6.68-8.17h-3.71v-2.59h5.19q7.8,0,11.14-5.57Z"/><path class="cls-1" d="M511.37,240.54q8.91,8.91,8.91,29.32,0,21.9-8.91,30.8-4.81,4.83-10,4.82t-10-4.82q-9.65-9.65-9.64-30.8,0-19.67,9.64-29.32,4.83-4.81,10-4.82T511.37,240.54Zm-14.47.75q-6.31,6.32-6.31,28.57,0,23.75,6.31,30.06a5.58,5.58,0,0,0,8.91,0q5.56-5.57,5.56-30.06,0-22.26-5.56-28.57a5.63,5.63,0,0,0-4.46-2.23A6.41,6.41,0,0,0,496.9,241.29Z"/><path class="cls-1" d="M567,272.1q1.71,2.28-1.13,2.47v33.36c0,.51-.57,1.14-1.71,1.9a6.61,6.61,0,0,1-3.79,1.33c-.26,0-.38-.19-.38-.57v-1.9c0-.25-.44-.57-1.33-.95L554,306q-.75-.57,0-.57H560c1,0,1.52-.38,1.52-1.14V289.92H533.48v20.29l-1,.57c-1.9.76-3,.76-3.41,0V268.5l4.74,2.84h26.92l2.46-3Zm-33.55,16.69h11.75V272.48H533.48Zm16.11,0h11.95V272.48H549.59Z"/><path d="M493.79,362.29l-.65.53c-4.69-4.68-6.89-9.83-6.89-16a21.65,21.65,0,0,1,6.89-16.06l.65.55c-4.06,5.9-5.24,9.9-5.24,15.51S489.76,356.43,493.79,362.29Z"/><path d="M503,343.66c6.14,2.2,4.56,6.1,2.64,4.74a11.38,11.38,0,0,0-2.64-4.12v13.64a2,2,0,0,1-1.7.68H501V345.24a25.05,25.05,0,0,1-5.39,7.62l-.41-.43a32,32,0,0,0,5.24-12h-4.21l-.22-.93h5v-5.3a48.51,48.51,0,0,1-5,1l-.19-.49a38.06,38.06,0,0,0,9.09-4.22l2.6,2.05c-.28.31-.8.31-1.55.09-.83.34-1.86.68-3,1v5.83h1.21l1.34-1.74s1.52,1.28,2.45,2.18c-.07.34-.38.49-.81.49H503ZM523.89,356c.62.25.71.46.71.87,0,.8-.77,1.17-4.15,1.17h-2.08c-1.92,0-2.26-.49-2.26-1.86v-10.6h-2.26c-.59,6.57-2.61,10.42-9,13l-.22-.46c5.27-3,6.66-6.76,7-12.53h-1.36v.9c0,.18-.84.62-1.64.62h-.28V335.87l2.08,1H516a39.68,39.68,0,0,0,3-6.55l3.07,1.06c-.12.34-.5.56-1.15.49a29.53,29.53,0,0,1-4.12,5H520v0h.06l1-1.14,2,1.8a2.42,2.42,0,0,1-1.15.55v8.28a2.14,2.14,0,0,1-1.58.62H520v-1.3h-2v10.14c0,.43.09.56.81.56h1.64c.78,0,1.33,0,1.58,0a.48.48,0,0,0,.47-.41c.18-.49.56-2.51.87-4.37h.4Zm-14.45-25.46c6.27,2.85,4.47,7.1,2.39,5.49a14.42,14.42,0,0,0-2.76-5.27Zm.84,14.11H520v-7h-9.71Z"/><path d="M533.62,352.93c2.14,2.48,4.5,2.85,9.83,2.85,3.63,0,8.53,0,12.25-.12v.43a1.78,1.78,0,0,0-1.55,1.71H543.48c-5.64,0-8.12-.72-10.32-4.28a51.58,51.58,0,0,1-4.56,4.24.63.63,0,0,1-.37.78l-1.43-2.64c1.21-.52,3.1-1.48,4.87-2.45v-9.14h-4.56l-.19-.93h4.31l1.18-1.58,2.7,2.23a2.46,2.46,0,0,1-1.49.56Zm-5.24-21.8c7.75,2.39,6.26,7.44,3.85,5.86a14.45,14.45,0,0,0-4.16-5.61Zm5.64,21.7c5-3.65,8.78-9.73,10.21-17.3-.13-.74-.22-1.52-.31-2.32h-6.17l-.28-.9h5.67l1.09-1.58,2.91,2.11a3.46,3.46,0,0,1-2.29.74c1.14,7.35,4.09,14.2,10.75,17.55l-.12.34a2.83,2.83,0,0,0-1.92,1.67c-4.37-2.88-6.85-7.16-8.34-12.68A25.54,25.54,0,0,1,534.4,353.3Z"/><path d="M558.42,329.86c4.19,2.66,8.34,7,8.34,14.51s-4.15,11.84-8.34,14.51l-.53-.62a17.55,17.55,0,0,0,0-27.78Z"/><path d="M334.89,332.61l.9.9-10.24,10.23L335.79,354l-.9.9-10.23-10.23L314.39,354.9l-.9-.89,10.27-10.27-10.24-10.23.9-.9,10.24,10.23Zm-19.07,13.46a2.33,2.33,0,1,1,2.32-2.33A2.35,2.35,0,0,1,315.82,346.07Zm6.51-11.16a2.33,2.33,0,1,1,2.33,2.32A2.35,2.35,0,0,1,322.33,334.91ZM327,352.58a2.33,2.33,0,1,1-2.32-2.33A2.33,2.33,0,0,1,327,352.58Zm6.51-11.16a2.33,2.33,0,1,1-2.32,2.32A2.34,2.34,0,0,1,333.49,341.42Z"/><path d="M348.34,351.62c1.46,2.26,4.15,3.32,7.72,3.47,3.38.12,10.26,0,13.89-.22a10.35,10.35,0,0,0-.74,2.36c-3.38.12-9.74.19-13.15.06-4-.15-6.79-1.27-8.78-3.66-1.48,1.31-3,2.64-4.68,4l-1.24-2.32a53.18,53.18,0,0,0,4.72-3.54V343.9h-4.31v-2.17h6.57Zm-1-15a21.54,21.54,0,0,0-5.27-4.9l1.7-1.39a22.89,22.89,0,0,1,5.4,4.77Zm14.07,7.26a11.36,11.36,0,0,0,8.1,7.69,7.69,7.69,0,0,0-1.46,1.92,12.81,12.81,0,0,1-8.16-8c-1,2.79-3.16,5.64-8.09,7.85a10.37,10.37,0,0,0-1.52-1.71c5.37-2.17,7.17-5.12,7.72-7.78h-8v-2.08h8.22c0-.31,0-.59,0-.87v-3.44h-7.25v-2.05h3.87a17.29,17.29,0,0,0-2.66-5l2-.77a16.93,16.93,0,0,1,2.82,4.93l-1.86.83h13.36v2.05h-7.93V341a7.86,7.86,0,0,1,0,.84h8.89v2.08Zm5.43-13.55a59.85,59.85,0,0,1-3.35,5.11l-1.89-.68a30.62,30.62,0,0,0,2.88-5.21Z"/><path d="M379.83,342.53c.87,1,4,5.06,4.66,6.11l-1.52,1.8c-.56-1.15-2-3.53-3.14-5.27v12.71H377.7V345.14a35.44,35.44,0,0,1-4.28,8.83,14.35,14.35,0,0,0-1.18-2.23,32,32,0,0,0,4.84-9.64h-4.35v-2.17h5V329.7h2.13v10.23h5.06v2.17h-5.06Zm-5.2-3.69A30,30,0,0,0,373,332l1.68-.4a28.76,28.76,0,0,1,1.83,6.79Zm10.26-6.91a66.27,66.27,0,0,1-2.54,7l-1.49-.5a56.89,56.89,0,0,0,2-7ZM397,349.17v8.71h-2.17v-8.31l-9.61,1.74-.37-2.14,10-1.77V329.6H397V347l3.66-.65.34,2.11Zm-6.26-4.34a23.19,23.19,0,0,0-5.15-3.72l1.09-1.62a24.43,24.43,0,0,1,5.21,3.48Zm1.3-7.51a25.9,25.9,0,0,0-4.87-4l1.18-1.55a23.87,23.87,0,0,1,4.87,3.79Z"/><path d="M417.59,344.39s0,.72,0,1c-.37,7.72-.68,10.54-1.52,11.5a2.45,2.45,0,0,1-2,.87,31.17,31.17,0,0,1-3.78,0,4.85,4.85,0,0,0-.65-2,34.18,34.18,0,0,0,3.53.16,1.22,1.22,0,0,0,1-.34c.56-.62.87-3,1.15-9.09h-5.08c-.69,4.5-2.14,8.78-5.4,11.47a5.93,5.93,0,0,0-1.58-1.58c4.22-3.35,5-9.67,5.27-15.28h-3.38V331h12.19v10.08H410.8c-.06,1.08-.15,2.2-.28,3.31ZM407.33,339h7.88v-5.95h-7.88Zm15.44,11.32h-2.23V333.29h2.23Zm7.6-20.16v24.65c0,1.55-.44,2.27-1.4,2.67s-2.76.4-5.58.4a8.7,8.7,0,0,0-.84-2.32c2.18.09,4.13.06,4.72,0s.8-.19.8-.78V330.19Z"/><path d="M440.94,351.62c1.51,2.29,4.27,3.32,8,3.47,3.38.12,10.33,0,14-.22a10.89,10.89,0,0,0-.78,2.36c-3.38.12-9.79.19-13.21.06-4.12-.15-7-1.24-9-3.66-1.39,1.31-2.85,2.64-4.4,4l-1.24-2.29a46.92,46.92,0,0,0,4.4-3.57V343.9h-3.93v-2.17h6.17Zm-.9-14.85a22.52,22.52,0,0,0-5-5.09l1.71-1.36a21.88,21.88,0,0,1,5.05,5Zm13.17-7.1a26.87,26.87,0,0,0,9.71,7.59,10,10,0,0,0-1.37,2.08,31.92,31.92,0,0,1-9.33-7.6,28.24,28.24,0,0,1-9.21,7.69,10.41,10.41,0,0,0-1.21-1.89,24.37,24.37,0,0,0,9.18-7.87ZM448.41,346a21,21,0,0,1-4.47,6.23,12.73,12.73,0,0,0-1.8-1.18,16.45,16.45,0,0,0,4.22-5.55ZM462,344.18h-8.56v7.07c0,1.14-.22,1.7-1,2a12.87,12.87,0,0,1-4,.34,9.18,9.18,0,0,0-.62-2c1.33,0,2.54,0,2.91,0s.5-.09.5-.43v-7h-8.06v-2h8.06v-2.79H446.7v-1.92h11.38v1.92h-4.62v2.79H462Zm-2,8a26.91,26.91,0,0,0-4.22-5.86l1.8-.86a26.67,26.67,0,0,1,4.34,5.76Z"/><path class="cls-2" d="M22.08,118.94c.81-3,1.51-6,1.83-7.84l6.93,4.33a1.26,1.26,0,0,1-1,.49,2.3,2.3,0,0,1-.75-.17A80.25,80.25,0,0,1,22,123a81.13,81.13,0,0,1-1,11.41c5.59,2.33,7.52,5.31,7.52,7.69a4.16,4.16,0,0,1-3.92,4.22,3.8,3.8,0,0,1-3.06-1.74A20.47,20.47,0,0,0,20.47,137C19,143.77,15.91,149.07,10,153.24l-.59-.76c4.61-7,5.8-15.74,6-27.42h-.06c-.43,2.43-2.09,4.11-3.81,4.11a2.57,2.57,0,0,1-2.52-2.71,4.58,4.58,0,0,1,1.5-3.13c.91-1.09,1.66-3.9,1.66-7.41a21.58,21.58,0,0,0-.1-2.49l.7-.06a29.18,29.18,0,0,1,2.57,8.28h.06c0-5.84-.11-12.44-.11-19.85l9.13.7c-.05.81-.48,1.24-2.2,1.46-.06,5.46-.06,10.44-.11,15ZM61.19,132.2c-.43.59-1.13.75-2.53.75H51.89c-.1.38-.48.71-1.66.87V145.5c0,1.25,0,1.25.86,1.25h2.63c.86,0,1.18-.06,1.67-.71a46,46,0,0,0,2.47-5.73h.32v6.06c2,1,2.25,1.3,2.25,2.22,0,2.49-1.66,3.95-6.6,3.95H50.18c-6,0-7.09-1.41-7.09-7.14V133h-2.8V133l1.56.11c-.11.81-.64,1.19-2.2,1.24-1.08,8.49-5.21,15.58-18.75,18.88l-.27-.7C30,148.37,32,141,32.07,133H25.79l-.21-.86h5.8V124H26l-.22-.87h5.59v-7.79l7.3.71v-6H28.1l-.21-.86H38.68v-7.36l8.81.7c-.05.6-.38,1-1.56,1.14v5.52h2.9l3.39-4.71,6.12,4.82c-.38.59-1.13.75-2.58.75H45.93v6.22c0,.06-1.45,1.57-7.25,1.57v-.65a1.44,1.44,0,0,1-.54.11v5.84h8.38v-7.79l8.49.82c0,.59-.48,1-1.77,1.13v5.84h0l2.63-4.27,4.73,4.38c-.43.6-1.13.76-2.53.76H53.24v8.06h.1l2.74-4.38Zm-23-.11h8.38V124H38.14Z"/><path class="cls-2" d="M97.87,116.24a4.24,4.24,0,0,0,2.52.59c.33,0,1.88-.16,2.26-.16,1.45,0,3.17,1.3,3.22,2.71,0,3.13-6.71,4.65-14.77,6.33a10.7,10.7,0,0,0,5.7,5.3,4.11,4.11,0,0,1,3.06,4.11c0,2-1,2.87-2.9,2.87-2.85,0-4.3-2-6.23-2.71a20.44,20.44,0,0,0-6.39-1.08c-4,0-7.31,1.84-7.31,5.19,0,2.49,3,4.33,9.29,4.33.54,0,1.08-.06,1.61-.06a30.47,30.47,0,0,0,6.4-.86c2.63,0,4.78,2.81,4.78,4.33,0,2.49-4.09,3.08-11.28,3.08-11,0-17.19-3.19-17.24-9,0-5.57,6.6-9.52,14.6-9.52a19.1,19.1,0,0,1,3.82.38l-.06-.16c-1-.65-2.14-2.92-3.27-5.3a81.67,81.67,0,0,1-12.62,1.62c-5.32,0-6.77-1.73-8.28-6.06l.76-.43c2.09,2,3.81,2.16,6.44,2.16h1.18a68.92,68.92,0,0,0,11.18-1.46c-.49-1.46-1.19-3.62-1.4-4.65a44.53,44.53,0,0,1-7.63.92c-3.27,0-6-1.52-7.41-5.41l.43-.43a8.71,8.71,0,0,0,5.37,1.51,43.66,43.66,0,0,0,8-.92c-.21-.81-.69-3-.86-3.68a2.72,2.72,0,0,0-3-2.11,3.71,3.71,0,0,0-2,.44l-.32-.17c.32-2.16,2.74-4,6.39-4,3.49,0,4.89,1.52,4.89,2.6,0,.38-.11,2.22-.11,2.65a28.5,28.5,0,0,0,.38,3c2-.54,4.51-1.35,5.15-3.74,3.93,0,7,.82,7,2.82,0,1.62-1.88,2.49-3.54,3.19A47.48,47.48,0,0,1,88,116.94a30.56,30.56,0,0,0,1.23,4.49c2.21-.48,8.33-2.11,8.33-4.27a.85.85,0,0,0-.11-.38Z"/><path class="cls-2" d="M161.57,133.93c-.37.59-1.13.76-2.63.76H140.89c4.57,4.86,13.48,8,21.43,9l-.1.65c-3,.81-5.16,3.41-6,7.35-7.84-3.19-12.73-8.33-15.9-16V151.4c0,.11-1.5,1.95-8.27,1.95V140.91c-5.26,4.86-12.57,8.6-21,11.08l-.38-.7a43.11,43.11,0,0,0,15.85-16.6H111.3l-.27-.87h21v-7H123.6v.87c0,.21-1.18,2.76-7.52,2.76V110.94l8.06,3h3v-6.76H111.73l-.27-.87h39.32l3.92-5,7.19,5.14c-.43.59-1.12.76-2.63.76H145.67V114h3.17l2.85-3.73,7.57,5.35a3.5,3.5,0,0,1-2.2,1.19v10.87c0,.11-2.2,1.57-7.63,1.57v-2.38H137.78v.06l4.51.32c-.11.76-.48,1.19-2,1.46v5.14h10.26l3.87-5Zm-38-19.1V126h3.49V114.83Zm10.85-7.62V114h3.87v-6.76Zm0,18.77h3.87V114.83h-3.87Zm15-11.15h-3.76V126h3.76Z"/><path class="cls-2" d="M199.38,116.24a4.29,4.29,0,0,0,2.53.59c.32,0,1.88-.16,2.25-.16,1.45,0,3.17,1.3,3.23,2.71,0,3.13-6.72,4.65-14.77,6.33a10.68,10.68,0,0,0,5.69,5.3,4.11,4.11,0,0,1,3.06,4.11c0,2-1,2.87-2.9,2.87-2.85,0-4.3-2-6.23-2.71a20.34,20.34,0,0,0-6.39-1.08c-4,0-7.31,1.84-7.31,5.19,0,2.49,3,4.33,9.3,4.33.53,0,1.07-.06,1.61-.06a30.43,30.43,0,0,0,6.39-.86c2.63,0,4.78,2.81,4.78,4.33,0,2.49-4.08,3.08-11.28,3.08-11,0-17.19-3.19-17.24-9,0-5.57,6.61-9.52,14.61-9.52a19.08,19.08,0,0,1,3.81.38l-.05-.16c-1-.65-2.15-2.92-3.28-5.3a81.52,81.52,0,0,1-12.62,1.62c-5.32,0-6.77-1.73-8.27-6.06l.75-.43c2.09,2,3.81,2.16,6.45,2.16h1.18a69,69,0,0,0,11.17-1.46c-.48-1.46-1.18-3.62-1.4-4.65a44.54,44.54,0,0,1-7.62.92c-3.28,0-6-1.52-7.42-5.41l.43-.43a8.73,8.73,0,0,0,5.37,1.51,43.75,43.75,0,0,0,8-.92c-.22-.81-.7-3-.86-3.68a2.73,2.73,0,0,0-3-2.11,3.66,3.66,0,0,0-2,.44l-.33-.17c.33-2.16,2.74-4,6.4-4,3.49,0,4.88,1.52,4.88,2.6,0,.38-.1,2.22-.1,2.65a28.47,28.47,0,0,0,.37,3c2-.54,4.51-1.35,5.16-3.74,3.92,0,7,.82,7,2.82,0,1.62-1.88,2.49-3.54,3.19a47.48,47.48,0,0,1-7.79,2.43,30.47,30.47,0,0,0,1.24,4.49c2.2-.48,8.32-2.11,8.32-4.27a.74.74,0,0,0-.11-.38Z"/><path class="cls-2" d="M223.88,132.36c3.17-3.35,7.09-6.17,12.35-6.22,4.89,0,7.2,4.06,7.2,8.11,0,1.3-.11,3.84-.11,5,0,3,1.5,3.79,4.67,3.79,5.37,0,9.46-4,12.57-11.58l.7.16c-1.88,11.2-6.93,18.34-15.63,18.34-6.34,0-9.45-3.57-9.45-8.28,0-1.4.16-4.81.16-6.16,0-4.65-.43-6.6-3.12-6.6-3.7,0-7.89,4.38-9.93,9.63a35.66,35.66,0,0,0-2,6.92c-.49,3-2.1,4.27-3.87,4.27s-4-1-4-3.51a15.25,15.25,0,0,1,1.4-6.39c1.56-3.62,3.38-7.51,5.53-11.68,5.37-10.39,8.06-15.52,8.06-17.8a2.3,2.3,0,0,0-.75-1.89,4.89,4.89,0,0,0-3.17-.7l-.22-.22a5.55,5.55,0,0,1,4.57-2.54c4,.05,8.16,2,8.16,5.19,0,2.17-2,3.46-3.33,5.19a87.2,87.2,0,0,0-10,16.94Z"/><path class="cls-2" d="M288.49,116c.59-1,2.1-1.46,4-1.46,3.49,0,7.36,4.54,7.36,7,0,3.13-2.69,3.08-5.53,3.57-10.32,1.84-23.42,6.76-23.42,13.47,0,4.11,4.78,4.65,10.9,4.65,3.92,0,9.67-.71,11.39-2.11,4.13.59,7.52,2.05,7.52,4.6,0,3-3.65,4.11-18.48,4.11-7.52,0-16-2-16-10.55,0-5.84,5.85-10.06,10.58-13-3.76-1.25-3.76-6-3.76-14.66,0-1.52-.22-3-1.24-3.46a5.14,5.14,0,0,0-2.2-.6,4.5,4.5,0,0,0-.81.11l-.16-.33c.7-2,2.8-2.81,4.67-2.81,4.46.06,7.69,3,7.69,5.74a11.64,11.64,0,0,1-.7,3.3,18,18,0,0,0-.54,5c0,.81,0,1.62,0,2.22.11,1.46.7,3,1.78,3.14,1.82-.92,5-2.49,6.82-3.3,1.61-.71,2.74-1.41,2.74-2.54a2.29,2.29,0,0,0-2.58-1.84Z"/><path class="cls-2" d="M317.87,132.36c3.17-3.35,7.09-6.17,12.35-6.22,4.89,0,7.2,4.06,7.2,8.11,0,1.3-.11,3.84-.11,5,0,3,1.51,3.79,4.68,3.79,5.37,0,9.45-4,12.56-11.58l.7.16c-1.88,11.2-6.93,18.34-15.63,18.34-6.33,0-9.45-3.57-9.45-8.28,0-1.4.16-4.81.16-6.16,0-4.65-.43-6.6-3.11-6.6-3.71,0-7.9,4.38-9.94,9.63a35.66,35.66,0,0,0-2,6.92c-.48,3-2.09,4.27-3.86,4.27s-4-1-4-3.51a15.38,15.38,0,0,1,1.39-6.39c1.56-3.62,3.39-7.51,5.54-11.68,5.37-10.39,8.05-15.52,8.05-17.8a2.27,2.27,0,0,0-.75-1.89,4.87,4.87,0,0,0-3.17-.7l-.21-.22a5.53,5.53,0,0,1,4.56-2.54c4,.05,8.17,2,8.17,5.19,0,2.17-2,3.46-3.33,5.19a87.22,87.22,0,0,0-10,16.94Z"/><path class="cls-2" d="M381.73,141.27h-10v-1.45l10.69-17.28H387v16.59h3.08l-.31,2.14H387v2.17c0,2.52.17,3,2.53,3v1.66H378.89v-1.66c2.7,0,2.84-.51,2.84-3Zm-.1-14.21c-.38.62-.9,1.86-1.75,3.17l-5.31,8.9h7.16V130c0-.86,0-2,.07-2.93Z"/><path class="cls-2" d="M420.54,119.09l4.7,3.51a2.3,2.3,0,0,1-1.37.73v26.08c0,.1-1.24,1.48-4.87,1.48v-2.31H408.25v.93c0,.18-.59,1.9-4.46,1.9V121.22h-.2a48.69,48.69,0,0,1-2.85,6.42l1.41.52c-.1.34-.38.55-1.06.69V150c-.07.34-2,1.38-3.91,1.38h-.89v-17a29.53,29.53,0,0,1-3.39,3.49l-.38-.24c2.26-4.35,4.73-12.08,6-19.05l5.31,1.52v-.48l4.73,2h10.14ZM408.25,148H419V136.41a3,3,0,0,1-1.09.41v7.8a4.45,4.45,0,0,1-2.74.86h-.62v-2.14H412.6V145s-.45,1.21-3.33,1.21V133.64l2.44,1v-4.86h-3.16l-.17-.56h3.33V123.4l5,.48c0,.45-.34.66-1.27.79v4.59h0l1.54-2.38,1.95,1.69v-6.41H408.25Zm4.35-12.38v7.14h1.95v-7.14Zm2.87-.69,1.07-1.45,2.46,2.58v-6.31a3.19,3.19,0,0,1-.65,0h-2.88Z"/><path class="cls-2" d="M50.34,198.57c-.3.48-.91.62-2.14.62H33.53c3.71,4,11,6.51,17.43,7.35l-.09.52c-2.4.66-4.2,2.78-4.89,6A22.32,22.32,0,0,1,33,200v12.76c0,.09-1.22,1.59-6.72,1.59V204.25c-4.28,4-10.23,7-17.13,9l-.3-.57a35.08,35.08,0,0,0,12.88-13.51H9.45l-.21-.71H26.32v-5.67H19.46v.7c0,.18-1,2.24-6.12,2.24V179.87l6.56,2.46h2.4v-5.5H9.8l-.21-.7h32l3.19-4.1,5.86,4.19c-.35.48-.92.61-2.14.61H37.41v5.5H40l2.32-3,6.16,4.35a2.88,2.88,0,0,1-1.8,1v8.85c0,.08-1.79,1.27-6.2,1.27v-1.93H31v0l3.67.26c-.09.62-.39,1-1.62,1.19v4.18h8.35l3.14-4ZM19.46,183v9.06H22.3V183Zm8.82-6.21v5.5h3.15v-5.5Zm0,15.27h3.15V183H28.28ZM40.47,183H37.41v9.06h3.06Z"/><path class="cls-2" d="M81.1,184.18a3.47,3.47,0,0,0,2.06.48c.26,0,1.53-.13,1.83-.13a2.73,2.73,0,0,1,2.62,2.2c0,2.56-5.46,3.79-12,5.15a8.64,8.64,0,0,0,4.63,4.31,3.35,3.35,0,0,1,2.49,3.35c0,1.63-.79,2.33-2.36,2.33-2.31,0-3.49-1.58-5.07-2.2a16.55,16.55,0,0,0-5.2-.88c-3.27,0-5.94,1.5-5.94,4.23,0,2,2.45,3.52,7.56,3.52.44,0,.87,0,1.31,0a24.55,24.55,0,0,0,5.2-.7,4.31,4.31,0,0,1,3.89,3.52c0,2-3.32,2.51-9.18,2.51-9,0-14-2.6-14-7.31,0-4.53,5.37-7.74,11.88-7.74a16.2,16.2,0,0,1,3.1.3l0-.13c-.79-.53-1.75-2.37-2.66-4.31A66.27,66.27,0,0,1,60.92,194c-4.32,0-5.5-1.41-6.73-4.93l.61-.35c1.71,1.67,3.11,1.76,5.25,1.76h1a55.83,55.83,0,0,0,9.08-1.19c-.39-1.19-1-3-1.13-3.78a37.08,37.08,0,0,1-6.2.74c-2.67,0-4.85-1.23-6-4.4l.35-.35a7.07,7.07,0,0,0,4.36,1.23,36.06,36.06,0,0,0,6.51-.74c-.17-.66-.56-2.42-.7-3a2.21,2.21,0,0,0-2.4-1.71,3,3,0,0,0-1.61.35l-.27-.13c.27-1.76,2.23-3.26,5.2-3.26s4,1.23,4,2.11c0,.31-.09,1.81-.09,2.16a22.65,22.65,0,0,0,.31,2.46c1.66-.44,3.67-1.1,4.19-3,3.19,0,5.72.66,5.72,2.29,0,1.32-1.53,2-2.88,2.59a38.53,38.53,0,0,1-6.34,2,26.47,26.47,0,0,0,1,3.66c1.79-.4,6.77-1.72,6.77-3.48a.6.6,0,0,0-.09-.31Z"/><path class="cls-2" d="M101,197.29c2.58-2.72,5.77-5,10-5.06,4,0,5.85,3.3,5.85,6.6,0,1.06-.09,3.13-.09,4,0,2.47,1.23,3.08,3.8,3.08,4.37,0,7.69-3.25,10.23-9.41l.56.13c-1.52,9.11-5.63,14.92-12.71,14.92-5.15,0-7.69-2.91-7.69-6.74,0-1.14.13-3.91.13-5,0-3.79-.35-5.37-2.53-5.37-3,0-6.42,3.56-8.08,7.83a29.36,29.36,0,0,0-1.62,5.63c-.39,2.42-1.7,3.48-3.14,3.48a3,3,0,0,1-3.28-2.86,12.35,12.35,0,0,1,1.14-5.19c1.26-3,2.75-6.12,4.5-9.51,4.36-8.45,6.55-12.63,6.55-14.48a1.88,1.88,0,0,0-.61-1.54,4,4,0,0,0-2.58-.57l-.18-.17a4.51,4.51,0,0,1,3.72-2.07c3.27,0,6.64,1.58,6.64,4.22,0,1.76-1.62,2.82-2.71,4.23a70.44,70.44,0,0,0-8.17,13.77Z"/><path class="cls-2" d="M153.59,184c.48-.84,1.7-1.19,3.27-1.19,2.84,0,6,3.7,6,5.68,0,2.55-2.19,2.51-4.5,2.9-8.39,1.5-19,5.5-19,11,0,3.35,3.89,3.79,8.87,3.79,3.19,0,7.86-.58,9.26-1.72,3.37.48,6.12,1.67,6.12,3.74,0,2.42-3,3.34-15,3.34-6.12,0-13-1.62-13-8.58,0-4.75,4.76-8.18,8.61-10.56-3.06-1-3.06-4.88-3.06-11.92,0-1.24-.17-2.42-1-2.82a4.22,4.22,0,0,0-1.8-.48,3.72,3.72,0,0,0-.65.08l-.13-.26a3.82,3.82,0,0,1,3.8-2.29c3.62.05,6.25,2.47,6.25,4.67A9.49,9.49,0,0,1,147,182a14.71,14.71,0,0,0-.44,4.05c0,.66,0,1.32,0,1.8.09,1.19.57,2.47,1.45,2.56,1.48-.75,4.06-2,5.54-2.69,1.31-.57,2.23-1.14,2.23-2.07a1.85,1.85,0,0,0-2.09-1.49Z"/><path class="cls-2" d="M177.49,197.29c2.57-2.72,5.76-5,10-5.06,4,0,5.86,3.3,5.86,6.6,0,1.06-.09,3.13-.09,4,0,2.47,1.22,3.08,3.8,3.08,4.37,0,7.69-3.25,10.22-9.41l.57.13c-1.53,9.11-5.63,14.92-12.71,14.92-5.15,0-7.69-2.91-7.69-6.74,0-1.14.13-3.91.13-5,0-3.79-.35-5.37-2.53-5.37-3,0-6.42,3.56-8.08,7.83a29.36,29.36,0,0,0-1.62,5.63c-.39,2.42-1.7,3.48-3.15,3.48a3,3,0,0,1-3.27-2.86,12.48,12.48,0,0,1,1.13-5.19c1.27-3,2.76-6.12,4.5-9.51,4.37-8.45,6.56-12.63,6.56-14.48a1.88,1.88,0,0,0-.61-1.54,4,4,0,0,0-2.58-.57l-.18-.17a4.51,4.51,0,0,1,3.72-2.07c3.27,0,6.64,1.58,6.64,4.22,0,1.76-1.62,2.82-2.71,4.23a70.44,70.44,0,0,0-8.17,13.77Z"/><path class="cls-2" d="M244.81,196.72l6.21,4.4c-.31.49-.88.62-2.15.62H233.54v10.91c0,.35-2,1.68-5.5,1.68h-1.27V201.74H209.91l-.22-.71h17.08V192.1H215l-.22-.7h12v-8.58H212.4l-.22-.71h10.66a3.8,3.8,0,0,1-2.1-1.36,13.46,13.46,0,0,0-2.49-8l.26-.22c6.6,1.24,8.78,3.83,8.78,6a3.69,3.69,0,0,1-2.92,3.52H234a83.83,83.83,0,0,0,1.27-9.64l9,2c-.13.57-.52.83-1.7.83a50.38,50.38,0,0,1-7.47,6.82h4.59l3.32-4.22,6.16,4.31c-.31.48-.92.62-2.14.62H233.54v8.58h3l3.19-4.05,5.9,4.14c-.3.48-.92.61-2.14.61h-10V201h7.91Z"/><path class="cls-2" d="M289.11,182.55l5.46,3c-.26.53-.83.62-2,.62H253.86l-.22-.7h17.21V182.2h-13.1l-.22-.7h13.32v-3.22H255.69l-.21-.7h10.09a13.13,13.13,0,0,0-3.93-4.8l.17-.31a18.58,18.58,0,0,1,2.93-.21c3.89,0,5.24,1.54,5.24,3.08a2.91,2.91,0,0,1-1.14,2.24h8a35.8,35.8,0,0,0,2.19-5.37l7.77,1.89c-.13.8-.83.8-1.53.8a45.87,45.87,0,0,1-6.9,2.68h6.38l2.88-3.17,5.46,3.26c-.3.53-.87.61-2.05.61H277v3.22h5.77l2.79-2.73,5.29,2.81c-.26.53-.88.62-2,.62H277v3.26h9.26Zm5.29,19.15c-.31.52-.83.61-2,.61H277.62c-.13.4-.56.71-1.61.84a17.48,17.48,0,0,1-.48,2.29H286.1l2.84-2.78,5.33,2.86c-.26.53-.83.62-2,.62H276.49c2.53,1.58,6.46,2.11,10.83,2.11,2.23,0,4.59-.13,6.9-.35l0,.53c-2.19.92-3.41,3-3.8,6-7.21-1.06-12.32-3-15.12-8.32h0c-1.49,4.14-5.55,6.78-21.14,8.23l-.18-.71c10-2.06,13.46-4.35,14.77-7.52H254.17l-.22-.7h15a13.63,13.63,0,0,0,.53-3.13H253.86l-.22-.7h17.21v-3H258l-.22-.71h13.1V195.4H257.31l-.22-.7h8.08a3,3,0,0,1-1.53-1.19,7.17,7.17,0,0,0-1.13-4.14l.26-.22a15.22,15.22,0,0,1,4.63.8,7.11,7.11,0,0,0-.87-2.78l.3-.22c4.5.66,6,2.16,6,3.48s-1.79,2.64-3.45,2.42a3.24,3.24,0,0,1-2.14,1.85h10.62c.17-.62.39-1.32.56-2a3,3,0,0,1-2.22-1.14,7.35,7.35,0,0,0-1.75-4.49l.26-.22c5.37.05,7.08,1.67,6.95,3.21l4.67,1.32c-.22.71-.92.71-1.48.71a42.91,42.91,0,0,1-5.68,2.64h5.15l2.58-3,2.49,1.58a19.49,19.49,0,0,0-5.5-5.85l.21-.35c7.61-.36,10.09,2.33,10.09,4.57a2.78,2.78,0,0,1-2.75,2.91l.35.22c-.3.52-.87.61-2,.61h-4.45l4.71,2.64c-.26.53-.87.62-2,.62H277v3h10.09l2.53-2.82ZM262,186.64a8.27,8.27,0,0,1,.17,1.72c0,4-2.84,5.85-5.24,5.85-1.58,0-3.19-.79-3.19-2.42A3,3,0,0,1,256,189.2c2.05-.13,4.72-1,5.37-2.6Zm15,8.76V198h5.81l2.45-2.55Z"/><path class="cls-2" d="M330.54,177.32h-8.86v21.75H315V170.79h15.52ZM329.35,172H316.2v25.88h4.29V176.13h8.86Z"/><path class="cls-2" d="M382.81,195.93c-.37.59-1.13.76-2.63.76H362.13c4.57,4.86,13.49,8,21.43,9l-.1.65c-3,.81-5.16,3.41-6,7.35-7.84-3.19-12.73-8.33-15.9-16V213.4c0,.11-1.5,1.95-8.27,1.95V202.91c-5.26,4.86-12.57,8.6-21,11.08l-.38-.7a43.11,43.11,0,0,0,15.85-16.6H332.54l-.27-.87h21v-7h-8.43v.87c0,.21-1.18,2.76-7.52,2.76V172.94l8.06,3h2.95v-6.76H333l-.27-.87H372l3.92-5,7.19,5.14c-.43.59-1.12.76-2.63.76H366.91V176h3.17l2.85-3.73,7.57,5.35a3.5,3.5,0,0,1-2.2,1.19v10.87c0,.11-2.2,1.57-7.63,1.57v-2.38H359v.06l4.51.32c-.11.76-.48,1.19-2,1.46v5.14H371.8l3.87-5Zm-38-19.1V188h3.49V176.83Zm10.85-7.62V176h3.87v-6.76Zm0,18.77h3.87V176.83h-3.87Zm15-11.15h-3.76V188h3.76Z"/><path class="cls-2" d="M395.27,187.87a13.66,13.66,0,0,0-3,7.73c0,4.22,3.33,7.58,12.25,7.58,5.86,0,10.8-.76,12.95-1.73,4.29.86,5.58,2.75,5.58,4.81,0,3.68-7.25,3.84-17.88,3.84-11.07,0-16.39-5.19-16.39-11.47,0-3.89,2-7.89,6-11.3Zm10.91-9.47a40.18,40.18,0,0,1-8.71,1c-3.27,0-7.51-3.47-7.19-7l.32.06c1.18,1.08,3.65,1.24,6.61,1.24,6.07,0,12-2.54,14.87-2.76,3.39.22,6.88,2.49,6.88,5.47,0,1.57-1.88,2.48-3.55,2.59-3.49.17-9.13,1.57-15.14,4.66l-.43-.55c1.07-.81,5.1-3.19,6.39-4.38ZM417.67,166c4.89,1,8,3.3,8,6.12a2.21,2.21,0,0,1-2.09,2.38,1.9,1.9,0,0,1-2.1-1.57,9.9,9.9,0,0,0-4.24-6.28Zm6.88-2.7c4.88,1,8.05,3.3,8.05,6.11a2.17,2.17,0,0,1-2,2.38,1.88,1.88,0,0,1-2.09-1.57,10.18,10.18,0,0,0-4.35-6.27Z"/><path class="cls-2" d="M443.83,187.33a13.66,13.66,0,0,0-3,7.73c0,4.22,3.33,7.58,12.25,7.58,5.85,0,10.79-.76,12.94-1.74,4.3.87,5.59,2.76,5.59,4.82,0,3.68-7.25,3.84-17.89,3.84-11.06,0-16.38-5.19-16.38-11.47,0-3.89,2-7.9,6-11.3Zm10.9-9.52a34.33,34.33,0,0,1-8.75,1c-3.33,0-7.47-3.29-7.15-7l.33.06c1.18,1.19,3.22,1.24,5.9,1.24h.65c6.07,0,13.1-2.81,14.93-2.81,3.44,0,6.87,2.27,6.87,5.52,0,1.56-1.88,2.48-3.54,2.59-3.49.16-9.13,1.57-15.15,4.65l-.43-.54c1.08-.81,5.11-3.24,6.39-4.43Z"/><path class="cls-2" d="M485.4,211.62c13.64-1.36,22.45-6.66,22.45-13.74,0-5.31-1.45-8.88-7.62-8.88-2.91,0-9.78,2.06-15.63,9.85-1.08,1.35-2.1,3.35-3.87,3.35-2.1,0-3.44-1.57-3.44-3.89,0-3.63,1.72-3.9,3.92-6.17,4.78-4.87,13.16-13.74,16.87-17.31,1.18-1.13,1.88-1.78,1.88-2.05,0-.06-.11-.27-.43-.27A29.36,29.36,0,0,0,489.16,176c-1.23.76-1.56,1.57-3,1.57-2.52,0-5.48-3.3-5.48-6.22a5.3,5.3,0,0,1,1.51-3.89l.32.05a3.47,3.47,0,0,0,3.76,3.35c3.55,0,9.4-.86,12.09-2,1.5-.65,2.68-1.79,3.33-1.79,2.09,0,6.44,2.49,6.44,5.25,0,2.11-2.31,2.38-4.19,3.79A116.68,116.68,0,0,0,488,191l.11.1c5-3.24,10.21-4.92,14.23-4.92,7.58,0,13.16,4.92,13.11,12.12,0,9.95-8.86,14.12-29.86,14.28Z"/><path class="cls-2" d="M520.1,207.56h10.42V182h7.84v33.27H520.1Zm1.39,6.27H537V183.38h-5.05V209H521.49Z"/><path class="cls-2" d="M493.75,113v13.19h12.07v4.73H493.75v14h-4.56v-14H477.12v-4.73h12.07V113Z"/><path class="cls-3" d="M74.65,34.4V38a16.37,16.37,0,0,1,5.69,2.91,4.13,4.13,0,0,1,1.73,3,1.72,1.72,0,0,1-.44,1.25,1.06,1.06,0,0,1-.81.37c-.62,0-1.14-.43-1.58-1.3a14.32,14.32,0,0,0-4.59-5.5v5.8l.07,14.68c0,.89-.61,1.34-1.81,1.34-.83,0-1.25-.36-1.25-1.08,0-.14,0-1,.09-2.53q.27-7.18.42-17.68a37.22,37.22,0,0,1-9.27,12,.25.25,0,0,1-.15.05c-.23,0-.35-.11-.35-.33a.25.25,0,0,1,0-.14,50.46,50.46,0,0,0,9-16.44H66a18.88,18.88,0,0,0-2.88.31L62.67,33a19.65,19.65,0,0,0,3.34.27H72V25.67a65.19,65.19,0,0,1-8.31,1.2c-.19,0-.29-.11-.29-.41s0-.25.16-.27a55.44,55.44,0,0,0,12.64-4.07,11.8,11.8,0,0,0,3.14-2c2,1.42,3,2.31,3,2.66s-.28.52-.84.52a6,6,0,0,1-1.23-.17A50.22,50.22,0,0,1,74.66,25v8.24H78c1.14-1.34,1.85-2,2.11-2a8.29,8.29,0,0,1,2.24,1.59q1,.76,1,1.17c0,.26-.21.39-.62.39ZM98.11,56H87.45v2.24q0,1.23-1.8,1.23c-.81,0-1.21-.32-1.21-1l.24-18.87q0-10.82-.24-14a24.22,24.22,0,0,1,3.44,1.72h9.91c1-1,1.52-1.54,1.7-1.54a5.76,5.76,0,0,1,1.88,1.26c.49.45.73.81.73,1.05s-.41.71-1.21,1.26v9.49l.19,19.09c0,.84-.58,1.25-1.75,1.25-.81,0-1.21-.33-1.21-1Zm0-1.12,0-26.39H87.49l0,26.39Z"/><path class="cls-3" d="M126.38,44.68v-.4a28.94,28.94,0,0,0-.24-4.5,32.8,32.8,0,0,1,3.72.51c.39.12.59.31.59.57s-.45.61-1.36,1v2.79l12.81,0c1.29-1.53,2.06-2.29,2.29-2.29a8.15,8.15,0,0,1,2.57,1.76c.72.58,1.08,1,1.07,1.26s-.19.39-.57.39l-17.6,0A27.43,27.43,0,0,0,138,52.34a36.66,36.66,0,0,0,10.33,3.22.18.18,0,0,1,.17.2.27.27,0,0,1-.22.28,3.06,3.06,0,0,0-1.36.7,3.72,3.72,0,0,0-.77,1.28.77.77,0,0,1-.77.63,7.26,7.26,0,0,1-2.11-.64,35.15,35.15,0,0,1-6.78-3.83,27.73,27.73,0,0,1-7.58-7.79q.3,9.48.3,13.19c0,.86-.62,1.29-1.85,1.29q-1.23,0-1.23-1.08c0-.6.05-2.26.14-5q.15-4.85.23-7a38.26,38.26,0,0,1-8.58,6.91,50.67,50.67,0,0,1-9.67,4.23h0q-.33,0-.33-.42a.18.18,0,0,1,.11-.18A47,47,0,0,0,124.71,45.8l-12.41,0a18.43,18.43,0,0,0-3.21.31l-.44-1.7a23.45,23.45,0,0,0,3.65.27ZM114.87,39v.77c0,.75-.57,1.12-1.71,1.12-.75,0-1.12-.3-1.12-.9l.14-6.75q0-3.87-.21-5.85A28.63,28.63,0,0,1,115.19,29h6.59V23.62h-10a24.33,24.33,0,0,0-3.12.26l-.4-1.65a22.37,22.37,0,0,0,3.56.27l30.57,0c1.24-1.47,2-2.2,2.2-2.2a8.32,8.32,0,0,1,2.48,1.72c.66.53,1,.93,1,1.21s-.19.39-.59.39H133.81V29h6.88c.87-.94,1.4-1.41,1.61-1.41a6.31,6.31,0,0,1,1.8,1.23c.48.41.72.75.72,1s-.39.67-1.16,1.17v2.37l.13,6.48c0,.72-.55,1.08-1.63,1.08-.84,0-1.25-.32-1.25-1v-.9Zm6.9-1.11V30.1h-6.9v7.82Zm2.62,0h6.79V30.12H124.4Zm6.8-8.94V23.63h-6.79V29Zm9.7,9V30.13h-7.1v7.82Z"/><path class="cls-3" d="M171.2,47.12V42.93h-9v.77c0,.71-.56,1.07-1.67,1.07q-1.17,0-1.17-.9l.19-8.55q0-4.22-.21-6.66a32.88,32.88,0,0,1,3.27,1.59l20.54,0c.9-1,1.45-1.49,1.65-1.49A5.26,5.26,0,0,1,186.6,30c.52.46.77.81.77,1.06s-.4.72-1.21,1.2v3.21l.16,8c0,.78-.57,1.17-1.71,1.16-.75,0-1.12-.3-1.12-.9v-.77h-9.62v4.2h13.87c1.26-1.47,2-2.21,2.24-2.21a9,9,0,0,1,2.52,1.71c.66.56,1,1,1,1.24s-.2.39-.59.39l-18.39,0a23.65,23.65,0,0,0,7.86,5.24A44.24,44.24,0,0,0,194,56.29a.2.2,0,0,1,.18.22.23.23,0,0,1-.22.26,2.94,2.94,0,0,0-1.34.6,3.36,3.36,0,0,0-.73,1.25c-.19.57-.46.85-.81.85a8.12,8.12,0,0,1-1.85-.39,35.39,35.39,0,0,1-7.68-3.4,27.46,27.46,0,0,1-7.82-6.88q.34,8.7.34,10.94c0,.86-.63,1.3-1.89,1.29-.81,0-1.21-.36-1.21-1.07s.13-3.94.37-10A38.65,38.65,0,0,1,153,59.74c-.23,0-.35-.11-.35-.44a.19.19,0,0,1,.13-.2,38.75,38.75,0,0,0,16.49-10.86H156.7a16.24,16.24,0,0,0-3,.26l-.41-1.69a17.1,17.1,0,0,0,3.29.31Zm-5.84-22.81v-.64a31.44,31.44,0,0,0-.21-4,27.63,27.63,0,0,1,3.82.57c.42.14.64.32.64.55s-.52.68-1.54,1v2.44h9.06v-.39a30.41,30.41,0,0,0-.24-4.2,23.87,23.87,0,0,1,3.76.58c.45.13.68.33.68.59s-.49.64-1.48,1v2.44h7.71c1.21-1.47,1.95-2.2,2.25-2.2a10.91,10.91,0,0,1,2.57,1.72c.65.51,1,.9,1,1.16s-.19.44-.59.44H179.84c0,.45.06.94.09,1.45,0,.32,0,.51,0,.57,0,.81-.57,1.21-1.72,1.21-.77,0-1.16-.33-1.16-1l.05-2.25h-9.06l.07,2.18c0,.78-.56,1.16-1.68,1.16-.79,0-1.18-.33-1.18-1,0,0,0-.31,0-.79s.05-1,.07-1.56h-8.68a16.86,16.86,0,0,0-2.92.26L153.34,24a20.61,20.61,0,0,0,3.34.31Zm5.85,17.5V37h-9V41.8Zm0-5.94v-4.5h-9v4.5Zm2.65,5.94h9.62V37h-9.63Zm0-5.93h9.63v-4.5l-9.62,0Z"/><path class="cls-3" d="M219.66,39.16l12.55,0c1.46-1.77,2.32-2.66,2.57-2.66a11.89,11.89,0,0,1,2.7,2c.81.68,1.21,1.13,1.21,1.36s-.21.44-.62.44l-18.41,0v5.54l.17,11.07a3.14,3.14,0,0,1-1.63,2.84,5.59,5.59,0,0,1-2.88.85.78.78,0,0,1-.51-.13,2.48,2.48,0,0,1-.22-.64,2.41,2.41,0,0,0-1.42-1.58,20.82,20.82,0,0,0-4.24-1.33c-.12,0-.18-.13-.18-.31s.08-.35.22-.33q5.23.54,7,.54a.72.72,0,0,0,.82-.81V40.28l-14.94,0a26.67,26.67,0,0,0-3.51.22l-.44-1.65a29.55,29.55,0,0,0,3.95.31l15,0v-.22c0-3.58-.06-5.82-.17-6.75,1.43.19,2.42.34,3,.45a46.8,46.8,0,0,0,7.48-7.91l-20.26,0a19.05,19.05,0,0,0-3.69.3l-.39-1.73a31.33,31.33,0,0,0,4,.31l20.35,0a6.77,6.77,0,0,1,1.93-1.53c.27,0,1,.54,2.11,1.63.63.6.95,1,.95,1.29s-.65.61-1.94.86A45,45,0,0,1,220.92,33a.4.4,0,0,1,.29.4c0,.41-.52.79-1.54,1.16Z"/><path class="cls-3" d="M243.72,53.73l-.43-1.64a29.26,29.26,0,0,0,4.17.31l28.68,0c1.74-2,2.73-3,3-3a16.38,16.38,0,0,1,3,2.24c.83.68,1.25,1.16,1.25,1.46s-.22.39-.64.39l-35.22,0A31.21,31.21,0,0,0,243.72,53.73Zm5.35-23.81-.44-1.65a23.34,23.34,0,0,0,4,.32l18.59,0c1.68-1.89,2.64-2.83,2.88-2.83a15.17,15.17,0,0,1,2.87,2.07c.87.7,1.3,1.18,1.3,1.45s-.21.44-.62.44l-25,0A33.53,33.53,0,0,0,249.07,29.92Z"/><path class="cls-3" d="M296.64,34.22v3.6a11.12,11.12,0,0,1,4.28,2.75,4.16,4.16,0,0,1,1.21,2.69,1.83,1.83,0,0,1-.38,1.2,1,1,0,0,1-.79.42c-.58,0-1-.53-1.31-1.58a8.85,8.85,0,0,0-3-4.8v7.06l0,14.28c0,.83-.57,1.25-1.72,1.25-.77,0-1.16-.35-1.16-1,0-.16,0-.95.07-2.39q.26-6.85.39-17a37.52,37.52,0,0,1-6.67,10.83.24.24,0,0,1-.15,0c-.25,0-.37-.11-.37-.33a.15.15,0,0,1,0-.09,49.8,49.8,0,0,0,6.74-16.88h-3.29a17.84,17.84,0,0,0-2.62.26l-.39-1.67a15.07,15.07,0,0,0,3,.29h3.56V25.21a50.16,50.16,0,0,1-5.93.93c-.19,0-.28-.09-.28-.37a.2.2,0,0,1,.15-.22,39.58,39.58,0,0,0,9.23-3.48,11.05,11.05,0,0,0,2.51-1.8c1.89,1.39,2.83,2.23,2.83,2.51s-.31.5-.92.5a5.65,5.65,0,0,1-1.1-.13,26.14,26.14,0,0,1-3.91,1.38V33.1h1.75c1-1.17,1.57-1.76,1.85-1.76s.94.47,2,1.41c.57.49.86.85.86,1.08s-.21.4-.64.4ZM315.8,47.34V52.1h6.65c1.09-1.32,1.74-2,1.94-2a9.48,9.48,0,0,1,2.2,1.58c.6.49.9.86.9,1.12s-.2.4-.58.4l-11.11,0v4.84h8.33c1.2-1.39,1.9-2.09,2.11-2.09a9.11,9.11,0,0,1,2.33,1.68q.9.75.9,1.14c0,.26-.21.4-.62.39l-25.66,0a20,20,0,0,0-2.93.27l-.43-1.65a21.39,21.39,0,0,0,3.36.26l10,0V53.22h-7.93a20.63,20.63,0,0,0-2.73.26l-.46-1.69a15.69,15.69,0,0,0,3.19.31h7.93V47.33h-6.48V48c0,.71-.54,1.07-1.62,1.07-.75,0-1.12-.34-1.12-1l.18-7.93q0-5.29-.21-7.47A23.14,23.14,0,0,1,307,34.14h6.22V29.91h-8.29a21.22,21.22,0,0,0-2.87.26l-.44-1.69a20.61,20.61,0,0,0,3.32.31h8.28V25.05a89.17,89.17,0,0,1-9.89.54c-.16,0-.24-.12-.24-.37s.06-.25.16-.27A74,74,0,0,0,318.07,22a18.39,18.39,0,0,0,4.42-1.92q3.18,2.51,3.18,3.05c0,.27-.24.4-.72.4a4.89,4.89,0,0,1-1.61-.35,67.49,67.49,0,0,1-7.51,1.52v4.09h7.61c1.21-1.43,1.95-2.15,2.2-2.15A9.11,9.11,0,0,1,328,28.28c.65.54,1,1,1,1.25s-.21.4-.64.4l-12.5,0v4.24h6.61c.84-.91,1.36-1.36,1.56-1.36a5.89,5.89,0,0,1,1.63,1.12c.51.46.77.81.77,1.06s-.36.64-1.08,1.12v3.27l.13,8.07q0,1.2-1.59,1.2c-.77,0-1.16-.31-1.16-.94v-.36Zm-9.09-1.13h6.48V41.16h-6.48Zm0-6.18h6.49V35.27h-6.48Zm9.09,6.19h6.88v-5h-6.88Zm0-6.18h6.88V35.28h-6.87Z"/><path class="cls-3" d="M343.22,30.63h2.24c1-1.2,1.54-1.8,1.76-1.8a6.33,6.33,0,0,1,2,1.45c.48.4.73.74.73,1s-.19.44-.58.44h-6.17v10q2.64-1,5.23-2.19a.15.15,0,0,1,.09,0c.17,0,.26.11.26.35a.2.2,0,0,1-.09.17,51,51,0,0,1-5.49,3.34q0,7.09.07,12.41c0,2.58,0,3.89,0,3.93,0,.9-.6,1.34-1.8,1.34-.81,0-1.21-.34-1.21-1,0-.22,0-1,.05-2.18q.11-5.59.14-13.16-2.36,1.1-4.77,2c-.15,1-.4,1.54-.77,1.54s-1.07-1.28-1.93-3.85a17.27,17.27,0,0,0,2.44-.3q2.11-.47,5.08-1.38V31.74h-3.87a32,32,0,0,1-3.45,7,.23.23,0,0,1-.18.09c-.25,0-.37-.1-.37-.31l0-.06a44.65,44.65,0,0,0,2.54-10,25.75,25.75,0,0,0,.38-4.24c1.62.45,2.65.77,3.09.95s.77.43.77.68-.47.58-1.41.81c-.23,1.08-.58,2.42-1,4h3.51c0-5.53-.06-9.08-.2-10.63a30,30,0,0,1,3.82.64c.42.13.63.33.63.59s-.52.73-1.58,1.17Zm14.21,4.69v-7h-5.67a20.41,20.41,0,0,0-2.7.26l-.44-1.69a16.38,16.38,0,0,0,3.1.31h5.71V25.48a53.23,53.23,0,0,0-.21-5.36,27.14,27.14,0,0,1,3.87.66c.42.15.63.35.63.59s-.53.79-1.58,1.21v4.66h6.4c1.22-1.39,1.93-2.09,2.15-2.09A8.26,8.26,0,0,1,371,26.83c.6.55.9.93.9,1.15s-.2.39-.6.39H360.14v7h8.38c1.18-1.4,1.9-2.1,2.15-2.1a8.84,8.84,0,0,1,2.39,1.71c.63.52.95.89.95,1.13s-.21.39-.64.39l-23.44,0a17.82,17.82,0,0,0-2.84.26L346.62,35a18.19,18.19,0,0,0,3.3.31Zm6,7.57a46,46,0,0,0-.21-5.54,23.41,23.41,0,0,1,3.65.58c.46.14.7.34.7.59s-.49.68-1.48,1.07v3.3h2.53q1.65-2.1,2.07-2.1A7.13,7.13,0,0,1,373,42.42c.57.52.85.91.85,1.16s-.19.44-.57.44h-7.16v3.3l.2,10.06a3.2,3.2,0,0,1-1.45,2.79,3.83,3.83,0,0,1-2.46.72c-.27,0-.43-.05-.51-.15a1.68,1.68,0,0,1-.22-.57,2,2,0,0,0-1.33-1.41,21.61,21.61,0,0,0-3.56-1c-.12,0-.18-.12-.18-.28s.08-.31.22-.31q4,.31,5.8.31c.54,0,.82-.23.82-.7V44l-13.23,0a16.57,16.57,0,0,0-2.7.22l-.44-1.69a14.38,14.38,0,0,0,3.1.35Zm-12.24,3.85a.12.12,0,0,1,0-.11c0-.23.1-.33.32-.28A10.83,10.83,0,0,1,356.21,49a4,4,0,0,1,1.25,2.77c0,1.26-.53,1.89-1.57,1.88q-1.06,0-1.47-1.62A10,10,0,0,0,351.18,46.74Z"/><path class="cls-3" d="M385.81,40.67q2.88-1.06,4.53-1.82l.09,0c.19,0,.29.1.29.31a.24.24,0,0,1-.09.2q-2.07,1.53-4.82,3.18l.12,15.38a3,3,0,0,1-1.37,2.74,3.28,3.28,0,0,1-2.07.64c-.35,0-.54-.21-.57-.64A1.72,1.72,0,0,0,381,59.3a12.28,12.28,0,0,0-2.79-1A.33.33,0,0,1,378,58c0-.18.07-.26.2-.25,1.95.18,3.34.27,4.18.27q.81,0,.81-.9l0-13.14c-.94.47-1.86.91-2.75,1.32-.21,1.14-.49,1.71-.86,1.71s-.95-1.31-1.8-3.93c.95-.18,2-.43,3.14-.75l2.27-.68V31.44H380.9a18.12,18.12,0,0,0-2.5.26L378,30.05a15.47,15.47,0,0,0,2.92.27h2.31q0-8.28-.21-9.95a22.21,22.21,0,0,1,3.74.59c.39.14.59.33.59.58s-.5.71-1.49,1.14v7.64h.68c.88-1.11,1.43-1.66,1.65-1.66s.95.5,2.06,1.49c.43.37.64.67.64.9s-.19.4-.57.4h-4.46ZM388.27,61c-.22,0-.33-.09-.33-.35a.23.23,0,0,1,.09-.2,28.79,28.79,0,0,0,7.52-5.07A12.82,12.82,0,0,0,397.62,53c2.14,1.27,3.21,2.09,3.21,2.44s-.3.44-.9.44a7.05,7.05,0,0,1-1-.09A24.45,24.45,0,0,1,388.27,61Zm20.3-16.55v6.09h4.85q1.69-2.07,2.07-2.07a8.87,8.87,0,0,1,2.31,1.59c.62.51.94.91.94,1.21s-.2.39-.59.39l-25.89,0a12.36,12.36,0,0,0-2.79.31L389,50.19a19.32,19.32,0,0,0,3.25.31H397V44.42h-3.47a14.32,14.32,0,0,0-2.7.26l-.44-1.7a19.08,19.08,0,0,0,3.14.32H397v-.4q0-2.61-.18-4.59a18.08,18.08,0,0,1,3.37.58c.36.13.55.31.55.55s-.42.65-1.26,1V43.3h6.61v-.68a38.15,38.15,0,0,0-.17-4.31,20.89,20.89,0,0,1,3.38.58c.39.13.58.31.58.55s-.44.62-1.3,1v2.88h3.83c1.05-1.32,1.7-2,1.93-2a9.58,9.58,0,0,1,2.16,1.54c.57.49.85.88.85,1.17s-.2.39-.59.39ZM399.84,30h-6v3.56a1.33,1.33,0,0,0,.71,1.34,6.45,6.45,0,0,0,2.35.29c2,0,3.25-.22,3.82-.67a5.05,5.05,0,0,0,1.34-2.84.16.16,0,0,1,.18-.13c.19,0,.29.07.29.22-.06,1.19-.09,1.92-.09,2.2s.11.59.35.68a.79.79,0,0,1,.63.77c0,.6-.39,1.06-1.19,1.38a20.08,20.08,0,0,1-5.67.5q-3.18,0-4.26-.93a3.17,3.17,0,0,1-.85-2.5l.12-6.84c0-1.81-.08-3.62-.24-5.42A17.34,17.34,0,0,1,394.18,23h5.41c.73-.86,1.21-1.29,1.43-1.29a4.2,4.2,0,0,1,1.54.94c.48.4.72.71.72,1s-.38.59-1.14,1.07v1.39l.1,3.78c0,.63-.46.94-1.36.94C400.19,30.78,399.84,30.52,399.84,30Zm0-1.12V24.12h-6v4.77Zm6.24,15.54h-6.61v6.09h6.61ZM413.58,30h-5.89v3.56a1.26,1.26,0,0,0,.76,1.32,9.73,9.73,0,0,0,3,.31,14,14,0,0,0,2.9-.2,2.6,2.6,0,0,0,1.28-.65,7.55,7.55,0,0,0,1.25-2.86.16.16,0,0,1,.18-.13c.19,0,.29.07.29.22-.06.94-.09,1.69-.1,2.26a.73.73,0,0,0,.49.77.81.81,0,0,1,.59.82c0,.6-.44,1-1.32,1.34a21.35,21.35,0,0,1-5.89.54c-2.43,0-4.05-.31-4.85-.91a2.93,2.93,0,0,1-1-2.53l.12-6.87a42.85,42.85,0,0,0-.24-5.39A18.49,18.49,0,0,1,408.05,23h5.21c.77-.87,1.27-1.3,1.49-1.3s.73.32,1.5,1c.51.39.76.71.76.94s-.38.61-1.14,1.08v1.43L416,30c0,.66-.47,1-1.4,1-.66,0-1-.28-1-.82ZM406.47,54.1a.18.18,0,0,1-.13-.18c0-.23.11-.33.31-.3A18.71,18.71,0,0,1,414,56.28c1.53,1,2.3,2.11,2.3,3.24s-.4,1.49-1.21,1.49c-.41,0-.94-.44-1.58-1.32a20.72,20.72,0,0,0-3.36-3.39A21.49,21.49,0,0,0,406.47,54.1Zm7.11-25.19V24.14H407.7V28.9Z"/><path class="cls-3" d="M440.81,37.75q.79-.18,10.75-2.74a2.45,2.45,0,0,0,1.32-.87,1.3,1.3,0,0,1,.95-.6c.6,0,1.48.55,2.63,1.63S458,36.79,458,37.24s-.43.92-1.29,1a2.74,2.74,0,0,0-1.59.86,82.93,82.93,0,0,1-8.33,7.19,1.15,1.15,0,0,1-.73.22c-.26,0-.39-.18-.39-.55a.93.93,0,0,1,.35-.68,73.23,73.23,0,0,0,7.15-8,.82.82,0,0,0,.24-.48c0-.14-.1-.22-.31-.22l-.24,0q-1.9.41-12,3.07l-.05,5.8a26.75,26.75,0,0,0,.26,4.85,1.94,1.94,0,0,0,1,1.23,9.59,9.59,0,0,0,3.74.45,35.42,35.42,0,0,0,5-.39l3-.44a3.15,3.15,0,0,1,1.89.49,1.36,1.36,0,0,1,.64,1.18c0,.68-.5,1.09-1.5,1.26a37.72,37.72,0,0,1-6.06.34,38.4,38.4,0,0,1-5.65-.27,6.43,6.43,0,0,1-2.55-.95,4.7,4.7,0,0,1-1.66-2.57,18.84,18.84,0,0,1-.4-3.82q-.06-3-.05-6.53-4.73,1.2-7.28,2.08a8.11,8.11,0,0,0-1.71.74,2,2,0,0,1-1.26.51,4.3,4.3,0,0,1-2.65-1.5,4,4,0,0,1-1.58-2.62c0-.48.17-.72.5-.72s.38.14.62.42a3.34,3.34,0,0,0,2.39,1.27,16.77,16.77,0,0,0,3.06-.45q2-.42,7.87-1.84l0-7.34a1.9,1.9,0,0,0-.72-1.63,4.93,4.93,0,0,0-1.78-.72c-.46-.11-.68-.22-.68-.36a1.06,1.06,0,0,1,.35-.63,2.52,2.52,0,0,1,1.49-.31,9.36,9.36,0,0,1,3.74.95c.86.41,1.29.93,1.29,1.54a2.15,2.15,0,0,1-.57,1.21,2.78,2.78,0,0,0-.42,1.4C441,33.68,440.88,35.48,440.81,37.75Z"/><path class="cls-3" d="M469.25,36.7a.92.92,0,0,1-.26-.52.44.44,0,0,1,.19-.33.66.66,0,0,1,.36-.13,1.86,1.86,0,0,1,.57.22,10.18,10.18,0,0,1,2.65,2.22,4.8,4.8,0,0,1,1.45,3.14,1.71,1.71,0,0,1-.51,1.3,1.31,1.31,0,0,1-.94.37c-.74,0-1.22-.6-1.45-1.8a9.26,9.26,0,0,0-.79-2.4A16.6,16.6,0,0,0,469.25,36.7Zm19.95,0c0-.37-.3-.72-.9-1a5.51,5.51,0,0,0-1.54-.55.3.3,0,0,1-.22-.31.47.47,0,0,1,.31-.41,2.82,2.82,0,0,1,1.32-.22,6.32,6.32,0,0,1,3.47,1.17q1.38,1,1.38,1.8a1,1,0,0,1-.59.81,2.52,2.52,0,0,0-1,1A46.74,46.74,0,0,1,484,49.77a34.77,34.77,0,0,1-10.93,8.14,2.13,2.13,0,0,1-.85.22c-.37,0-.55-.2-.55-.59a.64.64,0,0,1,.39-.57,42.7,42.7,0,0,0,16.46-18.33A5.33,5.33,0,0,0,489.2,36.71Zm-12.3-2a1.09,1.09,0,0,1-.22-.61c0-.25.2-.38.59-.38a1.38,1.38,0,0,1,.57.22,10.82,10.82,0,0,1,2.81,2.71,5.1,5.1,0,0,1,1,2.9c0,1.35-.48,2-1.45,2a1.08,1.08,0,0,1-1-.4,3.14,3.14,0,0,1-.5-1.53,10.28,10.28,0,0,0-.61-2.49A12.26,12.26,0,0,0,476.9,34.69Z"/><path class="cls-3" d="M510.69,36.91a25.24,25.24,0,0,1,7.14,1.63q4.63,1.85,4.63,4.14A1.84,1.84,0,0,1,522,44a1.26,1.26,0,0,1-.85.37,2.47,2.47,0,0,1-1.76-1,18.43,18.43,0,0,0-4-3.16,17.68,17.68,0,0,0-4.67-2c0,3.64,0,6.18,0,7.65l.07,10.63c0,1.26-.4,1.89-1.21,1.89a1.58,1.58,0,0,1-1.18-.81,4.73,4.73,0,0,1-1-2.75,2.71,2.71,0,0,1,.35-1.34,6,6,0,0,0,.38-2.53c.09-2.75.14-5.67.14-8.74s.06-7.3.06-13a10.61,10.61,0,0,0-.17-2.7,4.52,4.52,0,0,0-2.42-1.81c-.33-.13-.5-.3-.5-.52s.15-.36.44-.51a1.46,1.46,0,0,1,.68-.17,8,8,0,0,1,3.69,1c1.29.67,1.93,1.39,1.93,2.15a1.83,1.83,0,0,1-.81,1.37c-.16.13-.27.68-.31,1.67Q510.7,32.56,510.69,36.91Z"/><rect class="cls-4" x="0.5" y="0.5" width="593.31" height="76.5"/><path class="cls-2" d="M549.57,185.81a45.73,45.73,0,0,0,7.8-3.29l.6.31v21.39c0,2.63.62,3.05,3.38,3.05v1.26H549.61v-1.26c3,0,3.6-.42,3.6-3.05V189.1c0-1.65-.16-2.52-.85-2.52a9.53,9.53,0,0,0-2.57.7Z"/><path class="cls-2" d="M598.54,187.59c-.25.39-.66.49-1.57.49H586.48a24.21,24.21,0,0,0,12.43,12.61l-.09.38c-1.78.42-3.26,2.07-3.91,4.55-4.64-3.64-7.3-9.38-8.86-17.54h-.16v15l2-3.36,3.76,3.64c-.22.38-.69.49-1.54.49h-4.19v6.61c0,.42-1.88,1.4-3.79,1.4h-.88v-8h-5.51l-.12-.56h5.63v-8.55A29.41,29.41,0,0,1,568.76,206l-.28-.42c4.82-4.3,8.3-11.17,9.83-17.54H569l-.16-.56h12.43v-8.89l6.11.63c-.06.63-.35,1-1.44,1.12v7.14h5.82l2.44-3.81Z"/></g></g></svg>