<svg xmlns="http://www.w3.org/2000/svg" viewBox="0 0 670.04 99.29"><defs><style>.cls-1{fill:#a30000;}.cls-2{fill:#fff362;}.cls-3{fill:#fff000;}.cls-4{fill:#f4db98;}.cls-5{fill:#c1b85e;opacity:0.7;}</style></defs><g id="レイヤー_2" data-name="レイヤー 2"><g id="contents"><path class="cls-1" d="M209.42,56.33H197l-2.51,7.31h-5.25l11.88-32.7h4.15l11.89,32.7H212ZM208,51.93l-4.74-14.28h-.08l-4.74,14.28Z"/><path class="cls-1" d="M220.68,30.94h4.66l9.38,21.31,9.2-21.31h4.68v32.7h-4.95V43.25h-.12L236.69,59h-4.12l-6.84-15.71h-.09V63.64h-5Z"/><path class="cls-1" d="M258.72,63.64a6.29,6.29,0,0,1,.38-.82l1-2.12c.44-.86.92-1.83,1.46-2.89l1.59-3.14,1.47-2.85c.46-.86.83-1.55,1.11-2a3.39,3.39,0,0,1-1.47.46,12.78,12.78,0,0,1-1.89,0,6.63,6.63,0,0,1-2.59-.53,7,7,0,0,1-1.92-1.24,7.08,7.08,0,0,1-1.35-1.65,11.94,11.94,0,0,1-.86-1.77,9.81,9.81,0,0,1-.47-1.61,6.47,6.47,0,0,1-.15-1.18c0-.09,0-.25,0-.49s0-.51,0-.8,0-.59,0-.89a7.35,7.35,0,0,1,.06-.76c0-.1.06-.37.14-.79a11.26,11.26,0,0,1,.46-1.54,12.14,12.14,0,0,1,1-1.92,8.49,8.49,0,0,1,1.58-1.92,9.17,9.17,0,0,1,2.4-1.54,10.22,10.22,0,0,1,3.37-.83,10.36,10.36,0,0,1,3.6.24,8.29,8.29,0,0,1,2.68,1.24,7.76,7.76,0,0,1,1.87,1.88,10.48,10.48,0,0,1,1.15,2.19,9.58,9.58,0,0,1,.55,2.15,7.24,7.24,0,0,1,0,1.78c-.09.74-.18,1.39-.29,2s-.23,1.12-.37,1.65-.3,1-.48,1.54-.39,1.06-.63,1.66q-.09.26-.48,1.08c-.26.55-.59,1.23-1,2s-.83,1.69-1.3,2.67-.95,2-1.44,3c-1.16,2.33-2.44,4.93-3.86,7.8Zm1-23.68c0,.58,0,1.22.09,1.93a5.8,5.8,0,0,0,.52,2,4.17,4.17,0,0,0,1.38,1.59,5,5,0,0,0,2.65.76,3.89,3.89,0,0,0,1.55-.22,4.58,4.58,0,0,0,1.23-.68,5,5,0,0,0,.93-1,7.21,7.21,0,0,0,.65-1.06,4.82,4.82,0,0,0,.37-1,2.86,2.86,0,0,0,.11-.72c0-.37,0-.79,0-1.25a9.73,9.73,0,0,0-.13-1.41,6,6,0,0,0-.42-1.38,3.39,3.39,0,0,0-.83-1.16,3.68,3.68,0,0,0-1.38-.77,5.73,5.73,0,0,0-2.09-.22,4.25,4.25,0,0,0-2.28.7,5.44,5.44,0,0,0-1.4,1.39,4.91,4.91,0,0,0-.72,1.48A4.14,4.14,0,0,0,259.73,40Z"/><path class="cls-1" d="M279.08,48.53h4.69v4.68h-4.69Zm0,10.43h4.69v4.68h-4.69Z"/><path class="cls-1" d="M288.68,40.07a8.83,8.83,0,0,1,2.9-7A9.15,9.15,0,0,1,298,30.67a9.32,9.32,0,0,1,6.48,2.42,9.17,9.17,0,0,1,2.8,7V54.49a9.12,9.12,0,0,1-2.8,6.95A9.45,9.45,0,0,1,298,63.91a9.29,9.29,0,0,1-6.37-2.47,8.78,8.78,0,0,1-2.9-6.95Zm13.86.29q-.14-4.9-4.59-5-4.49.09-4.58,5V54.22c.06,3.31,1.59,5,4.58,5s4.5-1.69,4.59-5Z"/><path class="cls-1" d="M310.73,40.07a8.82,8.82,0,0,1,2.89-7A9.19,9.19,0,0,1,320,30.67a9.33,9.33,0,0,1,6.49,2.42,9.21,9.21,0,0,1,2.8,7V54.49a9.15,9.15,0,0,1-2.8,6.95A9.46,9.46,0,0,1,320,63.91a9.33,9.33,0,0,1-6.37-2.47,8.77,8.77,0,0,1-2.89-6.95Zm13.86.29q-.13-4.9-4.6-5-4.49.09-4.57,5V54.22c.06,3.31,1.58,5,4.57,5s4.51-1.69,4.6-5Z"/><path class="cls-1" d="M345.26,39.43a32.11,32.11,0,0,0-.2,4.37c0,.4,0,.48,0,1.83a30.26,30.26,0,0,0,8.26-1l.28,3.41c-.56,0-.56,0-1.83.17a61.83,61.83,0,0,1-6.62.51c.05,2.2.11,3.47.31,6.23a20.69,20.69,0,0,1,4.39,1.92,36.47,36.47,0,0,1,3.64,2.39c.36.25.51.37.84.56l-2.19,3.19a11.17,11.17,0,0,0-2-1.86,17.44,17.44,0,0,0-3.72-2.31c-.36-.2-.59-.31-.9-.51a6.22,6.22,0,0,1,.06.9c0,3.16-2.23,4.82-6.43,4.82-2.87,0-4.87-.82-5.92-2.42a5.14,5.14,0,0,1-.7-2.51c0-2.93,2.9-5,7-5a10.38,10.38,0,0,1,2.62.28.62.62,0,0,1,0-.28c-.11-1-.36-8.71-.39-12.24a17.42,17.42,0,0,0-.14-2.48Zm-5.69,17.7c-2.12,0-3.53.85-3.53,2.09a1.54,1.54,0,0,0,1,1.46,5,5,0,0,0,2.06.43,4,4,0,0,0,2.56-.77,1.94,1.94,0,0,0,.6-1.57c0-.51,0-1.3,0-1.33A9.26,9.26,0,0,0,339.57,57.13Z"/><path class="cls-1" d="M363.87,39.57a27.67,27.67,0,0,0-1,5.44c-.2,1.19-.31,2.14-.37,2.82h.09a4.76,4.76,0,0,0,.17-.62,11.21,11.21,0,0,1,1.77-3.35A6.73,6.73,0,0,1,369.87,41a5.89,5.89,0,0,1,4.82,2.54c1.41,1.89,2,4.17,2,7.5,0,5.43-2.54,9.49-7.27,11.58a24.13,24.13,0,0,1-5.53,1.58,10.68,10.68,0,0,0-1.66-3.33,16.31,16.31,0,0,0,6.17-1.61c3.27-1.66,4.76-4.34,4.76-8.62,0-4.06-1.35-6.31-3.77-6.31a4.23,4.23,0,0,0-3.05,1.49,13.55,13.55,0,0,0-3.55,9.1v.6l-3.38,0a2,2,0,0,0,0-.36v-.54c0-.82-.09-2.9-.09-3.47a72.75,72.75,0,0,1,.4-7.35l.42-3.5a6.11,6.11,0,0,0,.09-.95Z"/><path class="cls-1" d="M412.24,49.52a47.68,47.68,0,0,0-3.55,3.92,40.12,40.12,0,0,1-5.05,4.44c4.28,1.89,7.59,2.7,14.53,3.55a17,17,0,0,0-2.1,4.48,45.52,45.52,0,0,1-10.93-2.67,36.4,36.4,0,0,1-5.57-2.74A51.85,51.85,0,0,1,383.62,66a18.53,18.53,0,0,0-2.22-4.32,47.55,47.55,0,0,0,14.41-3.87,32.58,32.58,0,0,1-6.5-7.39c-1.17.08-1.25.08-2,.16V46.41a35.82,35.82,0,0,0,4.11.21H406.1a18.51,18.51,0,0,0,3.52-.21Zm-27.77-14.2a23.05,23.05,0,0,0-1.45-4c1.37,0,2.46,0,3.19,0a162.18,162.18,0,0,0,18.28-1.09,40.83,40.83,0,0,0,8.15-1.82l2.79,3.92c-.65.12-.77.12-1.74.36-1.57.37-2.82.61-4.88.93l3.91,1.25c-1.81,3.51-1.85,3.63-2.46,4.64h2.66a37.33,37.33,0,0,0,4.36-.16c-.08,1-.12,1.94-.12,3.39v2.95a21.73,21.73,0,0,0,.2,3h-4.48v-5H386.33v5.25h-4.48a18.88,18.88,0,0,0,.24-3.11v-3c0-1.13,0-2-.16-3.43a31.55,31.55,0,0,0,4.44.2h2.54a26.27,26.27,0,0,0-1.73-4.19ZM398,39.51c-.52-1.69-1.05-3.19-1.65-4.64-.12,0-1.7.12-4.73.28a41.68,41.68,0,0,1,1.74,4.36Zm-3.87,10.86a18.6,18.6,0,0,0,5.53,5.29,25.81,25.81,0,0,0,6.05-5.29Zm11.5-10.86a33.25,33.25,0,0,0,2.66-5.81c-1,.16-1.33.2-1.73.24s-1.46.17-2.95.29c-.64.08-1.69.16-3,.32a31.06,31.06,0,0,1,1.61,5Z"/><path class="cls-1" d="M430.36,61c0,1.82.08,3.31.2,4.85h-4.84A41.54,41.54,0,0,0,426,61V49.12c0-2,0-2.91.08-4.52a21,21,0,0,1-3.47,4.6,17.73,17.73,0,0,0-2.26-4.6,34.59,34.59,0,0,0,7.47-11.22,20.27,20.27,0,0,0,1.65-5.05l4.64,1.3c-.28.6-.56,1.29-1,2.34-.48,1.33-1.61,3.87-2.74,6.13Zm17.56-27.08a34.72,34.72,0,0,0-.29-5h4.89a45.49,45.49,0,0,0-.24,5V37.5h1.17a24.47,24.47,0,0,0,3.91-.25v4.44c-1.09-.08-2.38-.16-3.79-.16h-1.29V60.38c0,2.1-.45,3.35-1.38,3.95s-2,.77-5,.77c-1.45,0-2.54,0-4.28-.16a14.39,14.39,0,0,0-1.29-4.56,39.06,39.06,0,0,0,5,.4c2.26,0,2.59-.12,2.59-1V41.53h-11a42.84,42.84,0,0,0-4.76.24V37.25a35.68,35.68,0,0,0,4.56.25h11.18ZM437.54,44.23a47.73,47.73,0,0,1,6.22,9.41L440,56.3a38.67,38.67,0,0,0-6-9.8Z"/><path class="cls-1" d="M491,63.93a77.44,77.44,0,0,0-12.39-12,47.91,47.91,0,0,1-15.38,11.67,16,16,0,0,0-3.27-4.48A33.32,33.32,0,0,0,468,54.69a39,39,0,0,0,13.56-16.43l.44-1c-.64,0-.64,0-13.36.24a33.5,33.5,0,0,0-4.4.33l-.16-5.17a17.83,17.83,0,0,0,3.55.24h1l14.21-.2a8.81,8.81,0,0,0,3.59-.44L489.08,35a8.09,8.09,0,0,0-1.29,2.18,53.21,53.21,0,0,1-6.29,11.14A63.05,63.05,0,0,1,489,54.12c1,.89,1,.89,5.89,5.61Z"/><path class="cls-1" d="M529.28,36.32A7.43,7.43,0,0,0,528,39a68.32,68.32,0,0,1-5.16,11.1c-4.12,6.7-9.81,11.46-18.41,15.41a12.76,12.76,0,0,0-3.35-4.15,40.19,40.19,0,0,0,7.87-4,29.09,29.09,0,0,0,6.62-5.61A46.07,46.07,0,0,0,507.33,46l3.06-3.59a53.08,53.08,0,0,1,8.12,5.41A38.77,38.77,0,0,0,523,38.26l-12.56.12A41.58,41.58,0,0,1,501,49.24,12.83,12.83,0,0,0,497,46a34.67,34.67,0,0,0,10.13-11.5,24.64,24.64,0,0,0,2.35-5.61l5.24,1.17a23.69,23.69,0,0,0-1.21,2.26,20.38,20.38,0,0,1-1,1.94c.65-.08.65-.08,10.5-.16a10.93,10.93,0,0,0,3.55-.49Z"/><path class="cls-1" d="M533.76,44.32a40.09,40.09,0,0,0,6.54.28h21.51a40,40,0,0,0,6.54-.28v5.61a42.58,42.58,0,0,0-6.58-.21H540.34a42.66,42.66,0,0,0-6.58.21Z"/><path class="cls-1" d="M577.27,64.42a27.61,27.61,0,0,0,.24-4.53V34a26.14,26.14,0,0,0-.24-4.11h5.53a27.27,27.27,0,0,0-.16,4.24v7.5A119.16,119.16,0,0,1,601,50.17l-2.82,4.76a95.8,95.8,0,0,0-14.29-7.71,12.46,12.46,0,0,1-1.37-.68,21,21,0,0,1,.16,2.74V59.94c0,2.09,0,3.14.16,4.48Z"/><path class="cls-1" d="M167,49.64A49.65,49.65,0,1,1,117.37,0,49.65,49.65,0,0,1,167,49.64Z"/><path class="cls-2" d="M72.93,41.65V38l3.43-2.5h3.47v24.2H76.36V39.13Z"/><path class="cls-2" d="M84.67,42.21a6.51,6.51,0,0,1,2.14-5.16,6.78,6.78,0,0,1,4.71-1.79,6.92,6.92,0,0,1,4.8,1.79,6.81,6.81,0,0,1,2.08,5.16V52.89A6.8,6.8,0,0,1,96.32,58a7,7,0,0,1-4.8,1.82A6.9,6.9,0,0,1,86.81,58a6.5,6.5,0,0,1-2.14-5.15Zm10.26.22c-.07-2.42-1.21-3.66-3.41-3.7s-3.34,1.28-3.38,3.7V52.69q.06,3.68,3.38,3.7t3.41-3.7Z"/><path class="cls-2" d="M108.09,35.26h2.66l-8.14,24.6H100Z"/><path class="cls-2" d="M120,50.74h1.8A5.59,5.59,0,0,0,126,49.26a4.89,4.89,0,0,0,1.48-3.7,5.27,5.27,0,0,0-1.52-3.78,5.4,5.4,0,0,0-3.81-1.48,4.85,4.85,0,0,0-3.06,1.08,5.43,5.43,0,0,0-1.95,3.33h-5.23a10.66,10.66,0,0,1,3.28-6.84,9.49,9.49,0,0,1,6.76-2.8,10.31,10.31,0,0,1,10.76,10.39,11.19,11.19,0,0,1-.75,4A8.44,8.44,0,0,1,128.81,53a9.05,9.05,0,0,1,3.33,3.61,10.34,10.34,0,0,1,1,4.4,10.71,10.71,0,0,1-3.18,8.09A11,11,0,0,1,122,72.17a10,10,0,0,1-6.61-2.4,11.43,11.43,0,0,1-3.73-7h5.23a7.38,7.38,0,0,0,2,3,4.93,4.93,0,0,0,3.45,1.18,5.31,5.31,0,0,0,3.89-1.58,5.64,5.64,0,0,0,1.65-4.21,5.87,5.87,0,0,0-1.65-4.3,5.63,5.63,0,0,0-4-1.48H120Z"/><path class="cls-2" d="M137.58,45.56a9.84,9.84,0,0,1,3.23-7.79,10.21,10.21,0,0,1,7.11-2.7,10.36,10.36,0,0,1,7.23,2.7c2,1.82,3.07,4.42,3.13,7.79v16.1a10.18,10.18,0,0,1-3.13,7.76,10.54,10.54,0,0,1-7.23,2.75,10.39,10.39,0,0,1-7.11-2.75,9.8,9.8,0,0,1-3.23-7.76Zm15.47.32q-.15-5.48-5.13-5.58-5,.11-5.11,5.58V61.36q.1,5.52,5.11,5.58t5.13-5.58Z"/><path class="cls-1" d="M187,79.09a15.66,15.66,0,1,1-15.66-15.66A15.66,15.66,0,0,1,187,79.09Z"/><path class="cls-3" d="M168,77.18a15.19,15.19,0,0,0-2.16.11V76.23a23,23,0,0,1-3.58,1.8,10,10,0,0,0-1.27-2.26c4.08-1.43,7.38-3.8,9-6.44h2.73A13.07,13.07,0,0,0,176,72.72a18.25,18.25,0,0,0,5.82,3,11.78,11.78,0,0,0-1.18,2.42,22.65,22.65,0,0,1-3.85-1.93v1.12a14.71,14.71,0,0,0-2.15-.11h-2.24v2.13H178a15.34,15.34,0,0,0,2.39-.13v2.44a16.81,16.81,0,0,0-2.42-.14h-5.53v4.93h6a20.16,20.16,0,0,0,2.6-.14V88.8a20.39,20.39,0,0,0-2.64-.15H164.45a21.56,21.56,0,0,0-2.72.15V86.27a23,23,0,0,0,2.72.14H170V81.48h-5.21a17.55,17.55,0,0,0-2.37.14V79.18a15.86,15.86,0,0,0,2.39.13H170V77.18Zm-1.56,4.5a26.2,26.2,0,0,1,1.75,3.65l-2.19.88a16,16,0,0,0-1.74-3.65Zm1.49-6.57,6.81,0,.53,0a17.42,17.42,0,0,1-4-3.69,15.45,15.45,0,0,1-3.84,3.69Zm10.5,7.47c-.28.51-.28.51-1.1,2.11-.06.13-.15.29-.9,1.56l-2.06-.77a18,18,0,0,0,1.73-3.78Z"/><polygon class="cls-4" points="15.74 24.75 31.02 14.29 42.28 51.29 15.74 24.75"/><polygon class="cls-5" points="0 70.77 7.88 49.14 46.05 85.38 0 70.77"/><polygon class="cls-4" points="654.31 24.75 639.02 14.29 627.76 51.29 654.31 24.75"/><polygon class="cls-5" points="670.04 70.77 662.17 49.14 624 85.38 670.04 70.77"/></g></g></svg>